SplineFontDB: 3.0
FontName: Julee-Regular
FullName: Julee
FamilyName: Julee
Weight: Regular
Copyright: Copyright (c) 2011, Julian Tunni (jotadejulian@hotmail.com), with Reserved Font Name "Julee"
Version: 001.001
ItalicAngle: 0
UnderlinePosition: -50
UnderlineWidth: 50
Ascent: 800
Descent: 200
LayerCount: 2
Layer: 0 1 "Back"  1
Layer: 1 1 "Fore"  0
NeedsXUIDChange: 1
XUID: [1021 288 713564382 3647005]
FSType: 0
OS2Version: 2
OS2_WeightWidthSlopeOnly: 0
OS2_UseTypoMetrics: 1
CreationTime: 1314966730
ModificationTime: 1314960974
PfmFamily: 65
TTFWeight: 400
TTFWidth: 5
LineGap: 0
VLineGap: 0
Panose: 2 0 0 0 0 0 0 0 0 0
OS2TypoAscent: 94
OS2TypoAOffset: 1
OS2TypoDescent: -84
OS2TypoDOffset: 1
OS2TypoLinegap: 0
OS2WinAscent: 0
OS2WinAOffset: 1
OS2WinDescent: 0
OS2WinDOffset: 1
HheadAscent: 0
HheadAOffset: 1
HheadDescent: 0
HheadDOffset: 1
OS2SubXSize: 700
OS2SubYSize: 650
OS2SubXOff: 0
OS2SubYOff: 140
OS2SupXSize: 700
OS2SupYSize: 650
OS2SupXOff: 0
OS2SupYOff: 477
OS2StrikeYSize: 50
OS2StrikeYPos: 250
OS2Vendor: 'TIPO'
OS2CodePages: 20000111.40000000
OS2UnicodeRanges: 800000af.4000204b.00000000.00000000
Lookup: 258 0 0 "'kern' Horizontal Kerning in Latin lookup 0"  {"'kern' Horizontal Kerning in Latin lookup 0 per glyph data 0"  "'kern' Horizontal Kerning in Latin lookup 0 per glyph data 1"  "'kern' Horizontal Kerning in Latin lookup 0 kerning class 2"  } ['kern' ('latn' <'dflt' > ) ]
MarkAttachClasses: 1
DEI: 91125
KernClass2: 3+ 6 "'kern' Horizontal Kerning in Latin lookup 0 kerning class 2" 
 50 A Aring Agrave Aacute Acircumflex Atilde Adieresis
 8 L Lslash
 18 Y Ydieresis Yacute
 18 Y Ydieresis Yacute
 50 A Aring Agrave Aacute Acircumflex Atilde Adieresis
 70 a d c q g aacute adieresis ccedilla acircumflex aring agrave atilde ae
 37 e eacute edieresis ecircumflex egrave
 54 o oacute odieresis oslash ocircumflex ograve otilde oe
 0 {} -40 {} 0 {} 0 {} 0 {} 0 {} 0 {} -70 {} 0 {} 0 {} 0 {} 0 {} 0 {} 0 {} -20 {} -50 {} -35 {} -50 {}
TtTable: prep
PUSHW_1
 511
SCANCTRL

StartChar: A
Encoding: 65 65 1
Width: 502
Flags: HMW
HStem: -34 21G<-16 -7.5 453 461.5> 657 20G<337 342.5>
LayerCount: 2
Fore
SplineSet
381 658 m 1,0,1
 375.755395683 604.776978417 375.755395683 604.776978417 375.755395683 546.233890585 c 0,2,3
 375.755395683 303.388489209 375.755395683 303.388489209 466 -31 c 1,4,5
 462.802884615 -33.4807692308 462.802884615 -33.4807692308 458 -34 c 0,6,7
 432 -34 432 -34 419 -19 c 1,8,9
 385 53 385 53 345 193 c 1,10,11
 277 182 277 182 218.5 182 c 128,-1,12
 160 182 160 182 137 184 c 1,13,14
 90 86 90 86 32 -19 c 1,15,16
 14 -34 14 -34 -5.01432291667 -33.7604166667 c 128,-1,17
 -24.0286458333 -33.5208333333 -24.0286458333 -33.5208333333 -24 -31 c 1,18,19
 14 44 14 44 76 192 c 1,20,21
 64 194 64 194 38 200 c 1,22,23
 23 216 23 216 23 244 c 0,24,25
 23 251 23 251 26 251 c 128,-1,26
 29 251 29 251 37.5 248.5 c 0,27,28
 59.3333333333 242.078431373 59.3333333333 242.078431373 94 238 c 1,29,30
 190 473 190 473 227 619 c 1,31,-1
 337 677 l 1,32,33
 365 677 365 677 381 658 c 1,0,1
161 235 m 1,34,35
 255 237 255 237 328 258 c 1,36,37
 287 413 287 413 276 522 c 1,38,39
 219 365 219 365 161 235 c 1,34,35
EndSplineSet
EndChar

StartChar: E
Encoding: 69 69 2
Width: 542
Flags: HMW
HStem: -33 21G<216.5 347> 657 20G<227 227 490 490>
VStem: 106 81<188.5 299>
LayerCount: 2
Fore
SplineSet
421 367 m 1,0,-1
 391 298 l 1,1,2
 333 287 333 287 280 287 c 0,3,4
 227 287 227 287 188 290 c 1,5,6
 187 276 187 276 187 250 c 0,7,8
 187 152 187 152 215.5 88.5 c 128,-1,9
 244 25 244 25 301.5 25 c 0,10,11
 359 25 359 25 394 67.5 c 128,-1,12
 429 110 429 110 456 205 c 0,13,14
 458 213 458 213 463 213 c 0,15,16
 477 213 477 213 494 199 c 1,17,18
 448 -33 448 -33 285 -33 c 0,19,20
 112 -33 112 -33 106 299 c 1,21,-1
 86 303 l 1,22,23
 77 306 77 306 68.5 323.5 c 128,-1,24
 60 341 60 341 59 351 c 1,25,-1
 64 357 l 1,26,27
 91 353 91 353 107 352 c 1,28,29
 112 506 112 506 125 582 c 1,30,-1
 101 588 l 1,31,32
 92 594 92 594 86.5 607.5 c 128,-1,33
 81 621 81 621 81 627 c 0,34,35
 81 633 81 633 83 633 c 2,36,-1
 154 627 l 1,37,-1
 227 677 l 1,38,-1
 253 661 l 1,39,-1
 241 626 l 1,40,41
 393 628 393 628 490 677 c 1,42,-1
 507 651 l 1,43,-1
 474 565 l 1,44,45
 404 556 404 556 341 556 c 0,46,47
 278 556 278 556 226 563 c 1,48,49
 202 461 202 461 192 349 c 1,50,-1
 215 349 l 2,51,52
 323 349 323 349 412 384 c 1,53,-1
 421 367 l 1,0,-1
EndSplineSet
EndChar

StartChar: D
Encoding: 68 68 3
Width: 541
Flags: HMW
HStem: -28 21G<190.5 271.5> 662 20G<79 79>
VStem: 425 109<172 288.5>
LayerCount: 2
Fore
SplineSet
181 512 m 1,0,1
 184 467 184 467 184 372 c 128,-1,2
 184 277 184 277 173.5 187.5 c 128,-1,3
 163 98 163 98 151 72 c 1,4,5
 138 57 138 57 125 57 c 128,-1,6
 112 57 112 57 112 60 c 0,7,8
 126 172 126 172 126 235 c 0,9,10
 126 526 126 526 37 615 c 1,11,-1
 79 682 l 1,12,13
 161.382267442 601.579215116 161.382267442 601.579215116 281 526.5 c 0,14,15
 391.061560834 457.418807562 391.061560834 457.418807562 458.5 393 c 0,16,17
 492 361 492 361 513 318 c 128,-1,18
 534 275 534 275 534 223.5 c 128,-1,19
 534 172 534 172 511 127 c 128,-1,20
 488 82 488 82 453.5 54 c 128,-1,21
 419 26 419 26 375.5 7 c 0,22,23
 239.654287643 -52.3349088454 239.654287643 -52.3349088454 50 -11 c 1,24,25
 35 6 35 6 35 19 c 128,-1,26
 35 32 35 32 38 32 c 128,-1,27
 41 32 41 32 56 28.5 c 0,28,29
 105.285714286 17 105.285714286 17 158 17 c 0,30,31
 275 17 275 17 350 79.5 c 128,-1,32
 425 142 425 142 425 227 c 0,33,34
 425 384 425 384 181 512 c 1,0,1
EndSplineSet
EndChar

StartChar: P
Encoding: 80 80 4
Width: 480
Flags: HMW
HStem: -34 21G<130 138.5> 669 20G<106 106>
VStem: 384 101<371 447>
LayerCount: 2
Fore
SplineSet
72 210 m 1,0,1
 55 226 55 226 55 250 c 0,2,3
 55 258 55 258 58 258 c 0,4,5
 79 254 79 254 120 254 c 2,6,-1
 139 254 l 1,7,8
 135 533 135 533 59 622 c 1,9,-1
 106 689 l 1,10,11
 180.773638968 637.593123209 180.773638968 637.593123209 319.5 577 c 0,12,13
 363 558 363 558 403.5 534.5 c 0,14,15
 485 487.209876543 485 487.209876543 485 412.104938272 c 128,-1,16
 485 337 485 337 418.5 280 c 128,-1,17
 352 223 352 223 199 211 c 1,18,19
 193 143 193 143 173 -19 c 1,20,21
 158 -34 158 -34 141.5 -34 c 128,-1,22
 125 -34 125 -34 125 -31 c 0,23,24
 138 106 138 106 139 209 c 1,25,-1
 134 209 l 2,26,27
 92 209 92 209 72 210 c 1,0,1
189 577 m 1,28,29
 206 482 206 482 206 395 c 128,-1,30
 206 308 206 308 202 259 c 1,31,32
 292 273 292 273 338 312.5 c 128,-1,33
 384 352 384 352 384 403 c 0,34,35
 384 448.612903226 384 448.612903226 356.5 477 c 0,36,37
 341 493 341 493 328.5 504 c 128,-1,38
 316 515 316 515 287 530 c 0,39,40
 241.805194805 553.376623377 241.805194805 553.376623377 189 577 c 1,28,29
EndSplineSet
EndChar

StartChar: H
Encoding: 72 72 5
Width: 611
Flags: HMW
HStem: -34 21G<517 525.5> -33 21G<112.5 122.5> -28 21G<105.5 106> 657 20G<172 172 476 476>
VStem: 431 84<211.5 470.5>
LayerCount: 2
Fore
SplineSet
136 253 m 1,0,-1
 135 276 l 1,1,2
 111 279 111 279 75 288 c 1,3,4
 60 302 60 302 60 329 c 0,5,6
 60 338 60 338 63.5 338 c 128,-1,7
 67 338 67 338 75.5 335.5 c 0,8,9
 97.3571428571 329.071428571 97.3571428571 329.071428571 134 325 c 1,10,11
 130 401 130 401 117.5 478.5 c 128,-1,12
 105 556 105 556 95 596 c 2,13,-1
 85 636 l 1,14,-1
 172 677 l 1,15,-1
 198 661 l 1,16,17
 213 572 213 572 213 485 c 128,-1,18
 213 398 213 398 208 323 c 1,19,20
 343 329 343 329 432 369 c 1,21,22
 431 390 431 390 431 464.5 c 128,-1,23
 431 539 431 539 450 661 c 1,24,-1
 476 677 l 1,25,-1
 561 636 l 1,26,27
 515 518 515 518 515 273 c 0,28,29
 515 91 515 91 530 -31 c 0,30,31
 530 -34 530 -34 522 -34 c 0,32,33
 496 -34 496 -34 483 -19 c 1,34,35
 447 164 447 164 437 292 c 1,36,37
 331 270 331 270 242 270 c 2,38,-1
 204 270 l 1,39,40
 193 154 193 154 165 -14 c 1,41,42
 158 -22 158 -22 142.5 -27.5 c 128,-1,43
 127 -33 127 -33 116.5 -33 c 128,-1,44
 106 -33 106 -33 106 -28 c 1,45,-1
 109 -17 l 2,46,47
 136 82 136 82 136 253 c 1,0,-1
EndSplineSet
EndChar

StartChar: T
Encoding: 84 84 6
Width: 457
Flags: HMW
HStem: -33 21G<188 196> 540 87<126 282.5> 641 20G<58 58>
VStem: 206 88
LayerCount: 2
Fore
SplineSet
234 -19 m 1,0,1
 220 -33 220 -33 191 -33 c 0,2,3
 184 -33 184 -33 184 -30 c 0,4,5
 206 103 206 103 206 254.5 c 0,6,7
 206 406 206 406 194 541 c 1,8,9
 177 540 177 540 133.5 540 c 0,10,11
 90 540 90 540 36 549 c 1,12,-1
 20 575 l 1,13,-1
 58 661 l 1,14,15
 121 627 121 627 235.5 627 c 0,16,17
 350 627 350 627 458 654 c 0,18,19
 462 654 462 654 462 637 c 0,20,21
 462 620 462 620 447 607 c 1,22,23
 367 573 367 573 294 556 c 1,24,25
 276 144 276 144 234 -19 c 1,0,1
EndSplineSet
EndChar

StartChar: a
Encoding: 97 97 8
Width: 470
Flags: HMW
HStem: -28 21G<403.5 411> -22 120<80 188> 473 20G<398 398>
VStem: 24 94<150.5 182> 309 80<219.5 349.5>
LayerCount: 2
Fore
SplineSet
317 458 m 1,0,-1
 398 493 l 1,1,-1
 422 479 l 1,2,3
 389 382 389 382 389 255 c 0,4,5
 389 201 389 201 398 105 c 128,-1,6
 407 9 407 9 415 -25 c 0,7,8
 415 -28 415 -28 400 -28 c 128,-1,9
 385 -28 385 -28 371 -14 c 1,10,11
 339 60 339 60 320 204 c 1,12,13
 278 104 278 104 219.5 41 c 128,-1,14
 161 -22 161 -22 114 -22 c 0,15,16
 24 -22 24 -22 24 91 c 0,17,18
 24 156 24 156 50 216 c 128,-1,19
 76 276 76 276 120.5 321 c 0,20,21
 208.127753304 409.612334802 208.127753304 409.612334802 317 458 c 1,0,-1
168 98 m 0,22,23
 200 98 200 98 239.5 149.5 c 128,-1,24
 279 201 279 201 310 295 c 1,25,26
 309 309 309 309 309 349 c 128,-1,27
 309 389 309 389 310 408 c 1,28,29
 224 359 224 359 171 303.5 c 128,-1,30
 118 248 118 248 118 173 c 128,-1,31
 118 98 118 98 168 98 c 0,22,23
EndSplineSet
EndChar

StartChar: n
Encoding: 110 110 9
Width: 498
Flags: HMW
HStem: -22 21G<360.5 368> -13 21G<76 83.5> 352 120<284 393> 465 20G<87 87>
LayerCount: 2
Fore
SplineSet
72 -9 m 0,0,1
 96.1111111111 116.797101449 96.1111111111 116.797101449 96.1111111111 219.898550725 c 128,-1,2
 96.1111111111 323 96.1111111111 323 88.5555555556 365.5 c 128,-1,3
 81 408 81 408 72.5 437 c 128,-1,4
 64 466 64 466 63 470 c 1,5,-1
 87 485 l 1,6,-1
 168 446 l 1,7,8
 175.692307692 388.307692308 175.692307692 388.307692308 175.692307692 349.269230769 c 128,-1,9
 175.692307692 310.230769231 175.692307692 310.230769231 175 292 c 1,10,11
 217 374 217 374 268 423 c 128,-1,12
 319 472 319 472 362 472 c 0,13,14
 445 472 445 472 445 359 c 0,15,16
 445 271.391304348 445 271.391304348 428 148.695652174 c 128,-1,17
 411 26 411 26 407 -8 c 1,18,19
 395 -22 395 -22 363 -22 c 0,20,21
 356 -22 356 -22 356 -19 c 0,22,23
 371 109 371 109 371 195 c 0,24,25
 371 352 371 352 312 352 c 0,26,27
 267 352 267 352 219.5 279 c 128,-1,28
 172 206 172 206 142 73 c 1,29,-1
 140 73 l 1,30,31
 126 25 126 25 117 1 c 1,32,33
 103 -13 103 -13 87.5 -13 c 128,-1,34
 72 -13 72 -13 72 -9 c 0,0,1
EndSplineSet
EndChar

StartChar: p
Encoding: 112 112 10
Width: 496
Flags: HMW
HStem: -275 21G<50.5 59> 371 120<297 409>
VStem: 371 94<314 318>
LayerCount: 2
Fore
SplineSet
77 485 m 1,0,-1
 157 445 l 1,1,2
 166.6 376.2 166.6 376.2 166.6 327.6 c 128,-1,3
 166.6 279 166.6 279 166 259 c 1,4,5
 207 361 207 361 266.5 426 c 128,-1,6
 326 491 326 491 374 491 c 0,7,8
 465 491 465 491 465 378 c 0,9,10
 465 274 465 274 393 162 c 0,11,12
 357 106 357 106 291.5 57 c 128,-1,13
 226 8 226 8 141 -21 c 1,14,15
 124 -141 124 -141 96 -258 c 1,16,17
 79 -275 79 -275 54 -275 c 0,18,19
 46 -275 46 -275 46 -270 c 1,20,21
 91 -61 91 -61 91 135 c 128,-1,22
 91 331 91 331 52 468 c 1,23,-1
 77 485 l 1,0,-1
156 92 m 1,24,-1
 155 92 l 1,25,-1
 149 35 l 1,26,27
 258 73 258 73 314.5 150 c 128,-1,28
 371 227 371 227 371 299 c 128,-1,29
 371 371 371 371 321 371 c 0,30,31
 281 371 281 371 233 297 c 128,-1,32
 185 223 185 223 156 92 c 1,24,-1
EndSplineSet
EndChar

StartChar: d
Encoding: 100 100 11
Width: 459
Flags: HMW
HStem: -31 21G<407 415.5> -22 120<80 188.5> 692 20G<389 389>
VStem: 24 94<58 208.5>
LayerCount: 2
Fore
SplineSet
309 674 m 1,0,-1
 389 712 l 1,1,-1
 414 696 l 1,2,3
 375 564 375 564 375 373.5 c 128,-1,4
 375 183 375 183 420 -26 c 1,5,6
 420 -31 420 -31 412 -31 c 0,7,8
 386 -31 386 -31 371 -14 c 1,9,10
 347 79 347 79 325 217 c 1,11,12
 284 112 284 112 224 45 c 128,-1,13
 164 -22 164 -22 110 -22 c 0,14,15
 67 -22 67 -22 45.5 8.5 c 128,-1,16
 24 39 24 39 24 97 c 128,-1,17
 24 155 24 155 49.5 222 c 128,-1,18
 75 289 75 289 140 359.5 c 128,-1,19
 205 430 205 430 300 472 c 1,20,21
 299.4 495.4 299.4 495.4 299.4 550.7 c 128,-1,22
 299.4 606 299.4 606 309 674 c 1,0,-1
313 304 m 1,23,24
 305 380 305 380 303 418 c 1,25,26
 240 390 240 390 196.5 344 c 0,27,28
 118 260.988505747 118 260.988505747 118 172 c 0,29,30
 118 98 118 98 168 98 c 0,31,32
 201 98 201 98 241.5 152 c 128,-1,33
 282 206 282 206 313 304 c 1,23,24
EndSplineSet
EndChar

StartChar: h
Encoding: 104 104 12
Width: 494
Flags: HMW
HStem: -31 21G<73.5 81.5> -22 21G<357 364.5> 352 120<280.5 389.5> 692 20G<99 99>
LayerCount: 2
Fore
SplineSet
353 -19 m 0,0,1
 367 116 367 116 367 195 c 0,2,3
 367 352 367 352 308 352 c 0,4,5
 264 352 264 352 216.5 279 c 128,-1,6
 169 206 169 206 138 73 c 1,7,-1
 137 73 l 1,8,9
 132 48 132 48 118 -14 c 1,10,11
 112 -21 112 -21 98.5 -26 c 128,-1,12
 85 -31 85 -31 76.5 -31 c 128,-1,13
 68 -31 68 -31 68 -26 c 1,14,15
 113 183 113 183 113 373.5 c 128,-1,16
 113 564 113 564 74 696 c 1,17,-1
 99 712 l 1,18,-1
 179 674 l 1,19,20
 188.68 606.68 188.68 606.68 188.68 514.34 c 128,-1,21
 188.68 422 188.68 422 173 296 c 1,22,23
 215 376 215 376 265.5 424 c 128,-1,24
 316 472 316 472 361 472 c 0,25,26
 441 472 441 472 441 359 c 0,27,28
 441 266.083333333 441 266.083333333 424 143.541666667 c 128,-1,29
 407 21 407 21 404 -8 c 1,30,31
 390 -22 390 -22 360 -22 c 0,32,33
 353 -22 353 -22 353 -19 c 0,0,1
EndSplineSet
EndChar

StartChar: u
Encoding: 117 117 13
Width: 511
Flags: HMW
HStem: -28 21G<445 452.5> -22 120<181.5 185.5> 473 20G<439 439>
VStem: 350 81<219.5 365.5>
LayerCount: 2
Fore
SplineSet
159 468 m 0,0,1
 145 335 145 335 145 255 c 0,2,3
 145 98 145 98 204 98 c 0,4,5
 241 98 241 98 281 148.5 c 128,-1,6
 321 199 321 199 351 293 c 1,7,8
 350 309 350 309 350 358 c 128,-1,9
 350 407 350 407 359 458 c 1,10,-1
 439 493 l 1,11,-1
 464 479 l 1,12,13
 431 382 431 382 431 255 c 0,14,15
 431 200 431 200 439.5 104 c 128,-1,16
 448 8 448 8 457 -25 c 0,17,18
 457 -28 457 -28 441.5 -28 c 128,-1,19
 426 -28 426 -28 412 -14 c 1,20,21
 382 58 382 58 361 203 c 1,22,23
 320 104 320 104 261.5 41 c 128,-1,24
 203 -22 203 -22 151 -22 c 0,25,26
 71 -22 71 -22 71 91 c 0,27,28
 71 168 71 168 79.5 236 c 128,-1,29
 88 304 88 304 96.5 365 c 128,-1,30
 105 426 105 426 109 458 c 1,31,32
 114 463 114 463 129 467.5 c 128,-1,33
 144 472 144 472 151.5 472 c 128,-1,34
 159 472 159 472 159 468 c 0,0,1
EndSplineSet
EndChar

StartChar: o
Encoding: 111 111 14
Width: 477
Flags: HMW
HStem: -33 91<198.5 273 198.5 289.5> 465 20G<409 409>
VStem: 42 91<160.5 244.5>
LayerCount: 2
Fore
SplineSet
420 457 m 1,0,-1
 372 402 l 1,1,2
 428 334 428 334 428 231 c 0,3,4
 428 85.8163265306 428 85.8163265306 335 8 c 0,5,6
 286 -33 286 -33 214.5 -33 c 128,-1,7
 143 -33 143 -33 92.5 24 c 128,-1,8
 42 81 42 81 42 181 c 0,9,10
 42 286.24691358 42 286.24691358 120.5 372.5 c 0,11,12
 161 417 161 417 235.5 447 c 128,-1,13
 310 477 310 477 409 485 c 1,14,-1
 420 457 l 1,0,-1
229 58 m 0,15,16
 290 58 290 58 330.5 110 c 128,-1,17
 371 162 371 162 371 218 c 0,18,19
 371 339 371 339 316 405 c 1,20,21
 239 392 239 392 186 336 c 128,-1,22
 133 280 133 280 133 209 c 128,-1,23
 133 138 133 138 158.5 98 c 128,-1,24
 184 58 184 58 229 58 c 0,15,16
EndSplineSet
EndChar

StartChar: r
Encoding: 114 114 15
Width: 329
Flags: HMW
HStem: -30 21G<73 80.5> 465 20G<87 87>
LayerCount: 2
Fore
SplineSet
353 464 m 1,0,-1
 329 349 l 1,1,2
 316 353 316 353 294 353 c 0,3,4
 272 353 272 353 252 339 c 128,-1,5
 232 325 232 325 215 291 c 128,-1,6
 198 257 198 257 186 220 c 128,-1,7
 174 183 174 183 162 141 c 0,8,9
 150 99 150 99 142.5 71.5 c 0,10,11
 135 44 135 44 113 -15 c 1,12,13
 100 -30 100 -30 76 -30 c 0,14,15
 68 -30 68 -30 68 -26 c 0,16,17
 94 101 94 101 94 226.5 c 0,18,19
 94 352 94 352 63 468 c 1,20,-1
 87 485 l 1,21,-1
 168 442 l 1,22,23
 175 370 175 370 175 315 c 2,24,-1
 175 301 l 1,25,26
 237 446 237 446 332 483 c 1,27,-1
 353 464 l 1,0,-1
EndSplineSet
EndChar

StartChar: e
Encoding: 101 101 16
Width: 426
Flags: HMW
HStem: -22 99<186.5 215> 457 20G
VStem: 41 86 127 172
LayerCount: 2
Fore
SplineSet
381 368 m 1,0,1
 370 322 370 322 337 285 c 128,-1,2
 304 248 304 248 262 226 c 0,3,4
 185.21875 185.78125 185.21875 185.78125 127 175 c 1,5,6
 131 125 131 125 153 101 c 128,-1,7
 175 77 175 77 206 77 c 0,8,9
 294 77 294 77 365 225 c 1,10,11
 366 231 366 231 375 231 c 128,-1,12
 384 231 384 231 402 217 c 1,13,14
 359 113 359 113 296.5 45.5 c 128,-1,15
 234 -22 234 -22 172 -22 c 128,-1,16
 110 -22 110 -22 75.5 23 c 128,-1,17
 41 68 41 68 41 144 c 0,18,19
 41 248.950819672 41 248.950819672 98.5 338.5 c 0,20,21
 129 386 129 386 185.5 422.5 c 128,-1,22
 242 459 242 459 320 477 c 1,23,24
 381 456 381 456 381 368 c 1,0,1
264 398 m 0,25,26
 222 398 222 398 177 349.5 c 128,-1,27
 132 301 132 301 127 215 c 1,28,29
 210 237 210 237 254.5 279.5 c 128,-1,30
 299 322 299 322 299 363 c 0,31,32
 299 378 299 378 290 388 c 128,-1,33
 281 398 281 398 264 398 c 0,25,26
EndSplineSet
EndChar

StartChar: c
Encoding: 99 99 17
Width: 408
Flags: HMW
HStem: -22 99<185 215> 478 20G<356 356>
VStem: 41 86<156 208>
LayerCount: 2
Fore
SplineSet
295.5 47 m 128,-1,1
 236 -22 236 -22 173 -22 c 128,-1,2
 110 -22 110 -22 75.5 23 c 128,-1,3
 41 68 41 68 41 144 c 0,4,5
 41 229.772727273 41 229.772727273 80 306 c 0,6,7
 102 349 102 349 136 384 c 128,-1,8
 170 419 170 419 226.5 449.5 c 128,-1,9
 283 480 283 480 356 498 c 1,10,-1
 378 479 l 1,11,-1
 346 390 l 1,12,13
 313 403 313 403 282 403 c 0,14,15
 211 403 211 403 169 340 c 128,-1,16
 127 277 127 277 127 195 c 0,17,18
 127 139 127 139 150 108 c 128,-1,19
 173 77 173 77 206 77 c 0,20,21
 281 77 281 77 341 225 c 1,22,23
 342 231 342 231 350.5 231 c 128,-1,24
 359 231 359 231 379 217 c 1,25,0
 355 116 355 116 295.5 47 c 128,-1,1
EndSplineSet
EndChar

StartChar: m
Encoding: 109 109 18
Width: 748
Flags: HMW
HStem: -22 21G<347.5 355 611 618.5> -13 21G<76 83.5> 352 120<279 380 585 586.5> 465 20G<87 87>
LayerCount: 2
Fore
SplineSet
72 -9 m 0,0,1
 96.1111111111 116.797101449 96.1111111111 116.797101449 96.1111111111 219.898550725 c 128,-1,2
 96.1111111111 323 96.1111111111 323 88.5555555556 365.5 c 128,-1,3
 81 408 81 408 72.5 437 c 128,-1,4
 64 466 64 466 63 470 c 1,5,-1
 87 485 l 1,6,-1
 168 446 l 1,7,8
 176.1 376.7 176.1 376.7 176.1 342.25 c 128,-1,9
 176.1 307.8 176.1 307.8 176 301 c 1,10,11
 215 379 215 379 262.5 425.5 c 128,-1,12
 310 472 310 472 351 472 c 128,-1,13
 392 472 392 472 412 441.5 c 128,-1,14
 432 411 432 411 432 365 c 128,-1,15
 432 319 432 319 429 280 c 1,16,17
 468 366 468 366 519 419 c 128,-1,18
 570 472 570 472 612.5 472 c 128,-1,19
 655 472 655 472 675 441.5 c 128,-1,20
 695 411 695 411 695 364.5 c 128,-1,21
 695 318 695 318 691 267.5 c 128,-1,22
 687 217 687 217 682.5 181.5 c 128,-1,23
 678 146 678 146 669.5 84.5 c 128,-1,24
 661 23 661 23 657 -8 c 1,25,26
 645 -22 645 -22 614 -22 c 0,27,28
 608 -22 608 -22 608 -19 c 0,29,30
 621 124 621 124 621 195 c 0,31,32
 621 352 621 352 565 352 c 0,33,34
 522 352 522 352 477.5 279 c 128,-1,35
 433 206 433 206 404 73 c 1,36,37
 400 46 400 46 394 -8 c 1,38,39
 382 -22 382 -22 350 -22 c 0,40,41
 345 -22 345 -22 345 -19 c 0,42,43
 358 124 358 124 358 195 c 0,44,45
 358 352 358 352 302 352 c 0,46,47
 266 352 266 352 227 298.5 c 128,-1,48
 188 245 188 245 158 145 c 1,49,50
 145 76 145 76 117 1 c 1,51,52
 103 -13 103 -13 87.5 -13 c 128,-1,53
 72 -13 72 -13 72 -9 c 0,0,1
EndSplineSet
EndChar

StartChar: l
Encoding: 108 108 19
Width: 242
Flags: HMW
HStem: -31 21G<64.5 74> 692 20G<93 93>
LayerCount: 2
Fore
SplineSet
93 712 m 1,0,-1
 173 674 l 1,1,2
 183.626506024 599.614457831 183.626506024 599.614457831 183.626506024 513.210843373 c 0,3,4
 183.626506024 426.807228916 183.626506024 426.807228916 173.5 329 c 0,5,6
 153 131 153 131 114 -14 c 1,7,8
 108 -21 108 -21 93 -26 c 128,-1,9
 78 -31 78 -31 69 -31 c 0,10,11
 60 -31 60 -31 60 -26 c 1,12,13
 107 174 107 174 107 369 c 0,14,15
 107 564 107 564 68 696 c 1,16,-1
 93 712 l 1,0,-1
EndSplineSet
EndChar

StartChar: t
Encoding: 116 116 20
Width: 313
Flags: HMW
HStem: -22 21G<102 109.5> 583 20G<127 127>
LayerCount: 2
Fore
SplineSet
327 457 m 1,0,-1
 297 387 l 1,1,2
 248 377 248 377 197 376 c 1,3,4
 178 110 178 110 147 -8 c 1,5,6
 135 -22 135 -22 105 -22 c 0,7,8
 98 -22 98 -22 98 -19 c 0,9,10
 120 123 120 123 120 257 c 0,11,12
 120 306 120 306 117 378 c 1,13,14
 64 384 64 384 34 392 c 1,15,16
 28 395 28 395 21.5 412.5 c 128,-1,17
 15 430 15 430 14 440 c 1,18,-1
 18 446 l 1,19,20
 57 438 57 438 114 438 c 1,21,22
 108 548 108 548 103 586 c 1,23,-1
 127 603 l 1,24,-1
 208 560 l 1,25,-1
 202 443 l 1,26,27
 255 449 255 449 317 473 c 1,28,-1
 327 457 l 1,0,-1
EndSplineSet
EndChar

StartChar: f
Encoding: 102 102 21
Width: 288
Flags: HMW
HStem: -110 21G<84.5 94> 692 20G<314 314>
LayerCount: 2
Fore
SplineSet
308 442 m 1,0,-1
 278 373 l 1,1,2
 226 362 226 362 176 362 c 1,3,4
 167 150 167 150 130 -93 c 1,5,6
 113 -110 113 -110 88 -110 c 0,7,8
 80 -110 80 -110 80 -105 c 0,9,10
 105 90 105 90 105 308 c 0,11,12
 105 347 105 347 104 365 c 1,13,14
 73 367 73 367 31 378 c 1,15,16
 24 381 24 381 18 398 c 128,-1,17
 12 415 12 415 11 426 c 1,18,-1
 14 432 l 1,19,20
 54 424 54 424 102 424 c 1,21,22
 101 440 101 440 91 543 c 1,23,24
 99 587 99 587 151.5 636 c 128,-1,25
 204 685 204 685 314 712 c 1,26,-1
 338 694 l 1,27,-1
 315 608 l 1,28,29
 271 627 271 627 243 627 c 0,30,31
 179 627 179 627 179 497 c 0,32,33
 179 486 179 486 178.5 462.5 c 128,-1,34
 178 439 178 439 178 427 c 1,35,36
 237 434 237 434 299 459 c 1,37,-1
 308 442 l 1,0,-1
EndSplineSet
EndChar

StartChar: b
Encoding: 98 98 22
Width: 473
Flags: HMW
HStem: -31 21G<59 64> 371 120<275 386.5> 692 20G<87 87>
VStem: 348 94<287.5 318>
LayerCount: 2
Fore
SplineSet
87 712 m 1,0,-1
 168 674 l 1,1,2
 178.022727273 603.363636364 178.022727273 603.363636364 178.022727273 513.136363636 c 0,3,4
 178.022727273 422.909090909 178.022727273 422.909090909 166 310 c 1,5,6
 207 392 207 392 258.5 441.5 c 128,-1,7
 310 491 310 491 356 491 c 0,8,9
 442 491 442 491 442 378 c 0,10,11
 442 288 442 288 392.5 196.5 c 128,-1,12
 343 105 343 105 255.5 41 c 128,-1,13
 168 -23 168 -23 69 -30 c 0,14,15
 67 -31 67 -31 60.5 -31 c 0,16,17
 54 -31 54 -31 54 -26 c 1,18,19
 101 174 101 174 101 367 c 0,20,21
 101 560 101 560 63 696 c 1,22,-1
 87 712 l 1,0,-1
137 109 m 1,23,-1
 119 25 l 1,24,25
 231 63 231 63 289.5 143.5 c 128,-1,26
 348 224 348 224 348 297.5 c 0,27,28
 348 371 348 371 299 371 c 0,29,30
 260 371 260 371 213.5 301.5 c 128,-1,31
 167 232 167 232 137 109 c 1,23,-1
EndSplineSet
EndChar

StartChar: q
Encoding: 113 113 23
Width: 451
Flags: HMW
HStem: -280 21G<379 379> -22 120<80 198.5> 473 20G<396 396>
VStem: 24 94<150.5 181>
LayerCount: 2
Fore
SplineSet
353 465 m 1,0,-1
 396 493 l 1,1,-1
 421 479 l 1,2,3
 369 258 369 258 369 86 c 0,4,5
 369 -86 369 -86 404 -264 c 1,6,-1
 379 -280 l 1,7,-1
 299 -236 l 1,8,9
 291 -170 291 -170 291 -67.5 c 0,10,11
 291 35 291 35 319 201 c 1,12,13
 278 102 278 102 218 40 c 128,-1,14
 158 -22 158 -22 112.5 -22 c 0,15,16
 67 -22 67 -22 45.5 8.5 c 128,-1,17
 24 39 24 39 24 91 c 0,18,19
 24 220 24 220 119.5 321.5 c 128,-1,20
 215 423 215 423 353 465 c 1,0,-1
339 404 m 1,21,22
 224 365 224 365 171 302.5 c 128,-1,23
 118 240 118 240 118 169 c 0,24,25
 118 98 118 98 167 98 c 0,26,27
 216 98 216 98 265.5 182 c 128,-1,28
 315 266 315 266 339 404 c 1,21,22
EndSplineSet
EndChar

StartChar: i
Encoding: 105 105 24
Width: 231
Flags: HMW
HStem: -13 21G<75 82.5> 656 20G
VStem: 82 120<591 620.5>
LayerCount: 2
Fore
SplineSet
175 446 m 1,0,1
 176.988235294 415.717647059 176.988235294 415.717647059 176.988235294 384.289134948 c 0,2,3
 176.988235294 210.223529412 176.988235294 210.223529412 116 1 c 1,4,5
 102 -13 102 -13 78 -13 c 0,6,7
 73 -13 73 -13 71.5 -12 c 128,-1,8
 70 -11 70 -11 71 -9 c 0,9,10
 95.2525252525 134.04040404 95.2525252525 134.04040404 95.2525252525 254.04040404 c 128,-1,11
 95.2525252525 374.04040404 95.2525252525 374.04040404 70 470 c 1,12,-1
 94 485 l 1,13,-1
 175 446 l 1,0,1
95.5 562 m 128,-1,15
 82 579 82 579 82 605 c 128,-1,16
 82 631 82 631 105 650.5 c 128,-1,17
 128 670 128 670 172 676 c 1,18,19
 202 651 202 651 202 616.5 c 128,-1,20
 202 582 202 582 181 563.5 c 128,-1,21
 160 545 160 545 134.5 545 c 128,-1,14
 109 545 109 545 95.5 562 c 128,-1,15
EndSplineSet
EndChar

StartChar: s
Encoding: 115 115 25
Width: 368
Flags: HMW
HStem: -31 21G<111 212.5> 471 20G<323 323>
VStem: 54 94<317 354.5> 217 108<79 132.5>
LayerCount: 2
Fore
SplineSet
345 472 m 1,0,-1
 313 383 l 1,1,2
 267 413 267 413 222 413 c 0,3,4
 148 413 148 413 148 356 c 0,5,6
 148 316.886792453 148 316.886792453 210.5 265 c 0,7,8
 237 243 237 243 263 219 c 0,9,10
 325 161.769230769 325 161.769230769 325 104 c 0,11,12
 325 58.7631578947 325 58.7631578947 291 18.5 c 0,13,14
 272 -4 272 -4 229.5 -17.5 c 128,-1,15
 187 -31 187 -31 132 -31 c 128,-1,16
 77 -31 77 -31 33 -17 c 1,17,18
 28 -13 28 -13 21.5 1.5 c 128,-1,19
 15 16 15 16 15 22 c 128,-1,20
 15 28 15 28 17.5 28 c 128,-1,21
 20 28 20 28 31.5 25 c 0,22,23
 62.1666666667 17 62.1666666667 17 108.083333333 17 c 128,-1,24
 154 17 154 17 185.5 37 c 128,-1,25
 217 57 217 57 217 88 c 128,-1,26
 217 119 217 119 191.5 149 c 128,-1,27
 166 179 166 179 135.5 203 c 128,-1,28
 105 227 105 227 79.5 262.5 c 128,-1,29
 54 298 54 298 54 334 c 0,30,31
 54 366.181818182 54 366.181818182 75.5 391.590909091 c 128,-1,32
 97 417 97 417 125 433.5 c 0,33,34
 193.487356322 473.85862069 193.487356322 473.85862069 323 491 c 1,35,-1
 345 472 l 1,0,-1
EndSplineSet
EndChar

StartChar: S
Encoding: 83 83 26
Width: 438
Flags: HMW
HStem: -28 21G<110.5 241> 644 20G<391 391>
VStem: 43 96<433.5 486.5> 287 112<122.5 198.5>
LayerCount: 2
Fore
SplineSet
408 638 m 1,0,-1
 375 552 l 1,1,2
 326 578 326 578 268 578 c 128,-1,3
 210 578 210 578 174.5 557 c 128,-1,4
 139 536 139 536 139 491 c 0,5,6
 139 436.210526316 139 436.210526316 231 366 c 0,7,8
 269 337 269 337 307 306.5 c 128,-1,9
 345 276 345 276 372 236.5 c 128,-1,10
 399 197 399 197 399 162 c 128,-1,11
 399 127 399 127 387.5 98.5 c 128,-1,12
 376 70 376 70 349 40 c 128,-1,13
 322 10 322 10 265 -9 c 128,-1,14
 208 -28 208 -28 137 -28 c 128,-1,15
 66 -28 66 -28 11 -11 c 1,16,17
 0 6 0 6 0 19 c 128,-1,18
 0 32 0 32 1.5 32 c 128,-1,19
 3 32 3 32 15.5 28.5 c 0,20,21
 56.5714285714 17 56.5714285714 17 98 17 c 0,22,23
 182 17 182 17 234.5 51 c 128,-1,24
 287 85 287 85 287 138 c 0,25,26
 287 197.722222222 287 197.722222222 201 267 c 0,27,28
 165 296 165 296 129 325 c 0,29,30
 43 394.277777778 43 394.277777778 43 460 c 0,31,32
 43 501.931818182 43 501.931818182 78 542.5 c 0,33,34
 154.704528012 631.407521105 154.704528012 631.407521105 391 664 c 1,35,-1
 408 638 l 1,0,-1
EndSplineSet
EndChar

StartChar: k
Encoding: 107 107 27
Width: 450
Flags: HMW
HStem: -31 21G<390.5 400.5> -19 21G<63.5 70.5 426 426> 692 20G<88 88>
LayerCount: 2
Fore
SplineSet
417 455 m 1,0,-1
 391 349 l 1,1,2
 374 353 374 353 356 353 c 0,3,4
 299 353 299 353 244 303 c 1,5,6
 273 223 273 223 324.5 129.5 c 128,-1,7
 376 36 376 36 426 -19 c 1,8,-1
 426 -20 l 2,9,10
 426 -31 426 -31 393 -31 c 0,11,12
 384 -31 384 -31 381 -30 c 1,13,14
 327 16 327 16 268 94.5 c 128,-1,15
 209 173 209 173 183 224 c 1,16,-1
 182 225 l 1,17,18
 140 153 140 153 127 73 c 1,19,-1
 123 69 l 1,20,-1
 107 -2 l 1,21,22
 101 -9 101 -9 87.5 -14 c 128,-1,23
 74 -19 74 -19 67 -19 c 0,24,25
 60 -19 60 -19 60 -14 c 1,26,27
 102 182 102 182 102 373 c 0,28,29
 102 564 102 564 63 696 c 1,30,-1
 88 712 l 1,31,-1
 168 674 l 1,32,33
 178 599 178 599 178 500.5 c 0,34,35
 178 402 178 402 154 243 c 1,36,37
 245 428 245 428 391 474 c 1,38,-1
 417 455 l 1,0,-1
EndSplineSet
EndChar

StartChar: v
Encoding: 118 118 28
Width: 406
Flags: HMW
HStem: -28 21G<176 181> 465 20G<83 83>
VStem: 53 92<248.5 412>
LayerCount: 2
Fore
SplineSet
427 474 m 2,0,-1
 426 468 l 1,1,2
 370 367 370 367 325.5 243.5 c 128,-1,3
 281 120 281 120 267 7 c 1,4,-1
 181 -28 l 1,5,6
 156 -28 156 -28 143 -14 c 1,7,8
 108 68 108 68 80.5 185.5 c 128,-1,9
 53 303 53 303 53 400 c 0,10,11
 53 442 53 442 58 468 c 1,12,-1
 83 485 l 1,13,-1
 163 445 l 1,14,15
 145 370 145 370 145 275.5 c 128,-1,16
 145 181 145 181 171 42 c 1,17,18
 200 144 200 144 261 264.5 c 128,-1,19
 322 385 322 385 381 464 c 1,20,21
 400 478 400 478 424 478 c 0,22,23
 427 478 427 478 427 474 c 2,0,-1
EndSplineSet
EndChar

StartChar: z
Encoding: 122 122 29
Width: 407
Flags: HMW
HStem: -17 21G<393 393.5> 359 85<161 278> 465 20G
LayerCount: 2
Fore
SplineSet
385 33 m 1,0,1
 395 20 395 20 395 1.5 c 128,-1,2
 395 -17 395 -17 393 -17 c 0,3,4
 311 2 311 2 217.5 2 c 128,-1,5
 124 2 124 2 40 -12 c 1,6,-1
 24 13 l 1,7,8
 45 37 45 37 78.5 76.5 c 128,-1,9
 112 116 112 116 179.5 212 c 128,-1,10
 247 308 247 308 274 373 c 1,11,12
 241 359 241 359 180.5 359 c 128,-1,13
 120 359 120 359 76 371 c 1,14,-1
 42 459 l 1,15,-1
 59 485 l 1,16,17
 150 444 150 444 244 444 c 0,18,19
 306 444 306 444 337 459.5 c 2,20,-1
 348 465 l 1,21,-1
 382 395 l 1,22,23
 346 276 346 276 127 74 c 1,24,25
 313 57 313 57 385 33 c 1,0,1
EndSplineSet
EndChar

StartChar: w
Encoding: 119 119 30
Width: 658
Flags: HMW
HStem: -28 21G<176 181 446 451> 465 20G<83 83 353 353>
VStem: 53 92<249 412>
LayerCount: 2
Fore
SplineSet
680 474 m 1,0,-1
 678 468 l 1,1,2
 622 368 622 368 577.5 244 c 128,-1,3
 533 120 533 120 518 7 c 1,4,-1
 451 -28 l 1,5,6
 426 -28 426 -28 413 -14 c 1,7,8
 351 134 351 134 329 304 c 1,9,10
 265 144 265 144 248 7 c 1,11,-1
 181 -28 l 1,12,13
 156 -28 156 -28 143 -14 c 1,14,15
 108 68 108 68 80.5 185.5 c 128,-1,16
 53 303 53 303 53 400 c 0,17,18
 53 442 53 442 58 468 c 1,19,-1
 83 485 l 1,20,-1
 163 445 l 1,21,22
 145 370 145 370 145 276.5 c 128,-1,23
 145 183 145 183 171 44 c 1,24,25
 193 127 193 127 235 224 c 128,-1,26
 277 321 277 321 323 400 c 1,27,28
 323 442 323 442 328 468 c 1,29,-1
 353 485 l 1,30,-1
 433 445 l 1,31,32
 415 370 415 370 415 281.5 c 128,-1,33
 415 193 415 193 441 45 c 1,34,35
 469 147 469 147 524.5 266.5 c 128,-1,36
 580 386 580 386 634 464 c 1,37,38
 652 478 652 478 676 478 c 0,39,40
 680 478 680 478 680 474 c 1,0,-1
EndSplineSet
EndChar

StartChar: y
Encoding: 121 121 31
Width: 406
Flags: HMW
HStem: -284 21G<33 33> 465 20G<83 83>
VStem: 53 92<248.5 412>
LayerCount: 2
Fore
SplineSet
427 474 m 2,0,-1
 426 468 l 1,1,2
 325 302 325 302 255 5 c 0,3,4
 199 -235 199 -235 33 -284 c 1,5,-1
 8 -266 l 1,6,-1
 32 -169 l 1,7,8
 52 -172 52 -172 66 -172 c 0,9,10
 160 -172 160 -172 205 -18 c 1,11,12
 183 -32 183 -32 170 -32 c 128,-1,13
 157 -32 157 -32 149 -28 c 1,14,15
 111 51 111 51 82 175.5 c 128,-1,16
 53 300 53 300 53 400 c 0,17,18
 53 442 53 442 58 468 c 1,19,-1
 83 485 l 1,20,-1
 163 445 l 1,21,22
 145 370 145 370 145 276.5 c 128,-1,23
 145 183 145 183 171 42 c 1,24,25
 200 143 200 143 261 263.5 c 128,-1,26
 322 384 322 384 381 464 c 1,27,28
 400 478 400 478 424 478 c 0,29,30
 427 478 427 478 427 474 c 2,0,-1
EndSplineSet
EndChar

StartChar: j
Encoding: 106 106 32
Width: 231
Flags: HMW
HStem: -284 21G<-81 -81> 676 20G
VStem: 105 85<208 395.5> 105 109
LayerCount: 2
Fore
SplineSet
83 -11 m 0,0,1
 105 116 105 116 105 237 c 128,-1,2
 105 358 105 358 84 468 c 1,3,-1
 109 485 l 1,4,-1
 189 442 l 1,5,6
 190 422 190 422 190 385 c 0,7,8
 190 228 190 228 140 7 c 0,9,10
 85 -235 85 -235 -81 -284 c 1,11,-1
 -106 -266 l 1,12,-1
 -83 -169 l 1,13,14
 -64 -172 -64 -172 -48 -172 c 0,15,16
 2 -172 2 -172 35.5 -129 c 128,-1,17
 69 -86 69 -86 83 -11 c 0,0,1
107 582.5 m 128,-1,19
 93 600 93 600 93.5 625.5 c 128,-1,20
 94 651 94 651 117 670.5 c 128,-1,21
 140 690 140 690 184 696 c 1,22,23
 214 671 214 671 214 636.5 c 128,-1,24
 214 602 214 602 193 583.5 c 128,-1,25
 172 565 172 565 146.5 565 c 128,-1,18
 121 565 121 565 107 582.5 c 128,-1,19
EndSplineSet
EndChar

StartChar: x
Encoding: 120 120 33
Width: 427
Flags: HMW
HStem: -24 21G<365.5 381> -20 21G<47 55> 465 20G<76 76>
LayerCount: 2
Fore
SplineSet
63 -17 m 0,0,1
 60 -20 60 -20 46 -20 c 0,2,3
 32 -20 32 -20 18 -6 c 1,4,5
 90 117 90 117 151 212 c 1,6,7
 65 349 65 349 51 468 c 1,8,-1
 76 485 l 1,9,-1
 156 445 l 1,10,11
 166 371 166 371 202 289 c 1,12,13
 277 400 277 400 330 466 c 1,14,-1
 411 480 l 1,15,-1
 433 464 l 1,16,17
 318 333 318 333 234 221 c 1,18,19
 293 107 293 107 389 -17 c 1,20,21
 389 -24 389 -24 379 -24 c 0,22,23
 347 -24 347 -24 335 -14 c 1,24,25
 253 65 253 65 186 158 c 1,26,27
 112 56 112 56 63 -17 c 0,0,1
EndSplineSet
EndChar

StartChar: g
Encoding: 103 103 34
Width: 447
Flags: HMW
HStem: -284 102<112.5 129> -12 110<147 148> 465 20G<373 373>
VStem: 32 80<146 194.5> 314 85
LayerCount: 2
Fore
SplineSet
315 458 m 2,0,-1
 373 485 l 1,1,-1
 398 468 l 1,2,3
 399 448 399 448 399 385 c 0,4,5
 399 228 399 228 349 7 c 0,6,7
 324.574552684 -102.914512922 324.574552684 -102.914512922 249.5 -189 c 0,8,9
 212 -232 212 -232 158 -258 c 128,-1,10
 104 -284 104 -284 42 -284 c 1,11,-1
 18 -266 l 1,12,-1
 41 -169 l 1,13,14
 87 -182 87 -182 125 -182 c 0,15,16
 311 -182 311 -182 314 203 c 1,17,18
 271 103 271 103 218 45.5 c 128,-1,19
 165 -12 165 -12 113 -12 c 0,20,21
 74 -12 74 -12 53 19.5 c 128,-1,22
 32 51 32 51 32 110.5 c 128,-1,23
 32 170 32 170 58 226.5 c 128,-1,24
 84 283 84 283 127 326.5 c 0,25,26
 208.315447154 408.76097561 208.315447154 408.76097561 315 458 c 2,0,-1
312 304 m 1,27,28
 310 337 310 337 300 404 c 1,29,30
 208 364 208 364 160 295.5 c 128,-1,31
 112 227 112 227 112 166 c 0,32,33
 112 135 112 135 125.5 116.5 c 128,-1,34
 139 98 139 98 164 98 c 0,35,36
 198 98 198 98 240 152 c 128,-1,37
 282 206 282 206 312 304 c 1,27,28
EndSplineSet
EndChar

StartChar: I
Encoding: 73 73 35
Width: 261
Flags: HMW
HStem: -33 21G<94.5 103.5> 657 20G<106 106>
VStem: 109 87
LayerCount: 2
Fore
SplineSet
144 -17 m 1,0,1
 138 -23 138 -23 122.5 -28 c 128,-1,2
 107 -33 107 -33 98.5 -33 c 0,3,4
 90 -33 90 -33 90 -29 c 0,5,6
 109 100 109 100 109 235 c 0,7,8
 109 475 109 475 80 659 c 1,9,-1
 106 677 l 1,10,-1
 196 631 l 1,11,12
 191 470 191 470 177 273.5 c 128,-1,13
 163 77 163 77 144 -17 c 1,0,1
EndSplineSet
EndChar

StartChar: period
Encoding: 46 46 36
Width: 212
Flags: HMW
HStem: -28 21G<79 117> 101 20G
VStem: 39 138<23.5 57.5>
LayerCount: 2
Fore
SplineSet
55 -9 m 128,-1,1
 39 10 39 10 39 39.5 c 128,-1,2
 39 69 39 69 66 91.5 c 128,-1,3
 93 114 93 114 142 121 c 1,4,5
 177 94 177 94 177 53.5 c 128,-1,6
 177 13 177 13 153 -7.5 c 128,-1,7
 129 -28 129 -28 100 -28 c 128,-1,0
 71 -28 71 -28 55 -9 c 128,-1,1
EndSplineSet
EndChar

StartChar: hyphen
Encoding: 45 45 37
Width: 401
Flags: HMW
HStem: 219 21G<181 227> 306 20G<355 355>
LayerCount: 2
Fore
SplineSet
366 308 m 1,0,-1
 333 230 l 1,1,2
 267 219 267 219 196.5 219 c 0,3,4
 126 219 126 219 58 236 c 1,5,6
 51 240 51 240 44 259 c 128,-1,7
 37 278 37 278 35 290 c 1,8,-1
 39 296 l 1,9,10
 90 288 90 288 149 288 c 0,11,12
 256 288 256 288 355 326 c 1,13,-1
 366 308 l 1,0,-1
EndSplineSet
EndChar

StartChar: N
Encoding: 78 78 38
Width: 588
Flags: HMW
HStem: -28 21G<72 82 490.5 499> -24 21G<65 66> 657 20G<176 176 482 482>
LayerCount: 2
Fore
SplineSet
558 636 m 1,0,1
 526 556 526 556 509.971428571 433.6 c 128,-1,2
 493.942857143 311.2 493.942857143 311.2 493.942857143 200.09047619 c 128,-1,3
 493.942857143 88.980952381 493.942857143 88.980952381 504 -25 c 0,4,5
 504 -28 504 -28 495 -28 c 0,6,7
 466 -28 466 -28 457 -14 c 0,8,9
 289 233 289 233 183 468 c 1,10,11
 183 212 183 212 126 -9 c 1,12,13
 118 -17 118 -17 102 -22.5 c 128,-1,14
 86 -28 86 -28 76 -28 c 128,-1,15
 66 -28 66 -28 66 -24 c 1,16,-1
 69.5 -11.5 l 2,17,18
 106 118.857142857 106 118.857142857 106 297 c 0,19,20
 106 378 106 378 96.5 462.5 c 128,-1,21
 87 547 87 547 77.5 591.5 c 2,22,-1
 68 636 l 1,23,-1
 176 677 l 1,24,-1
 202 661 l 1,25,26
 245 512 245 512 308 372 c 128,-1,27
 371 232 371 232 436 129 c 1,28,29
 423.482758621 224.586206897 423.482758621 224.586206897 423.482758621 355.896551724 c 128,-1,30
 423.482758621 487.206896552 423.482758621 487.206896552 457 661 c 1,31,-1
 482 677 l 1,32,-1
 558 636 l 1,0,1
EndSplineSet
EndChar

StartChar: O
Encoding: 79 79 39
Width: 581
Flags: HMW
HStem: -34 83<253.5 299 253.5 375.5> 656 20G<448 448>
VStem: 30 96<214.5 347>
LayerCount: 2
Fore
SplineSet
448 676 m 1,0,-1
 465 651 l 1,1,-1
 436 593 l 1,2,3
 486 550 486 550 518.5 470 c 128,-1,4
 551 390 551 390 551 314 c 128,-1,5
 551 238 551 238 535.5 180.5 c 128,-1,6
 520 123 520 123 489 73.5 c 128,-1,7
 458 24 458 24 402.5 -5 c 128,-1,8
 347 -34 347 -34 274 -34 c 0,9,10
 170 -34 170 -34 100 45 c 128,-1,11
 30 124 30 124 30 263 c 0,12,13
 30 402.760869565 30 402.760869565 118 518.5 c 0,14,15
 164 579 164 579 249 621.5 c 128,-1,16
 334 664 334 664 448 676 c 1,0,-1
299 49 m 1,17,18
 390 52 390 52 438.5 117 c 128,-1,19
 487 182 487 182 487 269.5 c 128,-1,20
 487 357 487 357 458 444 c 128,-1,21
 429 531 429 531 377 583 c 1,22,23
 250 565 250 565 188 488.5 c 128,-1,24
 126 412 126 412 126 296.5 c 128,-1,25
 126 181 126 181 176.5 115 c 128,-1,26
 227 49 227 49 299 49 c 1,17,18
EndSplineSet
EndChar

StartChar: X
Encoding: 88 88 40
Width: 509
Flags: HMW
HStem: -33 21G<456 473> -28 21G<43.5 51> 648 20G<101 101>
LayerCount: 2
Fore
SplineSet
59 -24 m 0,0,1
 57 -28 57 -28 48 -28 c 0,2,3
 27 -28 27 -28 15 -8 c 1,4,5
 106 165 106 165 195 310 c 1,6,7
 102 485 102 485 75 650 c 1,8,-1
 101 668 l 1,9,-1
 186 625 l 1,10,11
 199 522 199 522 250 399 c 1,12,13
 332 529 332 529 413 643 c 1,14,-1
 500 663 l 1,15,-1
 529 640 l 1,16,17
 404 486 404 486 286 318 c 1,18,19
 350 183 350 183 481 -24 c 1,20,21
 481 -33 481 -33 471 -33 c 0,22,23
 435 -33 435 -33 424 -20 c 0,24,25
 321 89 321 89 232 241 c 1,26,27
 131 92 131 92 59 -24 c 0,0,1
EndSplineSet
EndChar

StartChar: R
Encoding: 82 82 41
Width: 528
Flags: HMW
HStem: -34 21G<130 138.5> 669 20G<106 106>
VStem: 384 101<399 457>
LayerCount: 2
Fore
SplineSet
72 235 m 1,0,1
 55 251 55 251 55 275 c 0,2,3
 55 283 55 283 58 283 c 0,4,5
 79 279 79 279 120 279 c 2,6,-1
 138 279 l 1,7,8
 132 536 132 536 59 622 c 1,9,-1
 106 689 l 1,10,11
 183.952 638.656 183.952 638.656 320 583 c 0,12,13
 364 565 364 565 404 543 c 0,14,15
 485 498.45 485 498.45 485 425 c 0,16,17
 485 381 485 381 456.5 340 c 128,-1,18
 428 299 428 299 365 272 c 1,19,20
 451 82 451 82 528 -19 c 1,21,-1
 528 -20 l 2,22,23
 528 -31 528 -31 495 -31 c 0,24,25
 487 -31 487 -31 483 -30 c 1,26,27
 414 38 414 38 291 249 c 1,28,29
 254 241 254 241 201 236 c 1,30,31
 197 172 197 172 173 -19 c 1,32,33
 158 -34 158 -34 141.5 -34 c 128,-1,34
 125 -34 125 -34 125 -31 c 0,35,36
 139 102 139 102 139 232 c 2,37,-1
 139 234 l 1,38,-1
 134 234 l 2,39,40
 92 234 92 234 72 235 c 1,0,1
189 577 m 1,41,42
 206 482 206 482 206 405 c 128,-1,43
 206 328 206 328 203 284 c 1,44,45
 292 296 292 296 338 332.5 c 128,-1,46
 384 369 384 369 384 416 c 0,47,48
 384 458.387096774 384 458.387096774 356.5 485 c 0,49,50
 341 500 341 500 328.5 510 c 128,-1,51
 316 520 316 520 287 534 c 128,-1,52
 258 548 258 548 242.5 554.5 c 128,-1,53
 227 561 227 561 189 577 c 1,41,42
EndSplineSet
EndChar

StartChar: F
Encoding: 70 70 42
Width: 433
Flags: HMW
HStem: -33 21G<112.5 122.5> -28 21G<105.5 106> 657 20G<172 172 446 446>
LayerCount: 2
Fore
SplineSet
136 253 m 1,0,-1
 135 285 l 1,1,2
 106 290 106 290 89 295 c 0,3,4
 82 298 82 298 76 315 c 128,-1,5
 70 332 70 332 69 343 c 1,6,-1
 72 349 l 1,7,8
 100 344 100 344 134 342 c 1,9,10
 129 445 129 445 108 577 c 1,11,12
 93 580 93 580 65 588 c 1,13,14
 56 594 56 594 50.5 607.5 c 128,-1,15
 45 621 45 621 45 627 c 128,-1,16
 45 633 45 633 47 633 c 0,17,18
 66 631 66 631 102 629 c 1,19,-1
 172 677 l 1,20,-1
 198 661 l 1,21,22
 202 636 202 636 203 626 c 1,23,24
 352 630 352 630 446 677 c 1,25,-1
 463 651 l 1,26,-1
 430 565 l 1,27,28
 359.2 556 359.2 556 305 556 c 128,-1,29
 250.8 556 250.8 556 210 560 c 1,30,31
 213 509 213 509 213 464.5 c 128,-1,32
 213 420 213 420 209 342 c 1,33,34
 302 347 302 347 377 376 c 1,35,-1
 386 359 l 1,36,-1
 355 290 l 1,37,38
 295 279 295 279 227 279 c 2,39,-1
 204 279 l 1,40,41
 193 160 193 160 165 -14 c 1,42,43
 158 -22 158 -22 142.5 -27.5 c 128,-1,44
 127 -33 127 -33 116.5 -33 c 128,-1,45
 106 -33 106 -33 106 -28 c 1,46,-1
 109 -17 l 2,47,48
 136 82 136 82 136 253 c 1,0,-1
EndSplineSet
EndChar

StartChar: L
Encoding: 76 76 43
Width: 422
Flags: HMW
HStem: -28 21G<84.5 93.5> 657 20G<108 108>
LayerCount: 2
Fore
SplineSet
135 -5 m 1,0,-1
 134 -12 l 1,1,2
 128 -18 128 -18 112.5 -23 c 128,-1,3
 97 -28 97 -28 88.5 -28 c 128,-1,4
 80 -28 80 -28 80 -24 c 0,5,6
 103.806451613 119.97235023 103.806451613 119.97235023 103.806451613 311.486175115 c 128,-1,7
 103.806451613 503 103.806451613 503 82 659 c 1,8,-1
 108 677 l 1,9,-1
 197 631 l 1,10,11
 180 262 180 262 145 47 c 1,12,13
 158.770491803 46.5901639344 158.770491803 46.5901639344 172.131147541 46.5901639344 c 0,14,15
 321.770491803 46.5901639344 321.770491803 46.5901639344 420 98 c 1,16,-1
 437 72 l 1,17,-1
 404 -14 l 1,18,19
 351.257142857 -18.8285714286 351.257142857 -18.8285714286 283.042857143 -18.8285714286 c 128,-1,20
 214.828571429 -18.8285714286 214.828571429 -18.8285714286 135 -5 c 1,0,-1
EndSplineSet
EndChar

StartChar: K
Encoding: 75 75 44
Width: 491
Flags: HMW
HStem: -31 21G<445 455> -28 21G<89.5 98.5> 657 20G<101 101>
VStem: 104 87
LayerCount: 2
Fore
SplineSet
139 -12 m 1,0,1
 133 -18 133 -18 117.5 -23 c 128,-1,2
 102 -28 102 -28 93.5 -28 c 0,3,4
 85 -28 85 -28 85 -24 c 0,5,6
 104 105 104 105 104 235 c 0,7,8
 104 475 104 475 75 659 c 1,9,-1
 101 677 l 1,10,-1
 191 631 l 1,11,12
 184 444 184 444 174 309 c 1,13,14
 294 527 294 527 375 643 c 1,15,-1
 462 663 l 1,16,-1
 491 640 l 1,17,18
 352 468 352 468 278 369 c 1,19,20
 303 292 303 292 367 168.5 c 128,-1,21
 431 45 431 45 480 -19 c 1,22,-1
 480 -20 l 2,23,24
 480 -31 480 -31 447 -31 c 0,25,26
 439 -31 439 -31 435 -30 c 1,27,28
 356 46 356 46 219 289 c 1,29,30
 181 235 181 235 167 214 c 1,31,32
 153 57 153 57 139 -12 c 1,0,1
EndSplineSet
EndChar

StartChar: comma
Encoding: 44 44 45
Width: 217
Flags: HMW
HStem: -138 21G<23 32.5> 109 20G<97.5 134.5>
VStem: 43 135<56 76 -14.5 79.5>
LayerCount: 2
Fore
SplineSet
161 108 m 128,-1,1
 178 87 178 87 178 51 c 128,-1,2
 178 15 178 15 163.5 -18.5 c 128,-1,3
 149 -52 149 -52 128.5 -73 c 128,-1,4
 108 -94 108 -94 85 -109.5 c 0,5,6
 42.7096774194 -138 42.7096774194 -138 26 -138 c 0,7,8
 22 -138 22 -138 16 -126.5 c 128,-1,9
 10 -115 10 -115 10 -107 c 1,10,11
 81 -74 81 -74 86 -6 c 1,12,-1
 43 56 l 1,13,14
 43 90 43 90 64.5 109.5 c 128,-1,15
 86 129 86 129 115 129 c 128,-1,0
 144 129 144 129 161 108 c 128,-1,1
EndSplineSet
EndChar

StartChar: U
Encoding: 85 85 46
Width: 611
Flags: HMW
HStem: -34 21G<522 530.5> -33 84<250 320> 657 20G<133 133 481 481>
VStem: 80 90<253.5 368 237.5 409> 436 84<211.5 470.5>
LayerCount: 2
Fore
SplineSet
218 636 m 1,0,1
 200 579 200 579 185 485.5 c 128,-1,2
 170 392 170 392 170 305 c 0,3,4
 170 51 170 51 300 51 c 0,5,6
 359 51 359 51 396 112 c 128,-1,7
 433 173 433 173 445 260 c 1,8,9
 436 347 436 347 436 443 c 128,-1,10
 436 539 436 539 455 661 c 1,11,-1
 481 677 l 1,12,-1
 566 636 l 1,13,14
 520 518 520 518 520 273 c 0,15,16
 520 91 520 91 535 -31 c 0,17,18
 535 -34 535 -34 527 -34 c 0,19,20
 501 -34 501 -34 488 -19 c 1,21,22
 467 85 467 85 457 159 c 1,23,24
 407 -33 407 -33 267 -33 c 0,25,26
 213 -33 213 -33 175 -1 c 128,-1,27
 137 31 137 31 117 87.5 c 0,28,29
 80 192.025 80 192.025 80 345.5125 c 128,-1,30
 80 499 80 499 107 661 c 1,31,-1
 133 677 l 1,32,-1
 218 636 l 1,0,1
EndSplineSet
EndChar

StartChar: acute
Encoding: 180 180 47
Width: 319
Flags: HMW
HStem: 522 21G 697 20G<241 241>
LayerCount: 2
Fore
SplineSet
257 707 m 1,0,-1
 269 620 l 1,1,2
 226 583 226 583 184 561.5 c 128,-1,3
 142 540 142 540 83 522 c 1,4,5
 75 523 75 523 62.5 536.5 c 128,-1,6
 50 550 50 550 50 560 c 1,7,8
 164 612 164 612 241 717 c 1,9,-1
 257 707 l 1,0,-1
EndSplineSet
EndChar

StartChar: dotlessi
Encoding: 305 305 49
Width: 231
Flags: HMW
HStem: -13 21G<75.5 82.5> 465 20G<94 94>
VStem: 96 81<220.5 391>
LayerCount: 2
Fore
SplineSet
175 446 m 1,0,1
 177 402 177 402 177 380 c 0,2,3
 177 212 177 212 116 1 c 1,4,5
 102 -13 102 -13 86.5 -13 c 0,6,7
 71 -13 71 -13 71 -10 c 2,8,-1
 71 -9 l 1,9,10
 96 141 96 141 96 255 c 128,-1,11
 96 369 96 369 70 470 c 1,12,-1
 94 485 l 1,13,-1
 175 446 l 1,0,1
EndSplineSet
EndChar

StartChar: iacute
Encoding: 237 237 50
Width: 231
Flags: HMW
HStem: -13 21G<75.5 82.5> 697 20G<197 197>
VStem: 96 81<220.5 391>
LayerCount: 2
Fore
SplineSet
175 446 m 1,0,1
 177 402 177 402 177 380 c 0,2,3
 177 212 177 212 116 1 c 1,4,5
 102 -13 102 -13 86.5 -13 c 0,6,7
 71 -13 71 -13 71 -10 c 2,8,-1
 71 -9 l 1,9,10
 96 141 96 141 96 255 c 128,-1,11
 96 369 96 369 70 470 c 1,12,-1
 94 485 l 1,13,-1
 175 446 l 1,0,1
213 707 m 1,14,-1
 225 620 l 1,15,16
 182 583 182 583 140 561.5 c 128,-1,17
 98 540 98 540 39 522 c 1,18,19
 31 523 31 523 18.5 536.5 c 128,-1,20
 6 550 6 550 6 560 c 1,21,22
 120 612 120 612 197 717 c 1,23,-1
 213 707 l 1,14,-1
EndSplineSet
EndChar

StartChar: uacute
Encoding: 250 250 52
Width: 511
Flags: HMW
HStem: -28 21G<445 452.5> -22 120<181.5 185.5> 697 20G<337 337>
VStem: 350 81<219.5 365.5>
LayerCount: 2
Fore
SplineSet
159 468 m 0,0,1
 145 335 145 335 145 255 c 0,2,3
 145 98 145 98 204 98 c 0,4,5
 241 98 241 98 281 148.5 c 128,-1,6
 321 199 321 199 351 293 c 1,7,8
 350 309 350 309 350 358 c 128,-1,9
 350 407 350 407 359 458 c 1,10,-1
 439 493 l 1,11,-1
 464 479 l 1,12,13
 431 382 431 382 431 255 c 0,14,15
 431 200 431 200 439.5 104 c 128,-1,16
 448 8 448 8 457 -25 c 0,17,18
 457 -28 457 -28 441.5 -28 c 128,-1,19
 426 -28 426 -28 412 -14 c 1,20,21
 382 58 382 58 361 203 c 1,22,23
 320 104 320 104 261.5 41 c 128,-1,24
 203 -22 203 -22 151 -22 c 0,25,26
 71 -22 71 -22 71 91 c 0,27,28
 71 168 71 168 79.5 236 c 128,-1,29
 88 304 88 304 96.5 365 c 128,-1,30
 105 426 105 426 109 458 c 1,31,32
 114 463 114 463 129 467.5 c 128,-1,33
 144 472 144 472 151.5 472 c 128,-1,34
 159 472 159 472 159 468 c 0,0,1
353 707 m 1,35,-1
 365 620 l 1,36,37
 322 583 322 583 280 561.5 c 128,-1,38
 238 540 238 540 179 522 c 1,39,40
 171 523 171 523 158.5 536.5 c 128,-1,41
 146 550 146 550 146 560 c 1,42,43
 260 612 260 612 337 717 c 1,44,-1
 353 707 l 1,35,-1
EndSplineSet
EndChar

StartChar: yacute
Encoding: 253 253 54
Width: 406
Flags: HMW
HStem: -284 21G<33 33> 697 20G<356 356>
VStem: 53 92<248.5 412>
LayerCount: 2
Fore
SplineSet
427 474 m 2,0,-1
 426 468 l 1,1,2
 325 302 325 302 255 5 c 0,3,4
 199 -235 199 -235 33 -284 c 1,5,-1
 8 -266 l 1,6,-1
 32 -169 l 1,7,8
 52 -172 52 -172 66 -172 c 0,9,10
 160 -172 160 -172 205 -18 c 1,11,12
 183 -32 183 -32 170 -32 c 128,-1,13
 157 -32 157 -32 149 -28 c 1,14,15
 111 51 111 51 82 175.5 c 128,-1,16
 53 300 53 300 53 400 c 0,17,18
 53 442 53 442 58 468 c 1,19,-1
 83 485 l 1,20,-1
 163 445 l 1,21,22
 145 370 145 370 145 276.5 c 128,-1,23
 145 183 145 183 171 42 c 1,24,25
 200 143 200 143 261 263.5 c 128,-1,26
 322 384 322 384 381 464 c 1,27,28
 400 478 400 478 424 478 c 0,29,30
 427 478 427 478 427 474 c 2,0,-1
372 707 m 1,31,-1
 384 620 l 1,32,33
 341 583 341 583 299 561.5 c 128,-1,34
 257 540 257 540 198 522 c 1,35,36
 190 523 190 523 177.5 536.5 c 128,-1,37
 165 550 165 550 165 560 c 1,38,39
 279 612 279 612 356 717 c 1,40,-1
 372 707 l 1,31,-1
EndSplineSet
EndChar

StartChar: dieresis
Encoding: 168 168 55
Width: 401
Flags: HMW
HStem: 549 21G<82 114 269 301> 654 20G
VStem: 50 114<593 621> 237 114<593 621>
LayerCount: 2
Fore
SplineSet
50 602 m 0,0,1
 50 662 50 662 135 674 c 1,2,3
 164 651 164 651 164 617.5 c 0,4,5
 164 584 164 584 144 566.5 c 128,-1,6
 124 549 124 549 100 549 c 0,7,8
 76 549 76 549 63 565.5 c 128,-1,9
 50 582 50 582 50 602 c 0,0,1
237 602 m 0,10,11
 237 662 237 662 322 674 c 1,12,13
 351 651 351 651 351 617.5 c 0,14,15
 351 584 351 584 331 566.5 c 128,-1,16
 311 549 311 549 287 549 c 0,17,18
 263 549 263 549 250 565.5 c 128,-1,19
 237 582 237 582 237 602 c 0,10,11
EndSplineSet
EndChar

StartChar: edieresis
Encoding: 235 235 57
Width: 426
Flags: HMW
HStem: -22 99<186.5 215> 654 20G
VStem: 41 86 116 114<593 621> 299 118
LayerCount: 2
Fore
SplineSet
381 368 m 1,0,1
 370 322 370 322 337 285 c 128,-1,2
 304 248 304 248 262 226 c 0,3,4
 185.21875 185.78125 185.21875 185.78125 127 175 c 1,5,6
 131 125 131 125 153 101 c 128,-1,7
 175 77 175 77 206 77 c 0,8,9
 294 77 294 77 365 225 c 1,10,11
 366 231 366 231 375 231 c 128,-1,12
 384 231 384 231 402 217 c 1,13,14
 359 113 359 113 296.5 45.5 c 128,-1,15
 234 -22 234 -22 172 -22 c 128,-1,16
 110 -22 110 -22 75.5 23 c 128,-1,17
 41 68 41 68 41 144 c 0,18,19
 41 248.950819672 41 248.950819672 98.5 338.5 c 0,20,21
 129 386 129 386 185.5 422.5 c 128,-1,22
 242 459 242 459 320 477 c 1,23,24
 381 456 381 456 381 368 c 1,0,1
264 398 m 0,25,26
 222 398 222 398 177 349.5 c 128,-1,27
 132 301 132 301 127 215 c 1,28,29
 210 237 210 237 254.5 279.5 c 128,-1,30
 299 322 299 322 299 363 c 0,31,32
 299 378 299 378 290 388 c 128,-1,33
 281 398 281 398 264 398 c 0,25,26
116 602 m 0,34,35
 116 662 116 662 201 674 c 1,36,37
 230 651 230 651 230 617.5 c 128,-1,38
 230 584 230 584 210 566.5 c 128,-1,39
 190 549 190 549 166 549 c 128,-1,40
 142 549 142 549 129 565.5 c 128,-1,41
 116 582 116 582 116 602 c 0,34,35
303 602 m 0,42,43
 303 662 303 662 388 674 c 1,44,45
 417 651 417 651 417 617.5 c 128,-1,46
 417 584 417 584 397 566.5 c 128,-1,47
 377 549 377 549 353 549 c 128,-1,48
 329 549 329 549 316 565.5 c 128,-1,49
 303 582 303 582 303 602 c 0,42,43
EndSplineSet
EndChar

StartChar: odieresis
Encoding: 246 246 59
Width: 477
Flags: HMW
HStem: -33 91<198.5 273 198.5 289.5> 654 20G
VStem: 42 91<160.5 244.5> 125 114<593 621> 312 116
LayerCount: 2
Fore
SplineSet
420 457 m 1,0,-1
 372 402 l 1,1,2
 428 334 428 334 428 231 c 0,3,4
 428 85.8163265306 428 85.8163265306 335 8 c 0,5,6
 286 -33 286 -33 214.5 -33 c 128,-1,7
 143 -33 143 -33 92.5 24 c 128,-1,8
 42 81 42 81 42 181 c 0,9,10
 42 286.24691358 42 286.24691358 120.5 372.5 c 0,11,12
 161 417 161 417 235.5 447 c 128,-1,13
 310 477 310 477 409 485 c 1,14,-1
 420 457 l 1,0,-1
229 58 m 0,15,16
 290 58 290 58 330.5 110 c 128,-1,17
 371 162 371 162 371 218 c 0,18,19
 371 339 371 339 316 405 c 1,20,21
 239 392 239 392 186 336 c 128,-1,22
 133 280 133 280 133 209 c 128,-1,23
 133 138 133 138 158.5 98 c 128,-1,24
 184 58 184 58 229 58 c 0,15,16
125 602 m 0,25,26
 125 662 125 662 210 674 c 1,27,28
 239 651 239 651 239 617.5 c 128,-1,29
 239 584 239 584 219 566.5 c 128,-1,30
 199 549 199 549 175 549 c 128,-1,31
 151 549 151 549 138 565.5 c 128,-1,32
 125 582 125 582 125 602 c 0,25,26
312 602 m 0,33,34
 312 662 312 662 397 674 c 1,35,36
 426 651 426 651 426 617.5 c 128,-1,37
 426 584 426 584 406 566.5 c 128,-1,38
 386 549 386 549 362 549 c 128,-1,39
 338 549 338 549 325 565.5 c 128,-1,40
 312 582 312 582 312 602 c 0,33,34
EndSplineSet
EndChar

StartChar: C
Encoding: 67 67 61
Width: 488
Flags: HMW
HStem: -32 87<215.5 285> 657 20G<446 446>
VStem: 30 89<220 334>
LayerCount: 2
Fore
SplineSet
463 651 m 1,0,-1
 430 565 l 1,1,2
 402 569 402 569 371 569 c 0,3,4
 301 569 301 569 249 544.5 c 128,-1,5
 197 520 197 520 170.5 479.5 c 0,6,7
 119 400.79245283 119 400.79245283 119 307 c 0,8,9
 119 184 119 184 157 119.5 c 128,-1,10
 195 55 195 55 248 55 c 0,11,12
 316 55 316 55 362 109 c 128,-1,13
 408 163 408 163 440 275 c 0,14,15
 442 283 442 283 447 283 c 0,16,17
 461 283 461 283 478 269 c 1,18,19
 458 132 458 132 386.5 50 c 128,-1,20
 315 -32 315 -32 226.5 -32 c 128,-1,21
 138 -32 138 -32 84 46 c 128,-1,22
 30 124 30 124 30 252 c 0,23,24
 30 361.967741935 30 361.967741935 87 458.5 c 0,25,26
 118 511 118 511 164 554 c 128,-1,27
 210 597 210 597 283 630 c 128,-1,28
 356 663 356 663 446 677 c 1,29,-1
 463 651 l 1,0,-1
EndSplineSet
EndChar

StartChar: G
Encoding: 71 71 62
Width: 538
Flags: HMW
HStem: -32 87<212 257> 657 20G<446 446>
VStem: 30 89<220 334> 387 84<151.5 300.5>
LayerCount: 2
Fore
SplineSet
496 -14 m 0,0,1
 496 -18 496 -18 487 -19 c 1,2,3
 461 -16 461 -16 452 -4 c 1,4,5
 420 72 420 72 406 129 c 1,6,7
 375 52 375 52 326 10 c 128,-1,8
 277 -32 277 -32 218 -32 c 0,9,10
 130 -32 130 -32 80 46 c 128,-1,11
 30 124 30 124 30 252 c 0,12,13
 30 361.967741935 30 361.967741935 87 458.5 c 0,14,15
 118 511 118 511 164 554 c 128,-1,16
 210 597 210 597 283 630 c 128,-1,17
 356 663 356 663 446 677 c 1,18,-1
 463 651 l 1,19,-1
 430 565 l 1,20,21
 402 569 402 569 371 569 c 0,22,23
 301 569 301 569 249 544.5 c 128,-1,24
 197 520 197 520 170.5 479.5 c 0,25,26
 119 400.79245283 119 400.79245283 119 307 c 0,27,28
 119 184 119 184 155.5 119.5 c 128,-1,29
 192 55 192 55 243 55 c 0,30,31
 346 55 346 55 391 212 c 1,32,33
 387 244 387 244 387 286.5 c 128,-1,34
 387 329 387 329 397 386 c 1,35,-1
 421 402 l 1,36,-1
 503 365 l 1,37,38
 471 304 471 304 471 196 c 128,-1,39
 471 88 471 88 496 -14 c 0,0,1
EndSplineSet
EndChar

StartChar: exclam
Encoding: 33 33 63
Width: 257
Flags: HMW
HStem: -28 21G<100 138> 687 20G<176 176>
VStem: 60 138<23.5 57.5>
LayerCount: 2
Fore
SplineSet
101 224 m 0,0,1
 101 503 101 503 149 694 c 1,2,-1
 176 707 l 1,3,-1
 257 659 l 1,4,5
 223 590 223 590 192.5 452 c 128,-1,6
 162 314 162 314 153 194 c 1,7,8
 138 182 138 182 116 182 c 0,9,10
 101 182 101 182 101 224 c 0,0,1
87 91.5 m 128,-1,12
 60 69 60 69 60 39.5 c 128,-1,13
 60 10 60 10 76 -9 c 128,-1,14
 92 -28 92 -28 121 -28 c 128,-1,15
 150 -28 150 -28 174 -7.5 c 128,-1,16
 198 13 198 13 198 53.5 c 128,-1,17
 198 94 198 94 163 121 c 1,18,11
 114 114 114 114 87 91.5 c 128,-1,12
EndSplineSet
EndChar

StartChar: exclamdown
Encoding: 161 161 64
Width: 212
Flags: HMW
HStem: -235 21G<76 76> 480 20G<114 152>
VStem: 54 138<414.5 448.5>
LayerCount: 2
Fore
SplineSet
151 248 m 0,0,1
 151 -31 151 -31 103 -222 c 1,2,-1
 76 -235 l 1,3,-1
 -5 -187 l 1,4,5
 29 -118 29 -118 59.5 20 c 128,-1,6
 90 158 90 158 99 278 c 1,7,8
 114 290 114 290 136 290 c 0,9,10
 151 290 151 290 151 248 c 0,0,1
176 481 m 128,-1,12
 192 462 192 462 192 432.5 c 128,-1,13
 192 403 192 403 165 380.5 c 128,-1,14
 138 358 138 358 89 351 c 1,15,16
 54 378 54 378 54 418.5 c 128,-1,17
 54 459 54 459 78 479.5 c 128,-1,18
 102 500 102 500 131 500 c 128,-1,11
 160 500 160 500 176 481 c 128,-1,12
EndSplineSet
EndChar

StartChar: colon
Encoding: 58 58 65
Width: 212
Flags: HMW
HStem: -28 21G<79 117> 436 20G<125 163>
VStem: 39 138<23.5 57.5> 65 138<370.5 404.5>
LayerCount: 2
Fore
SplineSet
55 -9 m 128,-1,1
 39 10 39 10 39 39.5 c 128,-1,2
 39 69 39 69 66 91.5 c 128,-1,3
 93 114 93 114 142 121 c 1,4,5
 177 94 177 94 177 53.5 c 128,-1,6
 177 13 177 13 153 -7.5 c 128,-1,7
 129 -28 129 -28 100 -28 c 128,-1,0
 71 -28 71 -28 55 -9 c 128,-1,1
187 437 m 128,-1,9
 203 418 203 418 203 388.5 c 128,-1,10
 203 359 203 359 176 336.5 c 128,-1,11
 149 314 149 314 100 307 c 1,12,13
 65 334 65 334 65 374.5 c 128,-1,14
 65 415 65 415 89 435.5 c 128,-1,15
 113 456 113 456 142 456 c 128,-1,8
 171 456 171 456 187 437 c 128,-1,9
EndSplineSet
EndChar

StartChar: semicolon
Encoding: 59 59 66
Width: 212
Flags: HMW
HStem: -138 21G<22 31.5> 436 20G<125 163>
VStem: 42 135<56 76 -14.5 79.5> 65 138<370.5 404.5>
LayerCount: 2
Fore
SplineSet
187 437 m 128,-1,1
 203 418 203 418 203 388.5 c 128,-1,2
 203 359 203 359 176 336.5 c 128,-1,3
 149 314 149 314 100 307 c 1,4,5
 65 334 65 334 65 374.5 c 128,-1,6
 65 415 65 415 89 435.5 c 128,-1,7
 113 456 113 456 142 456 c 128,-1,0
 171 456 171 456 187 437 c 128,-1,1
160 108 m 128,-1,9
 177 87 177 87 177 51 c 128,-1,10
 177 15 177 15 162.5 -18.5 c 128,-1,11
 148 -52 148 -52 127.5 -73 c 128,-1,12
 107 -94 107 -94 84 -109.5 c 0,13,14
 41.7096774194 -138 41.7096774194 -138 25 -138 c 0,15,16
 21 -138 21 -138 15 -126.5 c 128,-1,17
 9 -115 9 -115 9 -107 c 1,18,19
 80 -74 80 -74 85 -6 c 1,20,-1
 42 56 l 1,21,22
 42 90 42 90 63.5 109.5 c 128,-1,23
 85 129 85 129 114 129 c 128,-1,8
 143 129 143 129 160 108 c 128,-1,9
EndSplineSet
EndChar

StartChar: ellipsis
Encoding: 8230 8230 67
Width: 636
Flags: HMW
HStem: -28 21G<79 117 291 329 503 541> 101 20G
VStem: 39 138<23.5 57.5> 251 138<23.5 57.5> 463 138<23.5 57.5>
CounterMasks: 1 38
LayerCount: 2
Fore
SplineSet
55 -9 m 128,-1,1
 39 10 39 10 39 39.5 c 128,-1,2
 39 69 39 69 66 91.5 c 128,-1,3
 93 114 93 114 142 121 c 1,4,5
 177 94 177 94 177 53.5 c 128,-1,6
 177 13 177 13 153 -7.5 c 128,-1,7
 129 -28 129 -28 100 -28 c 128,-1,0
 71 -28 71 -28 55 -9 c 128,-1,1
267 -9 m 128,-1,9
 251 10 251 10 251 39.5 c 128,-1,10
 251 69 251 69 278 91.5 c 128,-1,11
 305 114 305 114 354 121 c 1,12,13
 389 94 389 94 389 53.5 c 128,-1,14
 389 13 389 13 365 -7.5 c 128,-1,15
 341 -28 341 -28 312 -28 c 128,-1,8
 283 -28 283 -28 267 -9 c 128,-1,9
479 -9 m 128,-1,17
 463 10 463 10 463 39.5 c 128,-1,18
 463 69 463 69 490 91.5 c 128,-1,19
 517 114 517 114 566 121 c 1,20,21
 601 94 601 94 601 53.5 c 128,-1,22
 601 13 601 13 577 -7.5 c 128,-1,23
 553 -28 553 -28 524 -28 c 128,-1,16
 495 -28 495 -28 479 -9 c 128,-1,17
EndSplineSet
EndChar

StartChar: Q
Encoding: 81 81 68
Width: 581
Flags: HMW
HStem: -224 21G<409 409> 656 20G<448 448>
VStem: 30 96<214.5 347>
LayerCount: 2
Fore
SplineSet
63.3321799308 -206.058823529 m 0,0,1
 46.0588235294 -206.058823529 46.0588235294 -206.058823529 30 -190 c 1,2,3
 27 -190 27 -190 27 -181 c 1,4,5
 30 -156 30 -156 44 -147 c 1,6,7
 69 -138 69 -138 119 -124 c 1,8,9
 176 -81 176 -81 223 -28 c 1,10,11
 137 -9 137 -9 83.5 66.5 c 128,-1,12
 30 142 30 142 30 263 c 0,13,14
 30 402.760869565 30 402.760869565 118 518.5 c 0,15,16
 164 579 164 579 249 621.5 c 128,-1,17
 334 664 334 664 448 676 c 1,18,-1
 465 651 l 1,19,-1
 436 593 l 1,20,21
 486 550 486 550 518.5 470 c 128,-1,22
 551 390 551 390 551 315.5 c 128,-1,23
 551 241 551 241 537 185.5 c 128,-1,24
 523 130 523 130 494.5 82 c 128,-1,25
 466 34 466 34 416 3 c 128,-1,26
 366 -28 366 -28 300 -33 c 1,27,28
 270 -67 270 -67 228 -104 c 1,29,30
 258 -101 258 -101 313 -101 c 128,-1,31
 368 -101 368 -101 437 -120 c 1,32,-1
 451 -145 l 1,33,-1
 409 -224 l 1,34,35
 335 -178 335 -178 179 -178 c 0,36,37
 139 -178 139 -178 121 -179 c 1,38,39
 94 -195 94 -195 79.0882352941 -200.529411765 c 128,-1,40
 64.1764705882 -206.058823529 64.1764705882 -206.058823529 63.3321799308 -206.058823529 c 0,0,1
299 49 m 1,41,42
 390 52 390 52 438.5 117 c 128,-1,43
 487 182 487 182 487 269.5 c 128,-1,44
 487 357 487 357 458 444 c 128,-1,45
 429 531 429 531 377 583 c 1,46,47
 250 565 250 565 188 488.5 c 128,-1,48
 126 412 126 412 126 296.5 c 128,-1,49
 126 181 126 181 176.5 115 c 128,-1,50
 227 49 227 49 299 49 c 1,41,42
EndSplineSet
EndChar

StartChar: Y
Encoding: 89 89 69
Width: 441
Flags: HMW
HStem: -34 21G<253 261.5> 659 20G<479 486.5>
LayerCount: 2
Fore
SplineSet
142 677 m 1,0,-1
 168 661 l 1,1,2
 168 477 168 477 219 312 c 1,3,4
 236 350 236 350 312 474 c 128,-1,5
 388 598 388 598 442 665 c 0,6,7
 454 679 454 679 485 679 c 0,8,9
 491 679 491 679 491 674.5 c 128,-1,10
 491 670 491 670 446.5 597.5 c 128,-1,11
 402 525 402 525 346 415 c 128,-1,12
 290 305 290 305 268 218 c 1,13,14
 262 160 262 160 262 103.5 c 0,15,16
 262 15 262 15 265 -19.5 c 2,17,-1
 266 -31 l 2,18,19
 266 -34 266 -34 257.5 -34 c 128,-1,20
 249 -34 249 -34 233.5 -29.5 c 128,-1,21
 218 -25 218 -25 213 -19 c 1,22,23
 192 93 192 93 190 216 c 1,24,25
 144 314 144 314 104 435.5 c 128,-1,26
 64 557 64 557 55 636 c 1,27,-1
 142 677 l 1,0,-1
EndSplineSet
EndChar

StartChar: slash
Encoding: 47 47 70
Width: 460
Flags: HMW
HStem: -103 21G<31 39.5> 718 20G<428 428>
LayerCount: 2
Fore
SplineSet
48 -98 m 0,0,1
 46 -103 46 -103 36 -103 c 0,2,3
 14 -103 14 -103 0 -81 c 1,4,5
 201 401 201 401 345 716 c 1,6,-1
 428 738 l 1,7,-1
 460 712 l 1,8,9
 360.936474325 554.307040762 360.936474325 554.307040762 294.968237163 421.653520381 c 128,-1,10
 229 289 229 289 201 231 c 128,-1,11
 173 173 173 173 121 59.5 c 128,-1,12
 69 -54 69 -54 48 -98 c 0,0,1
EndSplineSet
EndChar

StartChar: one
Encoding: 49 49 71
Width: 500
Flags: HMW
HStem: -34 21G<295 303.5> 657 20G<291 291>
LayerCount: 2
Fore
SplineSet
308 -31 m 0,0,1
 308 -34 308 -34 300 -34 c 0,2,3
 274 -34 274 -34 262 -19 c 1,4,5
 231 190 231 190 231 351 c 0,6,7
 231 412 231 412 235 460 c 1,8,9
 162 400 162 400 90 369 c 1,10,11
 80 369 80 369 63 383.5 c 128,-1,12
 46 398 46 398 45 411 c 1,13,14
 157 477 157 477 252 600 c 1,15,16
 256 629 256 629 264 661 c 1,17,-1
 291 677 l 1,18,-1
 374 636 l 1,19,20
 304 478 304 478 304 92 c 0,21,22
 304 10 304 10 308 -31 c 0,0,1
EndSplineSet
EndChar

StartChar: eight
Encoding: 56 56 72
Width: 550
Flags: HMW
HStem: -38 21G<209 348> 651 20G<210 341>
VStem: 65 86 404 85
LayerCount: 2
Fore
SplineSet
367 315 m 1,0,1
 434 286 434 286 467 237.5 c 128,-1,2
 500 189 500 189 500 134 c 0,3,4
 500 61 500 61 439.5 11.5 c 128,-1,5
 379 -38 379 -38 278.5 -38 c 128,-1,6
 178 -38 178 -38 116 13.5 c 128,-1,7
 54 65 54 65 54 128 c 128,-1,8
 54 191 54 191 87.5 240 c 128,-1,9
 121 289 121 289 187 318 c 1,10,11
 65 372 65 372 65 496 c 0,12,13
 65 570 65 570 122.5 620.5 c 128,-1,14
 180 671 180 671 275 671 c 128,-1,15
 370 671 370 671 429.5 618.5 c 128,-1,16
 489 566 489 566 489 496 c 0,17,18
 489 367 489 367 367 315 c 1,0,1
186.5 230.5 m 128,-1,20
 151 186 151 186 151 134 c 128,-1,21
 151 82 151 82 189.5 49.5 c 128,-1,22
 228 17 228 17 279.5 17 c 128,-1,23
 331 17 331 17 367.5 47 c 128,-1,24
 404 77 404 77 404 129.5 c 128,-1,25
 404 182 404 182 373 224 c 128,-1,26
 342 266 342 266 279 290 c 1,27,19
 222 275 222 275 186.5 230.5 c 128,-1,20
364 402 m 128,-1,29
 397 446 397 446 397 498 c 128,-1,30
 397 550 397 550 359.5 583 c 128,-1,31
 322 616 322 616 273.5 616 c 128,-1,32
 225 616 225 616 190.5 586 c 128,-1,33
 156 556 156 556 156 501 c 0,34,35
 156 388 156 388 275 343 c 1,36,28
 331 358 331 358 364 402 c 128,-1,29
EndSplineSet
EndChar

StartChar: zero
Encoding: 48 48 73
Width: 500
Flags: HMW
HStem: -31 96<189.5 278 189.5 283.5> 579 98<223 311>
LayerCount: 2
Fore
SplineSet
416.5 592.5 m 128,-1,1
 469 508 469 508 469 346.5 c 128,-1,2
 469 185 469 185 394.5 77 c 128,-1,3
 320 -31 320 -31 214 -31 c 0,4,5
 135 -31 135 -31 83 54 c 128,-1,6
 31 139 31 139 31 300 c 128,-1,7
 31 461 31 461 105 569 c 128,-1,8
 179 677 179 677 284 677 c 0,9,0
 364 677 364 677 416.5 592.5 c 128,-1,1
92 304 m 128,-1,11
 92 186 92 186 130 125.5 c 128,-1,12
 168 65 168 65 226 65 c 0,13,14
 304 65 304 65 357 140.5 c 128,-1,15
 410 216 410 216 410 333.5 c 128,-1,16
 410 451 410 451 371.5 515 c 128,-1,17
 333 579 333 579 275 579 c 0,18,19
 197 579 197 579 144.5 500.5 c 128,-1,10
 92 422 92 422 92 304 c 128,-1,11
EndSplineSet
EndChar

StartChar: seven
Encoding: 55 55 74
Width: 500
Flags: HMW
HStem: -52 21G<163 171.5> 625 20G<177.5 242.5>
LayerCount: 2
Fore
SplineSet
360 570 m 1,0,-1
 315 571 l 1,1,2
 148 571 148 571 51 528 c 1,3,-1
 39 556 l 1,4,-1
 79 638 l 1,5,6
 132 645 132 645 198 645 c 0,7,8
 355 645 355 645 452 605 c 1,9,10
 465 594 465 594 465 562 c 2,11,-1
 465 558 l 1,12,13
 377 415 377 415 315 278.5 c 128,-1,14
 253 142 253 142 180 -47 c 0,15,16
 178 -52 178 -52 166 -52 c 128,-1,17
 154 -52 154 -52 140 -30 c 1,18,19
 180 103 180 103 202.5 172.5 c 0,20,21
 266.476648352 370.116758242 266.476648352 370.116758242 360 570 c 1,0,-1
EndSplineSet
EndChar

StartChar: four
Encoding: 52 52 75
Width: 500
Flags: HMW
HStem: -34 21G<351 359.5> 632 20G<292 298>
LayerCount: 2
Fore
SplineSet
250 633 m 1,0,1
 268 652 268 652 298 652 c 1,2,-1
 428 604 l 1,3,4
 372 467 372 467 362 220 c 1,5,6
 401 231 401 231 430 244 c 1,7,-1
 445 217 l 1,8,-1
 406 133 l 1,9,10
 393 130 393 130 360 126 c 1,11,-1
 360 92 l 2,12,13
 360 10 360 10 364 -31 c 0,14,15
 364 -34 364 -34 356 -34 c 0,16,17
 330 -34 330 -34 318 -19 c 1,18,19
 308 50 308 50 300 121 c 1,20,21
 250 119 250 119 224 119 c 0,22,23
 98 119 98 119 9 149 c 1,24,25
 3 154 3 154 -1.5 170 c 128,-1,26
 -6 186 -6 186 -6 195 c 1,27,28
 162 458 162 458 250 633 c 1,0,1
97 188 m 1,29,30
 203 188 203 188 292 204 c 1,31,32
 287 281 287 281 287 353 c 0,33,34
 287 425 287 425 298 572 c 1,35,-1
 288 572 l 1,36,37
 265 529 265 529 205 405 c 128,-1,38
 145 281 145 281 97 188 c 1,29,30
EndSplineSet
EndChar

StartChar: V
Encoding: 86 86 76
Width: 478
Flags: HMW
HStem: -28 21G<236.5 242> 657 20G<112 112 483 490.5>
VStem: 25 109<468.5 636>
LayerCount: 2
Fore
SplineSet
242 -28 m 1,0,1
 214 -28 214 -28 198 -9 c 1,2,3
 140 109 140 109 89 292.5 c 128,-1,4
 38 476 38 476 25 636 c 1,5,-1
 112 677 l 1,6,-1
 138 661 l 1,7,8
 134 616 134 616 134 560 c 0,9,10
 134 326 134 326 231 40 c 1,11,12
 253 175 253 175 315 362 c 128,-1,13
 377 549 377 549 440 658 c 1,14,15
 461 677 461 677 489 677 c 0,16,17
 493 677 493 677 493 672 c 128,-1,18
 493 667 493 667 481 637 c 128,-1,19
 469 607 469 607 449 552 c 128,-1,20
 429 497 429 497 406.5 425.5 c 0,21,22
 353.360094054 256.633187773 353.360094054 256.633187773 321 20 c 1,23,-1
 242 -28 l 1,0,1
EndSplineSet
EndChar

StartChar: W
Encoding: 87 87 77
Width: 804
Flags: HMW
HStem: -28 21G<236.5 242 577.5 583> 657 20G<112 112 453 453 799 806.5>
VStem: 25 109<468.5 636>
LayerCount: 2
Fore
SplineSet
242 -28 m 1,0,1
 214 -28 214 -28 198 -9 c 1,2,3
 140 109 140 109 89 292.5 c 128,-1,4
 38 476 38 476 25 636 c 1,5,-1
 112 677 l 1,6,-1
 138 661 l 1,7,8
 134 616 134 616 134 560 c 0,9,10
 134 327 134 327 231 41 c 1,11,12
 246 148 246 148 286.5 295.5 c 128,-1,13
 327 443 327 443 374 559 c 1,14,15
 370 584 370 584 366 636 c 1,16,-1
 453 677 l 1,17,-1
 479 661 l 1,18,19
 475 616 475 616 475 560 c 0,20,21
 475 327 475 327 572 41 c 1,22,23
 591 176 591 176 645.5 362.5 c 128,-1,24
 700 549 700 549 756 658 c 1,25,26
 777 677 777 677 805 677 c 0,27,28
 809 677 809 677 809 673 c 0,29,30
 809 669 809 669 782.5 594 c 128,-1,31
 756 519 756 519 719 362 c 128,-1,32
 682 205 682 205 662 20 c 1,33,-1
 583 -28 l 1,34,35
 555 -28 555 -28 539 -9 c 1,36,37
 450 173 450 173 396 435 c 1,38,39
 345 242 345 242 321 20 c 1,40,-1
 242 -28 l 1,0,1
EndSplineSet
EndChar

StartChar: M
Encoding: 77 77 78
Width: 761
Flags: HMW
HStem: -35 21G<415 415> -34 21G<667 675.5> -28 21G<82 92> -24 21G<75 76> 657 20G<181 181 626 626>
VStem: 106 97 581 84<211.5 448>
LayerCount: 2
Fore
SplineSet
680 -31 m 0,0,1
 680 -34 680 -34 672 -34 c 0,2,3
 646 -34 646 -34 633 -19 c 1,4,5
 581 244 581 244 581 432 c 0,6,7
 581 481 581 481 584 529 c 1,8,9
 469 262 469 262 425 26 c 1,10,-1
 437 -19 l 1,11,-1
 415 -35 l 1,12,-1
 320 6 l 1,13,14
 294 245 294 245 203 535 c 1,15,16
 194 390 194 390 175 228.5 c 128,-1,17
 156 67 156 67 136 -9 c 1,18,19
 128 -17 128 -17 112 -22.5 c 128,-1,20
 96 -28 96 -28 86 -28 c 128,-1,21
 76 -28 76 -28 76 -24 c 2,22,-1
 83 9 l 2,23,24
 90 42 90 42 98 123 c 128,-1,25
 106 204 106 204 106 291 c 0,26,27
 106 458 106 458 85 591.5 c 2,28,-1
 78 636 l 1,29,-1
 181 677 l 1,30,-1
 207 661 l 1,31,32
 299 453 299 453 381 182 c 1,33,34
 449 365 449 365 599 658 c 0,35,36
 600 660 600 660 600 661 c 2,37,-1
 626 677 l 1,38,-1
 711 636 l 1,39,40
 665 518 665 518 665 273 c 0,41,42
 665 91 665 91 680 -31 c 0,0,1
EndSplineSet
EndChar

StartChar: J
Encoding: 74 74 79
Width: 397
Flags: HMW
HStem: 641 20G<86 86>
VStem: -59 97<-74 -74> 195 98
LayerCount: 2
Fore
SplineSet
-59 -74 m 1,0,-1
 15 -38 l 1,1,-1
 38 -52 l 1,2,3
 38 -112.612269124 38 -112.612269124 69.5708333033 -132.275820951 c 0,4,5
 79.0416588091 -138.174622113 79.0416588091 -138.174622113 88.460641404 -138.174622113 c 0,6,7
 111.691435769 -138.174622113 111.691435769 -138.174622113 134.606868025 -102.292023303 c 0,8,9
 195 -7.72420100353 195 -7.72420100353 195 257 c 0,10,11
 195 406 195 406 183 542 c 1,12,13
 171 540 171 540 139.5 540 c 0,14,15
 108 540 108 540 71 549 c 1,16,-1
 60 575 l 1,17,-1
 86 661 l 1,18,19
 130 627 130 627 207.5 627 c 0,20,21
 285 627 285 627 368 654 c 1,22,23
 372 654 372 654 372 637 c 0,24,25
 372 620 372 620 357 607 c 1,26,27
 317 583 317 583 293 573 c 1,28,29
 274 124 274 124 234 -19 c 0,30,31
 201.185078115 -138.086410065 201.185078115 -138.086410065 122.005067195 -190.859914008 c 0,32,33
 83.3715526852 -216.609164439 83.3715526852 -216.609164439 53.684757953 -216.609164439 c 0,34,35
 23.9979632209 -216.609164439 23.9979632209 -216.609164439 1.22713606388 -202.668656255 c 0,36,37
 -52.0127481233 -170.074713305 -52.0127481233 -170.074713305 -59 -74 c 1,0,-1
EndSplineSet
EndChar

StartChar: Z
Encoding: 90 90 80
Width: 480
Flags: HMW
HStem: -30 21G<459 459.5> -8 21G 648 20G<434 434>
LayerCount: 2
Fore
SplineSet
434 668 m 1,0,-1
 460 650 l 1,1,2
 417 396 417 396 131 78 c 1,3,4
 370 55 370 55 449 29 c 1,5,6
 461 14 461 14 461 -8 c 0,7,8
 461 -30 461 -30 459 -30 c 0,9,10
 358 -8 358 -8 241 -8 c 0,11,12
 124 -8 124 -8 19 -24 c 1,13,-1
 0 6 l 1,14,-1
 7 13 l 1,15,16
 279 327 279 327 337 561 c 1,17,18
 254.959183673 542.632653061 254.959183673 542.632653061 188.87755102 542.632653061 c 0,19,20
 122.795918367 542.632653061 122.795918367 542.632653061 72 550 c 1,21,-1
 31 633 l 1,22,-1
 46 660 l 1,23,24
 122 626 122 626 282 626 c 0,25,26
 321 626 321 626 357 629 c 1,27,-1
 434 668 l 1,0,-1
EndSplineSet
EndChar

StartChar: cedilla
Encoding: 184 184 81
Width: 408
Flags: HMW
HStem: -225 168<143 223.5> -20 20G<165 201 201 201>
LayerCount: 2
Fore
SplineSet
165 0 m 1,0,-1
 201 0 l 1,1,-1
 168 -63 l 1,2,3
 184.5 -57 184.5 -57 210.25 -57 c 0,4,5
 236 -57 236 -57 259 -74.5 c 128,-1,6
 282 -92 282 -92 282 -127.5 c 0,7,8
 282 -163 282 -163 248 -194 c 128,-1,9
 214 -225 214 -225 165 -225 c 0,10,11
 116 -225 116 -225 82 -206 c 1,12,-1
 77 -191 l 1,13,-1
 102 -143 l 1,14,15
 124 -183 124 -183 168 -183 c 0,16,17
 190 -183 190 -183 204 -168.5 c 128,-1,18
 218 -154 218 -154 218 -137 c 0,19,20
 218 -120 218 -120 207 -109.5 c 128,-1,21
 196 -99 196 -99 176 -99 c 128,-1,22
 156 -99 156 -99 138 -108 c 1,23,-1
 124 -89 l 1,24,-1
 165 0 l 1,0,-1
EndSplineSet
EndChar

StartChar: ccedilla
Encoding: 231 231 82
Width: 408
Flags: HMW
HStem: -225 168<130 210.5> -183 84<156.5 170.5> -22 99<176 231.5> 478 20G<356 356>
VStem: 41 86<156 208> 41 228<-147.5 208>
LayerCount: 2
Fore
SplineSet
379 217 m 1,0,1
 355 118 355 118 297 49.5 c 128,-1,2
 239 -19 239 -19 176 -22 c 1,3,-1
 155 -63 l 1,4,5
 171.5 -57 171.5 -57 197.25 -57 c 0,6,7
 223 -57 223 -57 246 -74.5 c 128,-1,8
 269 -92 269 -92 269 -127.5 c 0,9,10
 269 -163 269 -163 235 -194 c 128,-1,11
 201 -225 201 -225 152 -225 c 0,12,13
 103 -225 103 -225 69 -206 c 1,14,-1
 64 -191 l 1,15,-1
 89 -143 l 1,16,17
 111 -183 111 -183 155 -183 c 0,18,19
 177 -183 177 -183 191 -168.5 c 128,-1,20
 205 -154 205 -154 205 -137 c 0,21,22
 205 -120 205 -120 194.5 -109.5 c 128,-1,23
 184 -99 184 -99 163.5 -99 c 0,24,25
 143 -99 143 -99 125 -108 c 1,26,-1
 111 -89 l 1,27,-1
 143 -19 l 1,28,29
 94 -9 94 -9 67.5 34.5 c 128,-1,30
 41 78 41 78 41 131.5 c 0,31,32
 41 185 41 185 49.5 224 c 128,-1,33
 58 263 58 263 80 306 c 128,-1,34
 102 349 102 349 136 384 c 128,-1,35
 170 419 170 419 226.5 449.5 c 128,-1,36
 283 480 283 480 356 498 c 1,37,-1
 378 479 l 1,38,-1
 346 390 l 1,39,40
 313 403 313 403 282 403 c 0,41,42
 211 403 211 403 169 340 c 128,-1,43
 127 277 127 277 127 195 c 0,44,45
 127 139 127 139 150 108 c 128,-1,46
 173 77 173 77 206 77 c 0,47,48
 281 77 281 77 341 225 c 1,49,50
 342 231 342 231 350.5 231 c 0,51,52
 359 231 359 231 379 217 c 1,0,1
EndSplineSet
EndChar

StartChar: Ccedilla
Encoding: 199 199 83
Width: 488
Flags: HMW
HStem: -225 168<169 249.5> -183 84<195.5 209.5> -32 87<229 285> 657 20G<446 446>
VStem: 30 89<220 334>
LayerCount: 2
Fore
SplineSet
463 651 m 1,0,-1
 430 565 l 1,1,2
 402 569 402 569 371 569 c 0,3,4
 301 569 301 569 249 544.5 c 128,-1,5
 197 520 197 520 170.5 479.5 c 0,6,7
 119 400.79245283 119 400.79245283 119 307 c 0,8,9
 119 184 119 184 157 119.5 c 128,-1,10
 195 55 195 55 248 55 c 0,11,12
 316 55 316 55 362 109 c 128,-1,13
 408 163 408 163 440 275 c 0,14,15
 442 283 442 283 447 283 c 0,16,17
 461 283 461 283 478 269 c 1,18,19
 458 132 458 132 386.5 50 c 128,-1,20
 315 -32 315 -32 233 -32 c 0,21,22
 225 -32 225 -32 211 -30 c 1,23,-1
 194 -63 l 1,24,25
 210.5 -57 210.5 -57 236.25 -57 c 128,-1,26
 262 -57 262 -57 285 -74.5 c 128,-1,27
 308 -92 308 -92 308 -127.5 c 128,-1,28
 308 -163 308 -163 274 -194 c 128,-1,29
 240 -225 240 -225 191 -225 c 128,-1,30
 142 -225 142 -225 108 -206 c 1,31,-1
 103 -191 l 1,32,-1
 128 -143 l 1,33,34
 150 -183 150 -183 194 -183 c 0,35,36
 216 -183 216 -183 230 -168.5 c 128,-1,37
 244 -154 244 -154 244 -137 c 128,-1,38
 244 -120 244 -120 233 -109.5 c 128,-1,39
 222 -99 222 -99 202 -99 c 128,-1,40
 182 -99 182 -99 164 -108 c 1,41,-1
 150 -89 l 1,42,-1
 179 -25 l 1,43,44
 108 -4 108 -4 69 69.5 c 128,-1,45
 30 143 30 143 30 252 c 0,46,47
 30 361.967741935 30 361.967741935 87 458.5 c 0,48,49
 118 511 118 511 164 554 c 128,-1,50
 210 597 210 597 283 630 c 128,-1,51
 356 663 356 663 446 677 c 1,52,-1
 463 651 l 1,0,-1
EndSplineSet
EndChar

StartChar: oslash
Encoding: 248 248 84
Width: 477
Flags: HMW
HStem: -208 21G<80 88.5> -33 91<218 229 229 273 218 289.5> 613 20G<477 477>
VStem: 42 91<178.5 238>
LayerCount: 2
Fore
SplineSet
97 -203 m 2,0,1
 94 -208 94 -208 85 -208 c 0,2,3
 63 -208 63 -208 49 -186 c 1,4,-1
 124 -5 l 1,5,6
 42 50 42 50 42 181 c 0,7,8
 42 274.692307692 42 274.692307692 104.5 354.5 c 0,9,10
 137 396 137 396 195.5 428 c 128,-1,11
 254 460 254 460 332 475 c 1,12,-1
 394 611 l 1,13,-1
 477 633 l 1,14,-1
 509 607 l 1,15,16
 462 533 462 533 420 457 c 1,17,-1
 419 456 l 1,18,-1
 382 389 l 1,19,20
 428 327 428 327 428 231 c 0,21,22
 428 85.8163265306 428 85.8163265306 335 8 c 0,23,24
 286 -33 286 -33 218 -33 c 0,25,26
 200 -33 200 -33 178 -28 c 1,27,-1
 97 -203 l 2,0,1
229 58 m 2,28,29
 290 58 290 58 330.5 110 c 128,-1,30
 371 162 371 162 371 226 c 128,-1,31
 371 290 371 290 354 336 c 1,32,33
 300 232 300 232 218 58 c 1,34,-1
 229 58 l 2,28,29
180.5 330 m 128,-1,36
 133 276 133 276 133 202.5 c 128,-1,37
 133 129 133 129 164 89 c 1,38,39
 230 243.5 230 243.5 299 401 c 1,40,35
 228 384 228 384 180.5 330 c 128,-1,36
EndSplineSet
EndChar

StartChar: Oslash
Encoding: 216 216 85
Width: 581
Flags: HMW
HStem: -103 21G<121 129.5> -34 83<284.5 299 284.5 375.5> 718 20G<518 518>
VStem: 30 96<254.5 344>
LayerCount: 2
Fore
SplineSet
138 -98 m 2,0,1
 136 -103 136 -103 126 -103 c 0,2,3
 104 -103 104 -103 90 -81 c 1,4,-1
 130 15 l 1,5,6
 30 97 30 97 30 263 c 0,7,8
 30 396.214285714 30 396.214285714 111 510 c 0,9,10
 153 569 153 569 231 612 c 128,-1,11
 309 655 309 655 414 671 c 1,12,-1
 435 716 l 1,13,-1
 518 738 l 1,14,-1
 550 712 l 1,15,16
 503.5 638.5 503.5 638.5 463 565 c 1,17,18
 502 518 502 518 526.5 447.5 c 128,-1,19
 551 377 551 377 551 307.5 c 128,-1,20
 551 238 551 238 535.5 180.5 c 128,-1,21
 520 123 520 123 489 73.5 c 128,-1,22
 458 24 458 24 402.5 -5 c 128,-1,23
 347 -34 347 -34 284.5 -34 c 128,-1,24
 222 -34 222 -34 177 -13 c 1,25,-1
 138 -98 l 2,0,1
299 49 m 1,26,27
 390 52 390 52 438.5 117 c 128,-1,28
 487 182 487 182 487 290.5 c 128,-1,29
 487 399 487 399 430 507 c 1,30,31
 349 356 349 356 218 75 c 1,32,33
 255 49 255 49 299 49 c 1,26,27
187 488 m 128,-1,35
 126 412 126 412 126 298.5 c 128,-1,36
 126 185 126 185 173 119 c 1,37,38
 278 366 278 366 374 582 c 1,39,34
 248 564 248 564 187 488 c 128,-1,35
EndSplineSet
EndChar

StartChar: ordfeminine
Encoding: 170 170 86
Width: 302
Flags: HMW
HStem: 423 21G<231 254.5> 723 20G<246 246>
VStem: 18 228<479 616.5>
LayerCount: 2
Fore
SplineSet
194 720 m 2,0,-1
 246 743 l 1,1,-1
 268 729 l 1,2,3
 246 665 246 665 246 596 c 0,4,5
 246 565 246 565 251.5 509 c 128,-1,6
 257 453 257 453 262 434 c 1,7,8
 262 423 262 423 249.5 423 c 128,-1,9
 237 423 237 423 227 433 c 128,-1,10
 217 443 217 443 210.5 464.5 c 0,11,12
 202.555555556 490.777777778 202.555555556 490.777777778 195 538 c 1,13,14
 170 490 170 490 136.5 458.5 c 128,-1,15
 103 427 103 427 76 427 c 0,16,17
 18 427 18 427 18 501 c 128,-1,18
 18 575 18 575 70 631.5 c 128,-1,19
 122 688 122 688 194 720 c 2,0,-1
184 672 m 1,20,21
 139 650 139 650 111 610 c 128,-1,22
 83 570 83 570 83 537 c 128,-1,23
 83 504 83 504 104 504 c 128,-1,24
 125 504 125 504 150.5 532 c 128,-1,25
 176 560 176 560 187 598 c 1,26,27
 184 621 184 621 184 672 c 1,20,21
EndSplineSet
EndChar

StartChar: ordmasculine
Encoding: 186 186 87
Width: 306
Flags: HMW
HStem: 421 21G<109 183.5> 717 20G<255 255>
VStem: 28 242<544 591.5>
LayerCount: 2
Fore
SplineSet
266 711 m 1,0,-1
 238 681 l 1,1,2
 270 642 270 642 270 580.5 c 0,3,4
 270 519 270 519 235.5 470 c 128,-1,5
 201 421 201 421 139 421 c 0,6,7
 92 421 92 421 60 455.5 c 128,-1,8
 28 490 28 490 28 555 c 0,9,10
 28 620 28 620 82.5 673.5 c 128,-1,11
 137 727 137 727 255 737 c 1,12,-1
 266 711 l 1,0,-1
194 675 m 1,13,14
 146 667 146 667 120 631 c 128,-1,15
 94 595 94 595 94 557 c 0,16,17
 94 519 94 519 109.5 496.5 c 128,-1,18
 125 474 125 474 152.5 474 c 0,19,20
 180 474 180 474 200.5 501.5 c 128,-1,21
 221 529 221 529 221 584 c 0,22,23
 221 639 221 639 194 675 c 1,13,14
EndSplineSet
EndChar

StartChar: lslash
Encoding: 322 322 88
Width: 242
Flags: HMW
HStem: -31 21G<64.5 74> 692 20G<93 93>
LayerCount: 2
Fore
SplineSet
179 391 m 1,0,1
 217.857142857 413.857142857 217.857142857 413.857142857 253 449 c 1,2,-1
 271 439 l 1,3,-1
 271 366 l 1,4,5
 223 338 223 338 173 317 c 1,6,7
 154 134 154 134 114 -14 c 1,8,9
 108 -21 108 -21 93 -26 c 128,-1,10
 78 -31 78 -31 69 -31 c 128,-1,11
 60 -31 60 -31 60 -26 c 1,12,13
 97 132 97 132 105 295 c 1,14,15
 79 288 79 288 11 274 c 1,16,17
 3 277 3 277 -3.5 288 c 128,-1,18
 -10 299 -10 299 -10 310 c 1,19,20
 61 332 61 332 107 353 c 1,21,-1
 107 379 l 2,22,23
 107 564 107 564 68 696 c 1,24,-1
 93 712 l 1,25,-1
 173 674 l 1,26,27
 182.846153846 603.230769231 182.846153846 603.230769231 182.846153846 529.423076923 c 128,-1,28
 182.846153846 455.615384615 182.846153846 455.615384615 179 391 c 1,0,1
EndSplineSet
EndChar

StartChar: Lslash
Encoding: 321 321 89
Width: 422
Flags: HMW
HStem: -28 21G<84.5 93.5> 657 20G<108 108>
LayerCount: 2
Fore
SplineSet
135 -5 m 1,0,-1
 134 -12 l 1,1,2
 128 -18 128 -18 112.5 -23 c 128,-1,3
 97 -28 97 -28 88.5 -28 c 128,-1,4
 80 -28 80 -28 80 -24 c 0,5,6
 101 103 101 103 103 235 c 1,7,-1
 103 292 l 1,8,9
 83 286 83 286 21 274 c 1,10,11
 13 277 13 277 6.5 288 c 128,-1,12
 0 299 0 299 0 310 c 1,13,14
 64 330 64 330 103 347 c 1,15,16
 101 520 101 520 82 659 c 1,17,-1
 108 677 l 1,18,-1
 197 631 l 1,19,20
 192 511 192 511 182 386 c 1,21,22
 215.25 407 215.25 407 236.625 426 c 128,-1,23
 258 445 258 445 263 449 c 1,24,-1
 281 439 l 1,25,-1
 281 366 l 1,26,27
 224 334 224 334 176 315 c 1,28,29
 160 137 160 137 145 47 c 1,30,31
 158.770491803 46.5901639344 158.770491803 46.5901639344 172.131147541 46.5901639344 c 0,32,33
 321.770491803 46.5901639344 321.770491803 46.5901639344 420 98 c 1,34,-1
 437 72 l 1,35,-1
 404 -14 l 1,36,37
 351.257142857 -18.8285714286 351.257142857 -18.8285714286 283.042857143 -18.8285714286 c 128,-1,38
 214.828571429 -18.8285714286 214.828571429 -18.8285714286 135 -5 c 1,0,-1
EndSplineSet
EndChar

StartChar: copyright
Encoding: 169 169 90
Width: 742
Flags: HMW
HStem: 66 21G<250 430.5> 724 20G<310.5 490.5>
VStem: 50 230<349.5 435.5 349.5 477.5>
LayerCount: 2
Fore
SplineSet
498 619 m 1,0,-1
 473 555 l 1,1,2
 450 559 450 559 419 559 c 128,-1,3
 388 559 388 559 357.5 544.5 c 128,-1,4
 327 530 327 530 311 505.5 c 0,5,6
 280 458.03125 280 458.03125 280 393.015625 c 128,-1,7
 280 328 280 328 301 289 c 128,-1,8
 322 250 322 250 356.5 250 c 0,9,10
 425.838235294 250 425.838235294 250 463 383 c 0,11,12
 467 394 467 394 477.5 394 c 128,-1,13
 488 394 488 394 508 380 c 1,14,15
 494 288 494 288 446 234 c 128,-1,16
 398 180 398 180 338 180 c 128,-1,17
 278 180 278 180 241 231.5 c 128,-1,18
 204 283 204 283 204 367 c 0,19,20
 204 454.580645161 204 454.580645161 264 532 c 0,21,22
 295 572 295 572 351 602 c 128,-1,23
 407 632 407 632 482 643 c 1,24,-1
 498 619 l 1,0,-1
415 744 m 0,25,26
 536 744 536 744 614 666.5 c 128,-1,27
 692 589 692 589 692 434 c 128,-1,28
 692 279 692 279 587.5 172.5 c 128,-1,29
 483 66 483 66 326 66 c 0,30,31
 205 66 205 66 127.5 143 c 128,-1,32
 50 220 50 220 50 375.5 c 128,-1,33
 50 531 50 531 154 637.5 c 128,-1,34
 258 744 258 744 415 744 c 0,25,26
415 699 m 0,35,36
 284 699 284 699 197 605.5 c 128,-1,37
 110 512 110 512 110 377.5 c 128,-1,38
 110 243 110 243 170.5 177 c 128,-1,39
 231 111 231 111 326 111 c 0,40,41
 457 111 457 111 544.5 204.5 c 128,-1,42
 632 298 632 298 632 432.5 c 128,-1,43
 632 567 632 567 570.5 633 c 128,-1,44
 509 699 509 699 415 699 c 0,35,36
EndSplineSet
EndChar

StartChar: registered
Encoding: 174 174 91
Width: 742
Flags: HMW
HStem: 66 21G<250 430.5> 724 20G<310.5 490.5>
VStem: 268 232<330.5 527>
LayerCount: 2
Fore
SplineSet
268 362 m 0,0,1
 268 529 268 529 233 596 c 1,2,-1
 265 644 l 1,3,4
 304 621 304 621 372 594 c 128,-1,5
 440 567 440 567 470 545 c 128,-1,6
 500 523 500 523 500 488 c 128,-1,7
 500 453 500 453 482.5 433 c 128,-1,8
 465 413 465 413 428 394 c 1,9,10
 433 383 433 383 444.5 354.5 c 128,-1,11
 456 326 456 326 463 310.5 c 128,-1,12
 470 295 470 295 480 272.5 c 0,13,14
 499.931034483 227.655172414 499.931034483 227.655172414 517 203 c 1,15,16
 507 187 507 187 474 187 c 1,17,18
 411 275 411 275 360 375 c 1,19,-1
 327 372 l 1,20,21
 324 311 324 311 309 193 c 1,22,23
 295 179 295 179 277 179 c 128,-1,24
 259 179 259 179 259 189 c 1,25,26
 268 261 268 261 268 362 c 0,0,1
415 744 m 0,27,28
 536 744 536 744 614 666.5 c 128,-1,29
 692 589 692 589 692 434 c 128,-1,30
 692 279 692 279 587.5 172.5 c 128,-1,31
 483 66 483 66 326 66 c 0,32,33
 205 66 205 66 127.5 143 c 128,-1,34
 50 220 50 220 50 375.5 c 128,-1,35
 50 531 50 531 154 637.5 c 128,-1,36
 258 744 258 744 415 744 c 0,27,28
415 699 m 0,37,38
 284 699 284 699 197 605.5 c 128,-1,39
 110 512 110 512 110 377.5 c 128,-1,40
 110 243 110 243 170.5 177 c 128,-1,41
 231 111 231 111 326 111 c 0,42,43
 457 111 457 111 544.5 204.5 c 128,-1,44
 632 298 632 298 632 432.5 c 128,-1,45
 632 567 632 567 570.5 633 c 128,-1,46
 509 699 509 699 415 699 c 0,37,38
322 559 m 1,47,48
 329 508 329 508 329 420 c 1,49,50
 422 434 422 434 422 488 c 0,51,52
 422 529 422 529 322 559 c 1,47,48
EndSplineSet
EndChar

StartChar: trademark
Encoding: 8482 8482 92
Width: 832
Flags: HMW
HStem: 177 21G<576 576> 623 20G<429 429 707 707>
LayerCount: 2
Fore
SplineSet
752 188 m 1,0,1
 752 179 752 179 734 179 c 128,-1,2
 716 179 716 179 702 193 c 1,3,4
 670 358 670 358 670 490 c 1,5,6
 616 356 616 356 591 223 c 1,7,-1
 600 194 l 1,8,-1
 576 177 l 1,9,-1
 506 208 l 1,10,11
 489 359 489 359 448 491 c 1,12,13
 434 300 434 300 409 199 c 1,14,15
 394 183 394 183 365 183 c 0,16,17
 352 183 352 183 352 192 c 0,18,19
 352 193 352 193 357.5 225.5 c 0,20,21
 371 305.272727273 371 305.272727273 371 375.136363636 c 0,22,23
 371 494 371 494 357.5 582.5 c 2,24,-1
 353 612 l 1,25,-1
 429 643 l 1,26,-1
 452 629 l 1,27,28
 502 518 502 518 555 352 c 1,29,30
 593 449 593 449 683 629 c 1,31,-1
 707 643 l 1,32,-1
 772 611 l 1,33,34
 742 534 742 534 742 403 c 128,-1,35
 742 272 742 272 752 188 c 1,0,1
183 194 m 1,36,37
 169 180 169 180 151 180 c 128,-1,38
 133 180 133 180 133 189 c 1,39,40
 146 274 146 274 146 367 c 128,-1,41
 146 460 146 460 139 540 c 1,42,43
 80 540 80 540 41 547 c 1,44,-1
 28 569 l 1,45,-1
 58 636 l 1,46,47
 104 611 104 611 175.5 611 c 128,-1,48
 247 611 247 611 318 627 c 1,49,50
 326 627 326 627 326 610.5 c 128,-1,51
 326 594 326 594 316 586 c 1,52,53
 270 564 270 564 221 552 c 1,54,55
 211 302 211 302 183 194 c 1,36,37
EndSplineSet
EndChar

StartChar: circumflex
Encoding: 710 710 93
Width: 375
Flags: HMW
HStem: 522 21G 687 20G<199 223 223 223>
LayerCount: 2
Fore
SplineSet
223 707 m 1,0,1
 260 619 260 619 325 554 c 1,2,-1
 315 538 l 1,3,-1
 252 528 l 1,4,5
 223 558 223 558 204 600 c 1,6,7
 149 548 149 548 83 522 c 1,8,9
 75 523 75 523 62.5 536.5 c 128,-1,10
 50 550 50 550 50 560 c 1,11,12
 146 624 146 624 199 707 c 1,13,-1
 223 707 l 1,0,1
EndSplineSet
EndChar

StartChar: ecircumflex
Encoding: 234 234 95
Width: 426
Flags: HMW
HStem: -22 99<186.5 215> 687 20G<278 302 302 302>
VStem: 41 86 127 172
LayerCount: 2
Fore
SplineSet
381 368 m 1,0,1
 370 322 370 322 337 285 c 128,-1,2
 304 248 304 248 262 226 c 0,3,4
 185.21875 185.78125 185.21875 185.78125 127 175 c 1,5,6
 131 125 131 125 153 101 c 128,-1,7
 175 77 175 77 206 77 c 0,8,9
 294 77 294 77 365 225 c 1,10,11
 366 231 366 231 375 231 c 128,-1,12
 384 231 384 231 402 217 c 1,13,14
 359 113 359 113 296.5 45.5 c 128,-1,15
 234 -22 234 -22 172 -22 c 128,-1,16
 110 -22 110 -22 75.5 23 c 128,-1,17
 41 68 41 68 41 144 c 0,18,19
 41 248.950819672 41 248.950819672 98.5 338.5 c 0,20,21
 129 386 129 386 185.5 422.5 c 128,-1,22
 242 459 242 459 320 477 c 1,23,24
 381 456 381 456 381 368 c 1,0,1
264 398 m 0,25,26
 222 398 222 398 177 349.5 c 128,-1,27
 132 301 132 301 127 215 c 1,28,29
 210 237 210 237 254.5 279.5 c 128,-1,30
 299 322 299 322 299 363 c 0,31,32
 299 378 299 378 290 388 c 128,-1,33
 281 398 281 398 264 398 c 0,25,26
302 707 m 1,34,35
 339 619 339 619 404 554 c 1,36,-1
 394 538 l 1,37,-1
 331 528 l 1,38,39
 302 558 302 558 283 600 c 1,40,41
 228 548 228 548 162 522 c 1,42,43
 154 523 154 523 141.5 536.5 c 128,-1,44
 129 550 129 550 129 560 c 1,45,46
 225 624 225 624 278 707 c 1,47,-1
 302 707 l 1,34,35
EndSplineSet
EndChar

StartChar: ocircumflex
Encoding: 244 244 97
Width: 477
Flags: HMW
HStem: -33 91<198.5 273 198.5 289.5> 687 20G<304 328 328 328>
VStem: 42 91<160.5 244.5>
LayerCount: 2
Fore
SplineSet
420 457 m 1,0,-1
 372 402 l 1,1,2
 428 334 428 334 428 231 c 0,3,4
 428 85.8163265306 428 85.8163265306 335 8 c 0,5,6
 286 -33 286 -33 214.5 -33 c 128,-1,7
 143 -33 143 -33 92.5 24 c 128,-1,8
 42 81 42 81 42 181 c 0,9,10
 42 286.24691358 42 286.24691358 120.5 372.5 c 0,11,12
 161 417 161 417 235.5 447 c 128,-1,13
 310 477 310 477 409 485 c 1,14,-1
 420 457 l 1,0,-1
229 58 m 0,15,16
 290 58 290 58 330.5 110 c 128,-1,17
 371 162 371 162 371 218 c 0,18,19
 371 339 371 339 316 405 c 1,20,21
 239 392 239 392 186 336 c 128,-1,22
 133 280 133 280 133 209 c 128,-1,23
 133 138 133 138 158.5 98 c 128,-1,24
 184 58 184 58 229 58 c 0,15,16
328 707 m 1,25,26
 365 619 365 619 430 554 c 1,27,-1
 420 538 l 1,28,-1
 357 528 l 1,29,30
 328 558 328 558 309 600 c 1,31,32
 254 548 254 548 188 522 c 1,33,34
 180 523 180 523 167.5 536.5 c 128,-1,35
 155 550 155 550 155 560 c 1,36,37
 251 624 251 624 304 707 c 1,38,-1
 328 707 l 1,25,26
EndSplineSet
EndChar

StartChar: ring
Encoding: 730 730 99
Width: 293
Flags: HMW
HStem: 521 21G<111 164.5> 685 20G<127.5 181.5>
VStem: 50 193<593.5 632.5>
LayerCount: 2
Fore
SplineSet
81 676 m 128,-1,1
 112 705 112 705 153.5 705 c 128,-1,2
 195 705 195 705 219 684.5 c 128,-1,3
 243 664 243 664 243 621.5 c 128,-1,4
 243 579 243 579 211.5 550 c 128,-1,5
 180 521 180 521 138.5 521 c 128,-1,6
 97 521 97 521 73.5 541.5 c 128,-1,7
 50 562 50 562 50 604.5 c 128,-1,0
 50 647 50 647 81 676 c 128,-1,1
152 654 m 0,8,9
 134 654 134 654 122 641 c 128,-1,10
 110 628 110 628 110 608 c 0,11,12
 110 572 110 572 140 572 c 0,13,14
 158 572 158 572 170.5 585 c 128,-1,15
 183 598 183 598 183 618 c 0,16,17
 183 654 183 654 152 654 c 0,8,9
EndSplineSet
EndChar

StartChar: Aring
Encoding: 197 197 101
Width: 502
Flags: HMW
HStem: -34 21G<-16 -7.5 453 461.5> 657 20G<337 342.5> 862 20G<318.5 372.5>
VStem: 241 193<770.5 809.5>
LayerCount: 2
Fore
SplineSet
381 658 m 1,0,1
 375.755395683 604.776978417 375.755395683 604.776978417 375.755395683 546.233890585 c 0,2,3
 375.755395683 303.388489209 375.755395683 303.388489209 466 -31 c 1,4,5
 462.802884615 -33.4807692308 462.802884615 -33.4807692308 458 -34 c 0,6,7
 432 -34 432 -34 419 -19 c 1,8,9
 385 53 385 53 345 193 c 1,10,11
 277 182 277 182 218.5 182 c 128,-1,12
 160 182 160 182 137 184 c 1,13,14
 90 86 90 86 32 -19 c 1,15,16
 14 -34 14 -34 -5.01432291667 -33.7604166667 c 128,-1,17
 -24.0286458333 -33.5208333333 -24.0286458333 -33.5208333333 -24 -31 c 1,18,19
 14 44 14 44 76 192 c 1,20,21
 64 194 64 194 38 200 c 1,22,23
 23 216 23 216 23 244 c 0,24,25
 23 251 23 251 26 251 c 128,-1,26
 29 251 29 251 37.5 248.5 c 0,27,28
 59.3333333333 242.078431373 59.3333333333 242.078431373 94 238 c 1,29,30
 190 473 190 473 227 619 c 1,31,-1
 337 677 l 1,32,33
 365 677 365 677 381 658 c 1,0,1
272 853 m 128,-1,35
 303 882 303 882 344.5 882 c 128,-1,36
 386 882 386 882 410 861.5 c 128,-1,37
 434 841 434 841 434 798.5 c 128,-1,38
 434 756 434 756 402.5 727 c 128,-1,39
 371 698 371 698 329.5 698 c 128,-1,40
 288 698 288 698 264.5 718.5 c 128,-1,41
 241 739 241 739 241 781.5 c 128,-1,34
 241 824 241 824 272 853 c 128,-1,35
343 831 m 0,42,43
 325 831 325 831 313 818 c 128,-1,44
 301 805 301 805 301 785 c 0,45,46
 301 749 301 749 331 749 c 0,47,48
 349 749 349 749 361.5 762 c 128,-1,49
 374 775 374 775 374 795 c 0,50,51
 374 831 374 831 343 831 c 0,42,43
161 235 m 1,52,53
 255 237 255 237 328 258 c 1,54,55
 287 413 287 413 276 522 c 1,56,57
 219 365 219 365 161 235 c 1,52,53
EndSplineSet
EndChar

StartChar: degree
Encoding: 176 176 102
Width: 303
Flags: HMW
HStem: 447 21G<106.5 174> 685 20G<127 195.5>
VStem: 30 243<548.5 603.5>
LayerCount: 2
Fore
SplineSet
68.5 664.5 m 128,-1,1
 107 705 107 705 160 705 c 128,-1,2
 213 705 213 705 243 676 c 128,-1,3
 273 647 273 647 273 587.5 c 128,-1,4
 273 528 273 528 233.5 487.5 c 128,-1,5
 194 447 194 447 141.5 447 c 128,-1,6
 89 447 89 447 59.5 476 c 128,-1,7
 30 505 30 505 30 564.5 c 128,-1,0
 30 624 30 624 68.5 664.5 c 128,-1,1
225 585 m 0,8,9
 225 638 225 638 157.5 638 c 0,10,11
 125 638 125 638 101 618 c 128,-1,12
 77 598 77 598 77 569.5 c 128,-1,13
 77 541 77 541 94.5 527.5 c 128,-1,14
 112 514 112 514 143.5 514 c 128,-1,15
 175 514 175 514 200 534 c 128,-1,16
 225 554 225 554 225 585 c 0,8,9
EndSplineSet
EndChar

StartChar: two
Encoding: 50 50 103
Width: 500
Flags: HMW
HStem: -30 21G<459 459.5> -8 21G 625 20G<170.5 279.5>
VStem: 306 105<433 518>
LayerCount: 2
Fore
SplineSet
411 486 m 0,0,1
 411 361 411 361 135 77 c 1,2,3
 366 57 366 57 449 29 c 1,4,5
 461 14 461 14 461 -8 c 128,-1,6
 461 -30 461 -30 459 -30 c 0,7,8
 358 -8 358 -8 241 -8 c 128,-1,9
 124 -8 124 -8 19 -24 c 1,10,-1
 0 6 l 1,11,12
 33.0909090909 39.0909090909 33.0909090909 39.0909090909 98.5454545455 120.545454545 c 128,-1,13
 164 202 164 202 211.5 268 c 0,14,15
 306 399.305263158 306 399.305263158 306 483 c 0,16,17
 306 575 306 575 203 575 c 0,18,19
 129 575 129 575 55 537 c 1,20,-1
 43 565 l 1,21,-1
 80 637 l 1,22,23
 144 645 144 645 198 645 c 128,-1,24
 252 645 252 645 299 630.5 c 128,-1,25
 346 616 346 616 369 590.5 c 0,26,27
 411 543.934782609 411 543.934782609 411 486 c 0,0,1
EndSplineSet
EndChar

StartChar: backslash
Encoding: 92 92 104
Width: 460
Flags: HMW
HStem: -103 21G<420.5 429> 718 20G<32 32>
LayerCount: 2
Fore
SplineSet
412 -98 m 0,0,1
 391 -54 391 -54 339 59.5 c 128,-1,2
 287 173 287 173 259 231 c 128,-1,3
 231 289 231 289 185 381.5 c 0,4,5
 99.063525675 554.307040762 99.063525675 554.307040762 0 712 c 1,6,-1
 32 738 l 1,7,-1
 115 716 l 1,8,9
 259 401 259 401 460 -81 c 1,10,11
 446 -103 446 -103 424 -103 c 0,12,13
 414 -103 414 -103 412 -98 c 0,0,1
EndSplineSet
EndChar

StartChar: question
Encoding: 63 63 105
Width: 405
Flags: HMW
HStem: -28 21G<105 143> 689 20G
VStem: 65 138<23.5 57.5> 81 100<281 322.5 267 360.5> 181 105 286 97<514 567 476 585.5>
LayerCount: 2
Fore
SplineSet
224 219 m 1,0,1
 224 183 224 183 198 183 c 1,2,3
 140 204 140 204 110.5 236.5 c 128,-1,4
 81 269 81 269 81 300.5 c 128,-1,5
 81 332 81 332 102 363.5 c 128,-1,6
 123 395 123 395 153 418 c 128,-1,7
 183 441 183 441 213.5 463 c 0,8,9
 286 515.295081967 286 515.295081967 286 563 c 0,10,11
 286 594 286 594 261 609 c 128,-1,12
 236 624 236 624 194.5 624 c 128,-1,13
 153 624 153 624 101 592 c 1,14,-1
 67 689 l 1,15,-1
 91 709 l 1,16,17
 290.761904762 692.803088803 290.761904762 692.803088803 353.5 616.5 c 0,18,19
 383 580.621621622 383 580.621621622 383 542.310810811 c 128,-1,20
 383 504 383 504 362 472.5 c 128,-1,21
 341 441 341 441 311.5 417.5 c 128,-1,22
 282 394 282 394 252.5 372 c 0,23,24
 181 318.677966102 181 318.677966102 181 279.338983051 c 128,-1,25
 181 240 181 240 224 219 c 1,0,1
92 91.5 m 128,-1,27
 65 69 65 69 65 39.5 c 128,-1,28
 65 10 65 10 81 -9 c 128,-1,29
 97 -28 97 -28 126 -28 c 128,-1,30
 155 -28 155 -28 179 -7.5 c 128,-1,31
 203 13 203 13 203 53.5 c 128,-1,32
 203 94 203 94 168 121 c 1,33,26
 119 114 119 114 92 91.5 c 128,-1,27
EndSplineSet
EndChar

StartChar: questiondown
Encoding: 191 191 106
Width: 405
Flags: HMW
HStem: -237 21G<314 314> 480 20G<262 300>
VStem: 22 97<-95 -42 -113.5 -4> 202 138<414.5 448.5> 224 100<149.5 191 111.5 205>
LayerCount: 2
Fore
SplineSet
181 253 m 1,0,1
 181 289 181 289 207 289 c 1,2,3
 265 268 265 268 294.5 235.5 c 128,-1,4
 324 203 324 203 324 171.5 c 128,-1,5
 324 140 324 140 303 108.5 c 128,-1,6
 282 77 282 77 252 54 c 128,-1,7
 222 31 222 31 191.5 9 c 0,8,9
 119 -43.2950819672 119 -43.2950819672 119 -91 c 0,10,11
 119 -122 119 -122 144 -137 c 128,-1,12
 169 -152 169 -152 210.5 -152 c 128,-1,13
 252 -152 252 -152 304 -120 c 1,14,-1
 338 -217 l 1,15,-1
 314 -237 l 1,16,17
 114.238095238 -220.803088803 114.238095238 -220.803088803 51.5 -144.5 c 0,18,19
 22 -108.621621622 22 -108.621621622 22 -70.3108108108 c 128,-1,20
 22 -32 22 -32 43 -0.5 c 128,-1,21
 64 31 64 31 93.5 54.5 c 128,-1,22
 123 78 123 78 152.5 100 c 0,23,24
 224 153.322033898 224 153.322033898 224 192.661016949 c 128,-1,25
 224 232 224 232 181 253 c 1,0,1
324 481 m 128,-1,27
 340 462 340 462 340 432.5 c 128,-1,28
 340 403 340 403 313 380.5 c 128,-1,29
 286 358 286 358 237 351 c 1,30,31
 202 378 202 378 202 418.5 c 128,-1,32
 202 459 202 459 226 479.5 c 128,-1,33
 250 500 250 500 279 500 c 128,-1,26
 308 500 308 500 324 481 c 128,-1,27
EndSplineSet
EndChar

StartChar: caron
Encoding: 711 711 107
Width: 375
Flags: HMW
HStem: 532 21G<152 152 152 176> 697 20G
LayerCount: 2
Fore
SplineSet
152 532 m 1,0,1
 115 620 115 620 50 685 c 1,2,-1
 60 701 l 1,3,-1
 123 711 l 1,4,5
 153 678 153 678 171 639 c 1,6,7
 224 688 224 688 292 717 c 1,8,9
 300 716 300 716 312.5 702.5 c 128,-1,10
 325 689 325 689 325 679 c 1,11,12
 229 615 229 615 176 532 c 1,13,-1
 152 532 l 1,0,1
EndSplineSet
EndChar

StartChar: scaron
Encoding: 353 353 109
Width: 368
Flags: HMW
HStem: -31 21G<111 212.5> 697 20G
VStem: 54 94<317 354.5> 217 108<79 132.5>
LayerCount: 2
Fore
SplineSet
345 472 m 1,0,-1
 313 383 l 1,1,2
 267 413 267 413 222 413 c 0,3,4
 148 413 148 413 148 356 c 0,5,6
 148 316.886792453 148 316.886792453 210.5 265 c 0,7,8
 237 243 237 243 263 219 c 0,9,10
 325 161.769230769 325 161.769230769 325 104 c 0,11,12
 325 58.7631578947 325 58.7631578947 291 18.5 c 0,13,14
 272 -4 272 -4 229.5 -17.5 c 128,-1,15
 187 -31 187 -31 132 -31 c 128,-1,16
 77 -31 77 -31 33 -17 c 1,17,18
 28 -13 28 -13 21.5 1.5 c 128,-1,19
 15 16 15 16 15 22 c 128,-1,20
 15 28 15 28 17.5 28 c 128,-1,21
 20 28 20 28 31.5 25 c 0,22,23
 62.1666666667 17 62.1666666667 17 108.083333333 17 c 128,-1,24
 154 17 154 17 185.5 37 c 128,-1,25
 217 57 217 57 217 88 c 128,-1,26
 217 119 217 119 191.5 149 c 128,-1,27
 166 179 166 179 135.5 203 c 128,-1,28
 105 227 105 227 79.5 262.5 c 128,-1,29
 54 298 54 298 54 334 c 0,30,31
 54 366.181818182 54 366.181818182 75.5 391.590909091 c 128,-1,32
 97 417 97 417 125 433.5 c 0,33,34
 193.487356322 473.85862069 193.487356322 473.85862069 323 491 c 1,35,-1
 345 472 l 1,0,-1
195 532 m 1,36,37
 158 620 158 620 93 685 c 1,38,-1
 103 701 l 1,39,-1
 166 711 l 1,40,41
 196 678 196 678 214 639 c 1,42,43
 267 688 267 688 335 717 c 1,44,45
 343 716 343 716 355.5 702.5 c 128,-1,46
 368 689 368 689 368 679 c 1,47,48
 272 615 272 615 219 532 c 1,49,-1
 195 532 l 1,36,37
EndSplineSet
EndChar

StartChar: zcaron
Encoding: 382 382 111
Width: 407
Flags: HMW
HStem: -17 21G<393 393.5> 359 85<161 278> 697 20G
LayerCount: 2
Fore
SplineSet
385 33 m 1,0,1
 395 20 395 20 395 1.5 c 128,-1,2
 395 -17 395 -17 393 -17 c 0,3,4
 311 2 311 2 217.5 2 c 128,-1,5
 124 2 124 2 40 -12 c 1,6,-1
 24 13 l 1,7,8
 45 37 45 37 78.5 76.5 c 128,-1,9
 112 116 112 116 179.5 212 c 128,-1,10
 247 308 247 308 274 373 c 1,11,12
 241 359 241 359 180.5 359 c 128,-1,13
 120 359 120 359 76 371 c 1,14,-1
 42 459 l 1,15,-1
 59 485 l 1,16,17
 150 444 150 444 244 444 c 0,18,19
 306 444 306 444 337 459.5 c 2,20,-1
 348 465 l 1,21,-1
 382 395 l 1,22,23
 346 276 346 276 127 74 c 1,24,25
 313 57 313 57 385 33 c 1,0,1
213 532 m 1,26,27
 176 620 176 620 111 685 c 1,28,-1
 121 701 l 1,29,-1
 184 711 l 1,30,31
 214 678 214 678 232 639 c 1,32,33
 285 688 285 688 353 717 c 1,34,35
 361 716 361 716 373.5 702.5 c 128,-1,36
 386 689 386 689 386 679 c 1,37,38
 290 615 290 615 237 532 c 1,39,-1
 213 532 l 1,26,27
EndSplineSet
EndChar

StartChar: bracketleft
Encoding: 91 91 112
Width: 347
Flags: HMW
HStem: -87 21G<134 158> 730 20G<123 163.5>
LayerCount: 2
Fore
SplineSet
123 750 m 1,0,1
 257 750 257 750 338 712 c 1,2,3
 347 703 347 703 347 679.5 c 0,4,5
 347 656 347 656 341 650 c 1,6,7
 280 666 280 666 223 670 c 1,8,9
 158 486 158 486 158 58 c 2,10,-1
 158 -15 l 1,11,12
 229 -8 229 -8 304 20 c 1,13,-1
 315 2 l 1,14,-1
 282 -76 l 1,15,16
 218 -87 218 -87 134 -87 c 1,17,-1
 114 -70 l 1,18,19
 85 154 85 154 85 355 c 0,20,21
 85 441 85 441 95.5 558 c 128,-1,22
 106 675 106 675 123 750 c 1,0,1
EndSplineSet
EndChar

StartChar: bracketright
Encoding: 93 93 113
Width: 347
Flags: HMW
HStem: -87 21G<183.5 224> 730 20G<189 213>
LayerCount: 2
Fore
SplineSet
224 -87 m 1,0,1
 90 -87 90 -87 9 -49 c 1,2,3
 0 -40 0 -40 0 -16.5 c 0,4,5
 0 7 0 7 6 13 c 1,6,7
 67 -3 67 -3 124 -7 c 1,8,9
 189 177 189 177 189 605 c 2,10,-1
 189 678 l 1,11,12
 118 671 118 671 43 643 c 1,13,-1
 32 661 l 1,14,-1
 65 739 l 1,15,16
 129 750 129 750 213 750 c 1,17,-1
 233 733 l 1,18,19
 262 509 262 509 262 308 c 0,20,21
 262 222 262 222 251.5 105 c 128,-1,22
 241 -12 241 -12 224 -87 c 1,0,1
EndSplineSet
EndChar

StartChar: grave
Encoding: 96 96 114
Width: 319
Flags: HMW
HStem: 522 21G 697 20G<78 78>
LayerCount: 2
Fore
SplineSet
50 620 m 1,0,-1
 62 707 l 1,1,-1
 78 717 l 1,2,3
 155 612 155 612 269 560 c 1,4,5
 269 550 269 550 256.5 536.5 c 128,-1,6
 244 523 244 523 236 522 c 1,7,8
 177 540 177 540 135 561.5 c 128,-1,9
 93 583 93 583 50 620 c 1,0,-1
EndSplineSet
EndChar

StartChar: egrave
Encoding: 232 232 116
Width: 426
Flags: HMW
HStem: -22 99<186.5 215> 697 20G<190 190>
VStem: 41 86 127 172
LayerCount: 2
Fore
SplineSet
381 368 m 1,0,1
 370 322 370 322 337 285 c 128,-1,2
 304 248 304 248 262 226 c 0,3,4
 185.21875 185.78125 185.21875 185.78125 127 175 c 1,5,6
 131 125 131 125 153 101 c 128,-1,7
 175 77 175 77 206 77 c 0,8,9
 294 77 294 77 365 225 c 1,10,11
 366 231 366 231 375 231 c 128,-1,12
 384 231 384 231 402 217 c 1,13,14
 359 113 359 113 296.5 45.5 c 128,-1,15
 234 -22 234 -22 172 -22 c 128,-1,16
 110 -22 110 -22 75.5 23 c 128,-1,17
 41 68 41 68 41 144 c 0,18,19
 41 248.950819672 41 248.950819672 98.5 338.5 c 0,20,21
 129 386 129 386 185.5 422.5 c 128,-1,22
 242 459 242 459 320 477 c 1,23,24
 381 456 381 456 381 368 c 1,0,1
264 398 m 0,25,26
 222 398 222 398 177 349.5 c 128,-1,27
 132 301 132 301 127 215 c 1,28,29
 210 237 210 237 254.5 279.5 c 128,-1,30
 299 322 299 322 299 363 c 0,31,32
 299 378 299 378 290 388 c 128,-1,33
 281 398 281 398 264 398 c 0,25,26
162 620 m 1,34,-1
 174 707 l 1,35,-1
 190 717 l 1,36,37
 267 612 267 612 381 560 c 1,38,39
 381 550 381 550 368.5 536.5 c 128,-1,40
 356 523 356 523 348 522 c 1,41,42
 289 540 289 540 247 561.5 c 128,-1,43
 205 583 205 583 162 620 c 1,34,-1
EndSplineSet
EndChar

StartChar: ograve
Encoding: 242 242 118
Width: 477
Flags: HMW
HStem: -33 91<198.5 273 198.5 289.5> 697 20G<200 200>
VStem: 42 91<160.5 244.5>
LayerCount: 2
Fore
SplineSet
420 457 m 1,0,-1
 372 402 l 1,1,2
 428 334 428 334 428 231 c 0,3,4
 428 85.8163265306 428 85.8163265306 335 8 c 0,5,6
 286 -33 286 -33 214.5 -33 c 128,-1,7
 143 -33 143 -33 92.5 24 c 128,-1,8
 42 81 42 81 42 181 c 0,9,10
 42 286.24691358 42 286.24691358 120.5 372.5 c 0,11,12
 161 417 161 417 235.5 447 c 128,-1,13
 310 477 310 477 409 485 c 1,14,-1
 420 457 l 1,0,-1
229 58 m 0,15,16
 290 58 290 58 330.5 110 c 128,-1,17
 371 162 371 162 371 218 c 0,18,19
 371 339 371 339 316 405 c 1,20,21
 239 392 239 392 186 336 c 128,-1,22
 133 280 133 280 133 209 c 128,-1,23
 133 138 133 138 158.5 98 c 128,-1,24
 184 58 184 58 229 58 c 0,15,16
172 620 m 1,25,-1
 184 707 l 1,26,-1
 200 717 l 1,27,28
 277 612 277 612 391 560 c 1,29,30
 391 550 391 550 378.5 536.5 c 128,-1,31
 366 523 366 523 358 522 c 1,32,33
 299 540 299 540 257 561.5 c 128,-1,34
 215 583 215 583 172 620 c 1,25,-1
EndSplineSet
EndChar

StartChar: paragraph
Encoding: 182 182 120
Width: 432
Flags: HMW
HStem: -87 21G<316 324.5> 731 20G<393 393>
LayerCount: 2
Fore
SplineSet
329 -84 m 0,0,1
 329 -87 329 -87 321 -87 c 128,-1,2
 313 -87 313 -87 300.5 -82 c 128,-1,3
 288 -77 288 -77 283 -70 c 1,4,5
 253 156 253 156 252 327 c 1,6,7
 190 256 190 256 107 256 c 0,8,9
 60 256 60 256 30 285.5 c 128,-1,10
 0 315 0 315 0 373 c 0,11,12
 0 482 0 482 98 581 c 128,-1,13
 196 680 196 680 393 751 c 1,14,-1
 417 737 l 1,15,16
 360 594 360 594 342.5 435.5 c 128,-1,17
 325 277 325 277 325 120.5 c 0,18,19
 325 -36 325 -36 329 -84 c 0,0,1
EndSplineSet
EndChar

StartChar: quotedbl
Encoding: 34 34 121
Width: 313
Flags: HMW
HStem: 447 21G<66 78 213 225.5> 685 20G<96 96 243 243>
LayerCount: 2
Fore
SplineSet
120 455 m 1,0,1
 101 447 101 447 70 447 c 0,2,3
 60 447 60 447 60 471 c 0,4,5
 60 568 60 568 77 696 c 1,6,-1
 96 705 l 1,7,-1
 166 670 l 1,8,9
 133 587 133 587 120 455 c 1,0,1
267 455 m 1,10,11
 248 447 248 447 217 447 c 0,12,13
 207 447 207 447 207 471 c 0,14,15
 207 557 207 557 224 696 c 1,16,-1
 243 705 l 1,17,-1
 313 670 l 1,18,19
 279 582 279 582 267 455 c 1,10,11
EndSplineSet
EndChar

StartChar: quotesingle
Encoding: 39 39 122
Width: 166
Flags: HMW
HStem: 447 21G<66 78> 685 20G<96 96>
LayerCount: 2
Fore
SplineSet
120 455 m 1,0,1
 101 447 101 447 70 447 c 0,2,3
 60 447 60 447 60 471 c 0,4,5
 60 568 60 568 77 696 c 1,6,-1
 96 705 l 1,7,-1
 166 670 l 1,8,9
 133 587 133 587 120 455 c 1,0,1
EndSplineSet
EndChar

StartChar: numbersign
Encoding: 35 35 123
Width: 500
Flags: HMW
HStem: -38 21G<18.5 26.5 285.5 293.5> 699 20G
LayerCount: 2
Fore
SplineSet
34 -33 m 0,0,1
 32 -38 32 -38 23.5 -38 c 0,2,3
 15 -38 15 -38 1.5 -32 c 128,-1,4
 -12 -26 -12 -26 -18 -18 c 1,5,6
 17 160 17 160 22 184 c 1,7,-1
 -50 180 l 1,8,-1
 -84 238 l 1,9,-1
 -71 277 l 1,10,11
 -19 269 -19 269 39 264 c 1,12,13
 47 300 47 300 71 404 c 1,14,-1
 0 400 l 1,15,-1
 -34 458 l 1,16,-1
 -21 497 l 1,17,18
 29 489 29 489 90 484 c 1,19,20
 106 555 106 555 142 699 c 1,21,-1
 218 719 l 1,22,-1
 251 696 l 1,23,24
 208 594 208 594 171 479 c 1,25,26
 195 478 195 478 245.5 478 c 0,27,28
 296 478 296 478 356 481 c 1,29,-1
 409 699 l 1,30,-1
 485 719 l 1,31,-1
 518 696 l 1,32,33
 477 599 477 599 441 486 c 1,34,35
 470 488 470 488 551 496 c 0,36,37
 560 496 560 496 560 475.5 c 0,38,39
 560 455 560 455 552 442 c 1,40,41
 485 433 485 433 422 427 c 1,42,43
 406 373 406 373 376 265 c 1,44,45
 460 272 460 272 501 276 c 0,46,47
 510 276 510 276 510 255.5 c 0,48,49
 510 235 510 235 502 222 c 1,50,51
 408 210 408 210 361 206 c 1,52,-1
 301 -33 l 1,53,54
 298 -38 298 -38 290 -38 c 128,-1,55
 282 -38 282 -38 268.5 -32 c 128,-1,56
 255 -26 255 -26 249 -18 c 1,57,58
 266 76 266 76 293 201 c 1,59,60
 216 195 216 195 89 188 c 1,61,62
 47 17 47 17 34 -33 c 0,0,1
342 421 m 1,63,64
 273 415 273 415 149 408 c 1,65,66
 125 323 125 323 108 260 c 1,67,68
 136 258 136 258 191 258 c 0,69,70
 246 258 246 258 306 261 c 1,71,72
 322 337 322 337 342 421 c 1,63,64
EndSplineSet
EndChar

StartChar: fraction
Encoding: 8260 8260 124
Width: 809
Flags: HMW
HStem: -103 21G<205 213.5> 718 20G<602 602>
LayerCount: 2
Fore
SplineSet
222 -98 m 0,0,1
 220 -103 220 -103 210 -103 c 0,2,3
 188 -103 188 -103 174 -81 c 1,4,5
 375 401 375 401 519 716 c 1,6,-1
 602 738 l 1,7,-1
 634 712 l 1,8,9
 534.936474325 554.307040762 534.936474325 554.307040762 468.968237163 421.653520381 c 128,-1,10
 403 289 403 289 375 231 c 128,-1,11
 347 173 347 173 295 59.5 c 128,-1,12
 243 -54 243 -54 222 -98 c 0,0,1
EndSplineSet
EndChar

StartChar: percent
Encoding: 37 37 125
Width: 809
Flags: HMW
HStem: -103 21G<227 235.5> -20 21G<572.5 645.5> 718 20G<624 624>
LayerCount: 2
Fore
SplineSet
287 616 m 128,-1,1
 319 565 319 565 319 467 c 128,-1,2
 319 369 319 369 273.5 304 c 128,-1,3
 228 239 228 239 163 239 c 0,4,5
 114 239 114 239 82 290 c 128,-1,6
 50 341 50 341 50 439 c 128,-1,7
 50 537 50 537 95.5 602 c 128,-1,8
 141 667 141 667 205 667 c 0,9,0
 255 667 255 667 287 616 c 128,-1,1
127.5 550 m 128,-1,11
 99 507 99 507 99 442.5 c 128,-1,12
 99 378 99 378 120 344.5 c 128,-1,13
 141 311 141 311 177.5 311 c 128,-1,14
 214 311 214 311 242.5 352.5 c 128,-1,15
 271 394 271 394 271 458.5 c 128,-1,16
 271 523 271 523 250 558 c 128,-1,17
 229 593 229 593 192.5 593 c 128,-1,10
 156 593 156 593 127.5 550 c 128,-1,11
727 357 m 128,-1,19
 759 306 759 306 759 208 c 128,-1,20
 759 110 759 110 713.5 45 c 128,-1,21
 668 -20 668 -20 603 -20 c 0,22,23
 554 -20 554 -20 522 31 c 128,-1,24
 490 82 490 82 490 180 c 128,-1,25
 490 278 490 278 535.5 343 c 128,-1,26
 581 408 581 408 645 408 c 0,27,18
 695 408 695 408 727 357 c 128,-1,19
567.5 291 m 128,-1,29
 539 248 539 248 539 183.5 c 128,-1,30
 539 119 539 119 560 85.5 c 128,-1,31
 581 52 581 52 617.5 52 c 128,-1,32
 654 52 654 52 682.5 93.5 c 128,-1,33
 711 135 711 135 711 199.5 c 128,-1,34
 711 264 711 264 690 299 c 128,-1,35
 669 334 669 334 632.5 334 c 128,-1,28
 596 334 596 334 567.5 291 c 128,-1,29
244 -98 m 0,36,37
 242 -103 242 -103 232 -103 c 0,38,39
 210 -103 210 -103 196 -81 c 1,40,41
 397 401 397 401 541 716 c 1,42,-1
 624 738 l 1,43,-1
 656 712 l 1,44,45
 556.936474325 554.307040762 556.936474325 554.307040762 490.968237163 421.653520381 c 128,-1,46
 425 289 425 289 397 231 c 128,-1,47
 369 173 369 173 317 59.5 c 128,-1,48
 265 -54 265 -54 244 -98 c 0,36,37
EndSplineSet
EndChar

StartChar: onesuperior
Encoding: 185 185 126
Width: 300
Flags: HMW
HStem: 421 21G<173 182> 830 20G<172 172>
LayerCount: 2
Fore
SplineSet
187 500 m 0,0,1
 187 467 187 467 188 445 c 128,-1,2
 189 423 189 423 187 422 c 128,-1,3
 185 421 185 421 169.5 421 c 128,-1,4
 154 421 154 421 147 433 c 1,5,6
 128 556 128 556 128 682 c 0,7,8
 128 692 128 692 129 699 c 1,9,10
 102 677 102 677 55 655 c 1,11,12
 47 655 47 655 34 666.5 c 128,-1,13
 21 678 21 678 20 690 c 1,14,15
 84 726 84 726 141 798 c 1,16,17
 146 831 146 831 148 837 c 1,18,-1
 172 850 l 1,19,-1
 229 821 l 1,20,21
 187 723 187 723 187 500 c 0,0,1
EndSplineSet
EndChar

StartChar: twosuperior
Encoding: 178 178 127
Width: 300
Flags: HMW
HStem: 422 21G<267 270> 810 20G<102.5 169>
LayerCount: 2
Fore
SplineSet
250 731 m 0,0,1
 250 656 250 656 97 497 c 1,2,3
 218 487 218 487 268 469 c 1,4,5
 279 458 279 458 279 434 c 0,6,7
 279 422 279 422 267 422 c 1,8,9
 210 435 210 435 142.5 435 c 0,10,11
 75 435 75 435 8 425 c 1,12,-1
 -5 452 l 1,13,14
 80 551 80 551 126.5 618.5 c 128,-1,15
 173 686 173 686 173 729 c 0,16,17
 173 776 173 776 124 776 c 0,18,19
 75 776 75 776 30 750 c 1,20,-1
 19 777 l 1,21,-1
 44 824 l 1,22,23
 86 830 86 830 111 830 c 0,24,25
 189 830 189 830 219.5 800.5 c 128,-1,26
 250 771 250 771 250 731 c 0,0,1
EndSplineSet
EndChar

StartChar: onehalf
Encoding: 189 189 128
Width: 809
Flags: HMW
HStem: -103 21G<178 186.5> -12 21G<727 730> 718 20G<575 575>
LayerCount: 2
Fore
SplineSet
195 -98 m 0,0,1
 192 -103 192 -103 183 -103 c 0,2,3
 161 -103 161 -103 147 -81 c 1,4,5
 348 401 348 401 492 716 c 1,6,-1
 575 738 l 1,7,-1
 607 712 l 1,8,9
 507.936474325 554.307040762 507.936474325 554.307040762 441.968237163 421.653520381 c 128,-1,10
 376 289 376 289 348 231 c 128,-1,11
 320 173 320 173 268 59.5 c 128,-1,12
 216 -54 216 -54 195 -98 c 0,0,1
208 327 m 0,13,14
 208 294 208 294 209 272 c 128,-1,15
 210 250 210 250 208 249 c 128,-1,16
 206 248 206 248 190.5 248 c 128,-1,17
 175 248 175 248 168 260 c 1,18,19
 149 383 149 383 149 509 c 0,20,21
 149 519 149 519 150 526 c 1,22,23
 123 504 123 504 76 482 c 1,24,25
 68 482 68 482 55 493.5 c 128,-1,26
 42 505 42 505 41 517 c 1,27,28
 105 553 105 553 162 625 c 1,29,30
 168 658 168 658 169 664 c 1,31,-1
 193 677 l 1,32,-1
 250 648 l 1,33,34
 208 550 208 550 208 327 c 0,13,14
710 297 m 0,35,36
 710 222 710 222 557 63 c 1,37,38
 678 53 678 53 728 35 c 1,39,40
 739 24 739 24 739 0 c 0,41,42
 739 -12 739 -12 727 -12 c 1,43,44
 670 1 670 1 602.5 1 c 128,-1,45
 535 1 535 1 468 -9 c 1,46,-1
 455 18 l 1,47,48
 540 117 540 117 586.5 184.5 c 128,-1,49
 633 252 633 252 633 295 c 0,50,51
 633 342 633 342 584 342 c 128,-1,52
 535 342 535 342 490 316 c 1,53,-1
 479 343 l 1,54,-1
 504 390 l 1,55,56
 546 396 546 396 571 396 c 0,57,58
 649 396 649 396 679.5 366.5 c 128,-1,59
 710 337 710 337 710 297 c 0,35,36
EndSplineSet
EndChar

StartChar: onequarter
Encoding: 188 188 129
Width: 809
Flags: HMW
HStem: -103 21G<178 186.5> -13 21G<668 677> 718 20G<575 575>
LayerCount: 2
Fore
SplineSet
195 -98 m 0,0,1
 192 -103 192 -103 183 -103 c 0,2,3
 161 -103 161 -103 147 -81 c 1,4,5
 348 401 348 401 492 716 c 1,6,-1
 575 738 l 1,7,-1
 607 712 l 1,8,9
 507.936474325 554.307040762 507.936474325 554.307040762 441.968237163 421.653520381 c 128,-1,10
 376 289 376 289 348 231 c 128,-1,11
 320 173 320 173 268 59.5 c 128,-1,12
 216 -54 216 -54 195 -98 c 0,0,1
208 327 m 0,13,14
 208 294 208 294 209 272 c 128,-1,15
 210 250 210 250 208 249 c 128,-1,16
 206 248 206 248 190.5 248 c 128,-1,17
 175 248 175 248 168 260 c 1,18,19
 149 383 149 383 149 509 c 0,20,21
 149 519 149 519 150 526 c 1,22,23
 123 504 123 504 76 482 c 1,24,25
 68 482 68 482 55 493.5 c 128,-1,26
 42 505 42 505 41 517 c 1,27,28
 105 553 105 553 162 625 c 1,29,30
 168 658 168 658 169 664 c 1,31,-1
 193 677 l 1,32,-1
 250 648 l 1,33,34
 208 550 208 550 208 327 c 0,13,14
628 406 m 1,35,36
 679 406 679 406 724 377 c 1,37,38
 689 296 689 296 684 151 c 1,39,-1
 719 164 l 1,40,-1
 732 140 l 1,41,-1
 707 85 l 1,42,43
 699 82 699 82 682 80 c 1,44,-1
 682 66 l 2,45,46
 682 24 682 24 683.5 6.5 c 128,-1,47
 685 -11 685 -11 682.5 -12 c 128,-1,48
 680 -13 680 -13 665 -13 c 128,-1,49
 650 -13 650 -13 642 -1 c 1,50,51
 632 65 632 65 631 76 c 1,52,53
 617 75 617 75 595 75 c 0,54,55
 521 75 521 75 468 93 c 1,56,57
 453 104 453 104 453 129 c 1,58,-1
 504 210 l 2,59,60
 587 343 587 343 628 406 c 1,35,36
629 316 m 1,61,62
 552 170 552 170 532 130 c 1,63,64
 581 130 581 130 626 137 c 1,65,66
 624 165 624 165 624 221 c 128,-1,67
 624 277 624 277 629 316 c 1,61,62
EndSplineSet
EndChar

StartChar: foursuperior
Encoding: 8308 8308 130
Width: 300
Flags: HMW
HStem: 421 21G<208 217> 820 20G<168 185.5>
LayerCount: 2
Fore
SplineSet
168 840 m 1,0,1
 219 840 219 840 264 811 c 1,2,3
 229 730 229 730 224 585 c 1,4,-1
 259 598 l 1,5,-1
 272 574 l 1,6,-1
 247 519 l 1,7,8
 239 516 239 516 222 514 c 1,9,-1
 222 500 l 2,10,11
 222 458 222 458 223.5 440.5 c 0,12,13
 225 423 225 423 222.5 422 c 128,-1,14
 220 421 220 421 205 421 c 0,15,16
 190 421 190 421 182 433 c 1,17,18
 172 499 172 499 171 510 c 1,19,20
 157 509 157 509 135 509 c 0,21,22
 61 509 61 509 8 527 c 1,23,24
 -7 538 -7 538 -7 563 c 1,25,-1
 44 644 l 2,26,27
 127 777 127 777 168 840 c 1,0,1
169 750 m 1,28,29
 92 604 92 604 72 564 c 1,30,31
 121 564 121 564 166 571 c 1,32,33
 164 599 164 599 164 655 c 0,34,35
 164 711 164 711 169 750 c 1,28,29
EndSplineSet
EndChar

StartChar: dollar
Encoding: 36 36 131
Width: 500
Flags: HMW
HStem: -121 21G<169.5 183> 730 20G<284 289.5>
VStem: 81 96<473.5 481> 81 226 325 112<124.5 157>
LayerCount: 2
Fore
SplineSet
446 638 m 1,0,-1
 413 552 l 1,1,2
 367 576 367 576 307 578 c 1,3,4
 298 463 298 463 283 355 c 1,5,6
 367.155382171 289.545813867 367.155382171 289.545813867 393.901312 258.033928 c 0,7,8
 437 207.255325575 437 207.255325575 437 155 c 0,9,10
 437 100.782608696 437 100.782608696 394 47.5 c 0,11,12
 371 19 371 19 323 -1 c 128,-1,13
 275 -21 275 -21 209 -26 c 1,14,15
 203 -49 203 -49 183 -121 c 1,16,17
 139 -121 139 -121 113 -102 c 1,18,19
 132 -48 132 -48 138 -27 c 1,20,21
 99 -25 99 -25 49 -11 c 1,22,23
 38 6 38 6 38 19 c 128,-1,24
 38 32 38 32 39.5 32 c 128,-1,25
 41 32 41 32 53.5 28.5 c 0,26,27
 94.5714285714 17 94.5714285714 17 136 17 c 2,28,-1
 152 17 l 1,29,30
 183 127 183 127 215 286 c 1,31,32
 168 324 168 324 148 341 c 128,-1,33
 128 358 128 358 104.5 392.5 c 128,-1,34
 81 427 81 427 81 465 c 128,-1,35
 81 503 81 503 121.5 549 c 128,-1,36
 162 595 162 595 270 630 c 1,37,-1
 284 750 l 1,38,39
 311 750 311 750 318 734 c 1,40,-1
 312 641 l 1,41,42
 367 656 367 656 429 664 c 1,43,-1
 446 638 l 1,0,-1
234 395 m 1,44,45
 252 493 252 493 263 575 c 1,46,47
 177 560 177 560 177 491 c 0,48,49
 177 447 177 447 234 395 c 1,44,45
266 242 m 1,50,51
 244 119 244 119 222 28 c 1,52,53
 270 42 270 42 297.5 71 c 128,-1,54
 325 100 325 100 325 143 c 128,-1,55
 325 186 325 186 266 242 c 1,50,51
EndSplineSet
EndChar

StartChar: cent
Encoding: 162 162 132
Width: 500
Flags: HMW
HStem: -69 21G<227.5 240.5> 697 20G<287 292.5>
LayerCount: 2
Fore
SplineSet
391 546 m 1,0,-1
 366 482 l 1,1,2
 343 486 343 486 312 486 c 128,-1,3
 281 486 281 486 250.5 471.5 c 128,-1,4
 220 457 220 457 204 432.5 c 0,5,6
 173 385.03125 173 385.03125 173 320.015625 c 128,-1,7
 173 255 173 255 194 216 c 128,-1,8
 215 177 215 177 249.5 177 c 0,9,10
 318.838235294 177 318.838235294 177 356 310 c 0,11,12
 360 321 360 321 370.5 321 c 128,-1,13
 381 321 381 321 401 307 c 1,14,15
 389 234 389 234 356 184.5 c 128,-1,16
 323 135 323 135 279 116 c 1,17,18
 272 17 272 17 262 -66 c 1,19,20
 253 -69 253 -69 230 -69 c 128,-1,21
 207 -69 207 -69 190 -61 c 1,22,23
 202 -6 202 -6 215 108 c 1,24,25
 160 116 160 116 128.5 166 c 128,-1,26
 97 216 97 216 97 294 c 0,27,28
 97 391.493506494 97 391.493506494 165.5 468 c 0,29,30
 204 511 204 511 262 537 c 1,31,32
 280 654 280 654 287 717 c 1,33,34
 314 717 314 717 321 703 c 1,35,36
 315 605 315 605 310 555 c 1,37,38
 339 564 339 564 375 570 c 1,39,-1
 391 546 l 1,0,-1
EndSplineSet
EndChar

StartChar: threequarters
Encoding: 190 190 133
Width: 809
Flags: HMW
HStem: -103 21G<229 237.5> -13 21G<668 677> 718 20G<626 626>
LayerCount: 2
Fore
SplineSet
246 -98 m 0,0,1
 244 -103 244 -103 234 -103 c 0,2,3
 212 -103 212 -103 198 -81 c 1,4,5
 399 401 399 401 543 716 c 1,6,-1
 626 738 l 1,7,-1
 658 712 l 1,8,9
 558.936474325 554.307040762 558.936474325 554.307040762 492.968237163 421.653520381 c 128,-1,10
 427 289 427 289 399 231 c 128,-1,11
 371 173 371 173 319 59.5 c 128,-1,12
 267 -54 267 -54 246 -98 c 0,0,1
140 486 m 1,13,-1
 142 480 l 1,14,15
 194 477 194 477 226 447.5 c 128,-1,16
 258 418 258 418 258 366 c 128,-1,17
 258 314 258 314 214.5 279.5 c 128,-1,18
 171 245 171 245 113.5 245 c 128,-1,19
 56 245 56 245 9 272 c 1,20,21
 9 282 9 282 15.5 296 c 128,-1,22
 22 310 22 310 29 310 c 1,23,24
 62 290 62 290 96.5 290 c 128,-1,25
 131 290 131 290 155 312 c 128,-1,26
 179 334 179 334 179 369 c 128,-1,27
 179 404 179 404 159.5 421 c 128,-1,28
 140 438 140 438 110 438 c 128,-1,29
 80 438 80 438 54 425 c 1,30,-1
 39 452 l 1,31,32
 126 527 126 527 178 604 c 1,33,34
 85 604 85 604 30 578 c 1,35,-1
 19 604 l 1,36,-1
 44 651 l 1,37,38
 80 657 80 657 114 657 c 0,39,40
 189 657 189 657 247 633 c 1,41,42
 258 620 258 620 258 602 c 1,43,44
 223 550 223 550 140 486 c 1,13,-1
628 406 m 1,45,46
 679 406 679 406 724 377 c 1,47,48
 689 296 689 296 684 151 c 1,49,-1
 719 164 l 1,50,-1
 732 140 l 1,51,-1
 707 85 l 1,52,53
 699 82 699 82 682 80 c 1,54,-1
 682 66 l 2,55,56
 682 24 682 24 683.5 6.5 c 128,-1,57
 685 -11 685 -11 682.5 -12 c 128,-1,58
 680 -13 680 -13 665 -13 c 128,-1,59
 650 -13 650 -13 642 -1 c 1,60,61
 632 65 632 65 631 76 c 1,62,63
 617 75 617 75 595 75 c 0,64,65
 521 75 521 75 468 93 c 1,66,67
 453 104 453 104 453 129 c 1,68,-1
 504 210 l 2,69,70
 587 343 587 343 628 406 c 1,45,46
629 316 m 1,71,72
 552 170 552 170 532 130 c 1,73,74
 581 130 581 130 626 137 c 1,75,76
 624 165 624 165 624 221 c 128,-1,77
 624 277 624 277 629 316 c 1,71,72
EndSplineSet
EndChar

StartChar: sterling
Encoding: 163 163 134
Width: 500
Flags: HMW
HStem: -30 21G<465 465.5> -8 21G<215 280.5> 644 20G<446 446>
VStem: 112 86
LayerCount: 2
Fore
SplineSet
395 339 m 1,0,-1
 365 270 l 1,1,2
 307 259 307 259 258 259 c 128,-1,3
 209 259 209 259 193 260 c 1,4,5
 185 174 185 174 168 77 c 1,6,7
 387 54 387 54 456 29 c 1,8,9
 467 12 467 12 467 -9 c 128,-1,10
 467 -30 467 -30 465 -30 c 0,11,12
 371 -8 371 -8 260 -8 c 128,-1,13
 149 -8 149 -8 50 -24 c 1,14,-1
 31 6 l 1,15,-1
 107 83 l 1,16,17
 118 186 118 186 118 266 c 1,18,19
 89 269 89 269 60 275 c 1,20,21
 51 278 51 278 42.5 295.5 c 128,-1,22
 34 313 34 313 33 323 c 1,23,-1
 38 329 l 1,24,25
 93 323 93 323 117 322 c 1,26,27
 112 440 112 440 112 472.5 c 128,-1,28
 112 505 112 505 123.5 531.5 c 128,-1,29
 135 558 135 558 167 586 c 0,30,31
 233.19939577 643.924471299 233.19939577 643.924471299 446 664 c 1,32,-1
 462 638 l 1,33,-1
 430 552 l 1,34,35
 376 588 376 588 318.5 588 c 128,-1,36
 261 588 261 588 239.5 564.5 c 128,-1,37
 218 541 218 541 210 481 c 0,38,39
 210 480 210 480 198 321 c 1,40,41
 303 322 303 322 386 356 c 1,42,-1
 395 339 l 1,0,-1
EndSplineSet
EndChar

StartChar: yen
Encoding: 165 165 135
Width: 500
Flags: HMW
HStem: -34 21G<264 272.5> 657 20G
LayerCount: 2
Fore
SplineSet
277 -31 m 0,0,1
 277 -34 277 -34 269 -34 c 0,2,3
 243 -34 243 -34 230 -19 c 1,4,5
 212 67 212 67 205 148 c 1,6,7
 142 153 142 153 98 162 c 1,8,9
 89 165 89 165 80.5 182.5 c 128,-1,10
 72 200 72 200 71 210 c 1,11,-1
 76 216 l 1,12,13
 143 208 143 208 201 208 c 1,14,15
 200 224 200 224 200 254 c 1,16,17
 198 258 198 258 190 276 c 1,18,19
 149 278 149 278 93 289 c 1,20,21
 84 292 84 292 75.5 309.5 c 128,-1,22
 67 327 67 327 66 337 c 1,23,-1
 71 343 l 1,24,25
 113 338 113 338 163 336 c 1,26,27
 80 531 80 531 60 659 c 1,28,-1
 86 677 l 1,29,-1
 171 634 l 1,30,31
 185 522 185 522 246 344 c 1,32,33
 340 574 340 574 398 657 c 1,34,-1
 485 677 l 1,35,-1
 514 654 l 1,36,37
 436 557 436 557 308 341 c 1,38,39
 363 348 363 348 419 370 c 1,40,-1
 428 353 l 1,41,-1
 398 284 l 1,42,43
 341 273 341 273 276 273 c 1,44,-1
 271 209 l 1,45,46
 352 215 352 215 424 243 c 1,47,-1
 433 226 l 1,48,-1
 403 157 l 1,49,50
 345 146 345 146 279 146 c 2,51,-1
 269 146 l 1,52,-1
 269 129 l 2,53,54
 269 63 269 63 277 -31 c 0,0,1
EndSplineSet
EndChar

StartChar: at
Encoding: 64 64 136
Width: 882
Flags: HMW
HStem: -107 21G<268.5 350> -19 163<347.5 624> 42 102<284 378> 585 20G<383 594.5>
VStem: 66 86<95.5 282.5 95.5 295> 239 83<188.5 207> 728 96<226 398>
LayerCount: 2
Fore
SplineSet
492 212 m 1,0,-1
 486 216 l 1,1,2
 447 138 447 138 398.5 90 c 128,-1,3
 350 42 350 42 308 42 c 0,4,5
 239 42 239 42 239 128 c 0,6,7
 239 184 239 184 265 238 c 128,-1,8
 291 292 291 292 333 333.5 c 0,9,10
 413.481081081 413.022972973 413.481081081 413.022972973 514 457 c 2,11,-1
 584 487 l 1,12,-1
 604 475 l 1,13,14
 586 435 586 435 568 329 c 128,-1,15
 550 223 550 223 550 143 c 0,16,17
 550 39 550 39 593 39 c 0,18,19
 639 39 639 39 683.5 112 c 128,-1,20
 728 185 728 185 728 309 c 128,-1,21
 728 433 728 433 660.5 494 c 128,-1,22
 593 555 593 555 487 555 c 0,23,24
 347 555 347 555 249.5 445.5 c 128,-1,25
 152 336 152 336 152 174 c 0,26,27
 152 61 152 61 209 2 c 128,-1,28
 266 -57 266 -57 358 -57 c 0,29,30
 365 -57 365 -57 365 -63 c 0,31,32
 362 -91 362 -91 350 -107 c 1,33,34
 222 -107 222 -107 144 -36.5 c 128,-1,35
 66 34 66 34 66 172 c 0,36,37
 66 356 66 356 193.5 480.5 c 128,-1,38
 321 605 321 605 505 605 c 0,39,40
 647 605 647 605 735.5 533 c 128,-1,41
 824 461 824 461 824 323 c 128,-1,42
 824 185 824 185 741 83 c 128,-1,43
 658 -19 658 -19 567 -19 c 0,44,45
 520 -19 520 -19 502.5 14 c 128,-1,46
 485 47 485 47 485 98 c 128,-1,47
 485 149 485 149 492 212 c 1,0,-1
361 144 m 0,48,49
 390 144 390 144 429 186.5 c 128,-1,50
 468 229 468 229 501 311 c 1,51,-1
 516 407 l 1,52,53
 443 378 443 378 382.5 324.5 c 128,-1,54
 322 271 322 271 322 207.5 c 128,-1,55
 322 144 322 144 361 144 c 0,48,49
EndSplineSet
EndChar

StartChar: section
Encoding: 167 167 137
Width: 503
Flags: HMW
HStem: -176 21G<145.5 276> 730 20G<426 426>
VStem: 79 95 322 112<-25.5 47.5>
LayerCount: 2
Fore
SplineSet
110 391 m 1,0,1
 136.775590551 319.598425197 136.775590551 319.598425197 247.5 235 c 0,2,3
 292 201 292 201 335 166 c 0,4,5
 434 85.4186046512 434 85.4186046512 434 7 c 0,6,7
 434 -52.4444444444 434 -52.4444444444 384 -108 c 0,8,9
 357 -138 357 -138 300 -157 c 128,-1,10
 243 -176 243 -176 172 -176 c 128,-1,11
 101 -176 101 -176 46 -159 c 1,12,13
 35 -142 35 -142 35 -129 c 128,-1,14
 35 -116 35 -116 36.5 -116 c 128,-1,15
 38 -116 38 -116 50.5 -120 c 0,16,17
 84.875 -131 84.875 -131 133 -131 c 0,18,19
 217 -131 217 -131 269.5 -97 c 128,-1,20
 322 -63 322 -63 322 -10 c 0,21,22
 322 46.4507042254 322 46.4507042254 236.5 117.5 c 0,23,24
 201 147 201 147 165 176.5 c 128,-1,25
 129 206 129 206 104 241.5 c 128,-1,26
 79 277 79 277 79 314.5 c 128,-1,27
 79 352 79 352 110 391 c 1,0,1
413 164 m 1,28,29
 375 228 375 228 313 287 c 128,-1,30
 251 346 251 346 201.5 380.5 c 128,-1,31
 152 415 152 415 115 458.5 c 128,-1,32
 78 502 78 502 78 546 c 0,33,34
 78 587.931818182 78 587.931818182 113 628.5 c 0,35,36
 189.704528012 717.407521105 189.704528012 717.407521105 426 750 c 1,37,-1
 443 724 l 1,38,-1
 410 638 l 1,39,40
 361 664 361 664 303 664 c 128,-1,41
 245 664 245 664 209.5 643 c 128,-1,42
 174 622 174 622 174 577 c 0,43,44
 174 530.052631579 174 530.052631579 266 455 c 0,45,46
 304 424 304 424 342.5 391.5 c 128,-1,47
 381 359 381 359 408 318 c 128,-1,48
 435 277 435 277 435 241.5 c 128,-1,49
 435 206 435 206 413 164 c 1,28,29
EndSplineSet
EndChar

StartChar: Eth
Encoding: 208 208 138
Width: 541
Flags: HMW
HStem: -28 21G<190.5 271.5> 662 20G<79 79>
VStem: 425 109<172 288.5>
LayerCount: 2
Fore
SplineSet
181 512 m 1,0,1
 184 467 184 467 184 405.5 c 128,-1,2
 184 344 184 344 182 292 c 1,3,4
 241 298 241 298 316 326 c 1,5,-1
 327 308 l 1,6,-1
 294 230 l 1,7,8
 233 219 233 219 177 219 c 1,9,10
 166 103 166 103 151 72 c 1,11,12
 138 57 138 57 125 57 c 128,-1,13
 112 57 112 57 112 60 c 0,14,15
 125 184 125 184 126 220 c 1,16,17
 69 223 69 223 19 236 c 1,18,19
 12 240 12 240 5 259 c 128,-1,20
 -2 278 -2 278 -4 290 c 1,21,-1
 0 296 l 1,22,23
 51 288 51 288 110 288 c 2,24,-1
 125 288 l 1,25,26
 118 533 118 533 37 615 c 1,27,-1
 79 682 l 1,28,29
 161.382267442 601.579215116 161.382267442 601.579215116 281 526.5 c 0,30,31
 391.061560834 457.418807562 391.061560834 457.418807562 458.5 393 c 0,32,33
 492 361 492 361 513 318 c 128,-1,34
 534 275 534 275 534 223.5 c 128,-1,35
 534 172 534 172 511 127 c 128,-1,36
 488 82 488 82 453.5 54 c 128,-1,37
 419 26 419 26 375.5 7 c 0,38,39
 239.654287643 -52.3349088454 239.654287643 -52.3349088454 50 -11 c 1,40,41
 35 6 35 6 35 19 c 128,-1,42
 35 32 35 32 38 32 c 128,-1,43
 41 32 41 32 56 28.5 c 0,44,45
 105.285714286 17 105.285714286 17 158 17 c 0,46,47
 275 17 275 17 350 79.5 c 128,-1,48
 425 142 425 142 425 227 c 0,49,50
 425 384 425 384 181 512 c 1,0,1
EndSplineSet
EndChar

StartChar: thorn
Encoding: 254 254 139
Width: 501
Flags: HMW
HStem: -275 21G<64.5 73> 371 120<302 414> 692 20G<93 93>
VStem: 102 82<191 502> 376 94<314.5 318>
LayerCount: 2
Fore
SplineSet
60 -270 m 0,0,1
 102 -49 102 -49 102 251 c 128,-1,2
 102 551 102 551 68 696 c 1,3,-1
 93 712 l 1,4,-1
 173 674 l 1,5,6
 184 586 184 586 184 478 c 128,-1,7
 184 370 184 370 178 274 c 1,8,9
 219 371 219 371 276 431 c 128,-1,10
 333 491 333 491 380 491 c 0,11,12
 470 491 470 491 470 378 c 0,13,14
 470 273.444444444 470 273.444444444 399 163 c 0,15,16
 363 107 363 107 298 58 c 128,-1,17
 233 9 233 9 149 -20 c 1,18,19
 132 -144 132 -144 110 -258 c 1,20,21
 93 -275 93 -275 68 -275 c 0,22,23
 60 -275 60 -275 60 -270 c 0,0,1
326 371 m 0,24,25
 287 371 287 371 239.5 299 c 128,-1,26
 192 227 192 227 162 99 c 1,27,-1
 156 36 l 1,28,29
 230 62 230 62 282 110.5 c 0,30,31
 376 198.173076923 376 198.173076923 376 296 c 0,32,33
 376 371 376 371 326 371 c 0,24,25
EndSplineSet
EndChar

StartChar: tilde
Encoding: 732 732 141
Width: 427
Flags: HMW
HStem: 546 21G<94 94> 558 100<131.5 271> 575 83<148.5 170> 653 20G<333 340.5>
LayerCount: 2
Fore
SplineSet
94 546 m 1,0,-1
 80 554 l 1,1,-1
 62 606 l 1,2,3
 74 628 74 628 98.5 643 c 128,-1,4
 123 658 123 658 148.5 658 c 0,5,6
 174 658 174 658 206.5 643.5 c 128,-1,7
 239 629 239 629 259 629 c 0,8,9
 303 629 303 629 333 673 c 1,10,11
 343 673 343 673 351 666 c 128,-1,12
 359 659 359 659 359 652 c 1,13,14
 319 558 319 558 250 558 c 0,15,16
 226 558 226 558 197 566.5 c 128,-1,17
 168 575 168 575 157 575 c 0,18,19
 130 575 130 575 94 546 c 1,0,-1
EndSplineSet
EndChar

StartChar: atilde
Encoding: 227 227 143
Width: 470
Flags: HMW
HStem: -28 21G<403.5 411> -22 120<80 188> 558 100<203.5 343> 575 83<220.5 242> 653 20G<405 412.5>
VStem: 24 94<150.5 182> 309 80<219.5 349.5>
LayerCount: 2
Fore
SplineSet
317 458 m 1,0,-1
 398 493 l 1,1,-1
 422 479 l 1,2,3
 389 382 389 382 389 255 c 0,4,5
 389 201 389 201 398 105 c 128,-1,6
 407 9 407 9 415 -25 c 0,7,8
 415 -28 415 -28 400 -28 c 128,-1,9
 385 -28 385 -28 371 -14 c 1,10,11
 339 60 339 60 320 204 c 1,12,13
 278 104 278 104 219.5 41 c 128,-1,14
 161 -22 161 -22 114 -22 c 0,15,16
 24 -22 24 -22 24 91 c 0,17,18
 24 156 24 156 50 216 c 128,-1,19
 76 276 76 276 120.5 321 c 0,20,21
 208.127753304 409.612334802 208.127753304 409.612334802 317 458 c 1,0,-1
168 98 m 0,22,23
 200 98 200 98 239.5 149.5 c 128,-1,24
 279 201 279 201 310 295 c 1,25,26
 309 309 309 309 309 349 c 128,-1,27
 309 389 309 389 310 408 c 1,28,29
 224 359 224 359 171 303.5 c 128,-1,30
 118 248 118 248 118 173 c 128,-1,31
 118 98 118 98 168 98 c 0,22,23
166 546 m 1,32,-1
 152 554 l 1,33,-1
 134 606 l 1,34,35
 146 628 146 628 170.5 643 c 128,-1,36
 195 658 195 658 220.5 658 c 128,-1,37
 246 658 246 658 278.5 643.5 c 128,-1,38
 311 629 311 629 331 629 c 0,39,40
 375 629 375 629 405 673 c 1,41,42
 415 673 415 673 423 666 c 128,-1,43
 431 659 431 659 431 652 c 1,44,45
 391 558 391 558 322 558 c 0,46,47
 298 558 298 558 269 566.5 c 128,-1,48
 240 575 240 575 229 575 c 0,49,50
 202 575 202 575 166 546 c 1,32,-1
EndSplineSet
EndChar

StartChar: Aacute
Encoding: 193 193 146
Width: 502
Flags: HMW
HStem: -34 21G<-16 -7.5 453 461.5> 657 20G<337 342.5> 874 20G<395 395>
LayerCount: 2
Fore
SplineSet
381 658 m 1,0,1
 375.755395683 604.776978417 375.755395683 604.776978417 375.755395683 546.233890585 c 0,2,3
 375.755395683 303.388489209 375.755395683 303.388489209 466 -31 c 1,4,5
 462.802884615 -33.4807692308 462.802884615 -33.4807692308 458 -34 c 0,6,7
 432 -34 432 -34 419 -19 c 1,8,9
 385 53 385 53 345 193 c 1,10,11
 277 182 277 182 218.5 182 c 128,-1,12
 160 182 160 182 137 184 c 1,13,14
 90 86 90 86 32 -19 c 1,15,16
 14 -34 14 -34 -5.01432291667 -33.7604166667 c 128,-1,17
 -24.0286458333 -33.5208333333 -24.0286458333 -33.5208333333 -24 -31 c 1,18,19
 14 44 14 44 76 192 c 1,20,21
 64 194 64 194 38 200 c 1,22,23
 23 216 23 216 23 244 c 0,24,25
 23 251 23 251 26 251 c 128,-1,26
 29 251 29 251 37.5 248.5 c 0,27,28
 59.3333333333 242.078431373 59.3333333333 242.078431373 94 238 c 1,29,30
 190 473 190 473 227 619 c 1,31,-1
 337 677 l 1,32,33
 365 677 365 677 381 658 c 1,0,1
161 235 m 1,34,35
 255 237 255 237 328 258 c 1,36,37
 287 413 287 413 276 522 c 1,38,39
 219 365 219 365 161 235 c 1,34,35
411 884 m 1,40,-1
 423 797 l 1,41,42
 380 760 380 760 338 738.5 c 128,-1,43
 296 717 296 717 237 699 c 1,44,45
 229 700 229 700 216.5 713.5 c 128,-1,46
 204 727 204 727 204 737 c 1,47,48
 318 789 318 789 395 894 c 1,49,-1
 411 884 l 1,40,-1
EndSplineSet
EndChar

StartChar: Atilde
Encoding: 195 195 148
Width: 502
Flags: HMW
HStem: -34 21G<-16 -7.5 453 461.5> 657 20G<337 342.5> 735 100<249.5 389> 752 83<266.5 288> 830 20G<451 458.5>
LayerCount: 2
Fore
SplineSet
381 658 m 1,0,1
 375.755395683 604.776978417 375.755395683 604.776978417 375.755395683 546.233890585 c 0,2,3
 375.755395683 303.388489209 375.755395683 303.388489209 466 -31 c 1,4,5
 462.802884615 -33.4807692308 462.802884615 -33.4807692308 458 -34 c 0,6,7
 432 -34 432 -34 419 -19 c 1,8,9
 385 53 385 53 345 193 c 1,10,11
 277 182 277 182 218.5 182 c 128,-1,12
 160 182 160 182 137 184 c 1,13,14
 90 86 90 86 32 -19 c 1,15,16
 14 -34 14 -34 -5.01432291667 -33.7604166667 c 128,-1,17
 -24.0286458333 -33.5208333333 -24.0286458333 -33.5208333333 -24 -31 c 1,18,19
 14 44 14 44 76 192 c 1,20,21
 64 194 64 194 38 200 c 1,22,23
 23 216 23 216 23 244 c 0,24,25
 23 251 23 251 26 251 c 128,-1,26
 29 251 29 251 37.5 248.5 c 0,27,28
 59.3333333333 242.078431373 59.3333333333 242.078431373 94 238 c 1,29,30
 190 473 190 473 227 619 c 1,31,-1
 337 677 l 1,32,33
 365 677 365 677 381 658 c 1,0,1
161 235 m 1,34,35
 255 237 255 237 328 258 c 1,36,37
 287 413 287 413 276 522 c 1,38,39
 219 365 219 365 161 235 c 1,34,35
212 723 m 1,40,-1
 198 731 l 1,41,-1
 180 783 l 1,42,43
 192 805 192 805 216.5 820 c 128,-1,44
 241 835 241 835 266.5 835 c 128,-1,45
 292 835 292 835 324.5 820.5 c 128,-1,46
 357 806 357 806 377 806 c 0,47,48
 421 806 421 806 451 850 c 1,49,50
 461 850 461 850 469 843 c 128,-1,51
 477 836 477 836 477 829 c 1,52,53
 437 735 437 735 368 735 c 0,54,55
 344 735 344 735 315 743.5 c 128,-1,56
 286 752 286 752 275 752 c 0,57,58
 248 752 248 752 212 723 c 1,40,-1
EndSplineSet
EndChar

StartChar: Eacute
Encoding: 201 201 151
Width: 542
Flags: HMW
HStem: -33 21G<216.5 347> 874 20G<416 416>
VStem: 106 81<188.5 299>
LayerCount: 2
Fore
SplineSet
421 367 m 1,0,-1
 391 298 l 1,1,2
 333 287 333 287 280 287 c 0,3,4
 227 287 227 287 188 290 c 1,5,6
 187 276 187 276 187 250 c 0,7,8
 187 152 187 152 215.5 88.5 c 128,-1,9
 244 25 244 25 301.5 25 c 0,10,11
 359 25 359 25 394 67.5 c 128,-1,12
 429 110 429 110 456 205 c 0,13,14
 458 213 458 213 463 213 c 0,15,16
 477 213 477 213 494 199 c 1,17,18
 448 -33 448 -33 285 -33 c 0,19,20
 112 -33 112 -33 106 299 c 1,21,-1
 86 303 l 1,22,23
 77 306 77 306 68.5 323.5 c 128,-1,24
 60 341 60 341 59 351 c 1,25,-1
 64 357 l 1,26,27
 91 353 91 353 107 352 c 1,28,29
 112 506 112 506 125 582 c 1,30,-1
 101 588 l 1,31,32
 92 594 92 594 86.5 607.5 c 128,-1,33
 81 621 81 621 81 627 c 0,34,35
 81 633 81 633 83 633 c 2,36,-1
 154 627 l 1,37,-1
 227 677 l 1,38,-1
 253 661 l 1,39,-1
 241 626 l 1,40,41
 393 628 393 628 490 677 c 1,42,-1
 507 651 l 1,43,-1
 474 565 l 1,44,45
 404 556 404 556 341 556 c 0,46,47
 278 556 278 556 226 563 c 1,48,49
 202 461 202 461 192 349 c 1,50,-1
 215 349 l 2,51,52
 323 349 323 349 412 384 c 1,53,-1
 421 367 l 1,0,-1
432 884 m 1,54,-1
 444 797 l 1,55,56
 401 760 401 760 359 738.5 c 128,-1,57
 317 717 317 717 258 699 c 1,58,59
 250 700 250 700 237.5 713.5 c 128,-1,60
 225 727 225 727 225 737 c 1,61,62
 339 789 339 789 416 894 c 1,63,-1
 432 884 l 1,54,-1
EndSplineSet
EndChar

StartChar: Edieresis
Encoding: 203 203 153
Width: 542
Flags: HMW
HStem: -33 21G<216.5 347> 626 100<241 241> 831 20G
VStem: 106 81<188.5 299> 184 114<770 798> 371 114<770 798>
LayerCount: 2
Fore
SplineSet
421 367 m 1,0,-1
 391 298 l 1,1,2
 333 287 333 287 280 287 c 0,3,4
 227 287 227 287 188 290 c 1,5,6
 187 276 187 276 187 250 c 0,7,8
 187 152 187 152 215.5 88.5 c 128,-1,9
 244 25 244 25 301.5 25 c 0,10,11
 359 25 359 25 394 67.5 c 128,-1,12
 429 110 429 110 456 205 c 0,13,14
 458 213 458 213 463 213 c 0,15,16
 477 213 477 213 494 199 c 1,17,18
 448 -33 448 -33 285 -33 c 0,19,20
 112 -33 112 -33 106 299 c 1,21,-1
 86 303 l 1,22,23
 77 306 77 306 68.5 323.5 c 128,-1,24
 60 341 60 341 59 351 c 1,25,-1
 64 357 l 1,26,27
 91 353 91 353 107 352 c 1,28,29
 112 506 112 506 125 582 c 1,30,-1
 101 588 l 1,31,32
 92 594 92 594 86.5 607.5 c 128,-1,33
 81 621 81 621 81 627 c 0,34,35
 81 633 81 633 83 633 c 2,36,-1
 154 627 l 1,37,-1
 227 677 l 1,38,-1
 253 661 l 1,39,-1
 241 626 l 1,40,41
 393 628 393 628 490 677 c 1,42,-1
 507 651 l 1,43,-1
 474 565 l 1,44,45
 404 556 404 556 341 556 c 0,46,47
 278 556 278 556 226 563 c 1,48,49
 202 461 202 461 192 349 c 1,50,-1
 215 349 l 2,51,52
 323 349 323 349 412 384 c 1,53,-1
 421 367 l 1,0,-1
184 779 m 0,54,55
 184 839 184 839 269 851 c 1,56,57
 298 828 298 828 298 794.5 c 0,58,59
 298 761 298 761 278 743.5 c 128,-1,60
 258 726 258 726 234 726 c 0,61,62
 210 726 210 726 197 742.5 c 128,-1,63
 184 759 184 759 184 779 c 0,54,55
371 779 m 0,64,65
 371 839 371 839 456 851 c 1,66,67
 485 828 485 828 485 794.5 c 0,68,69
 485 761 485 761 465 743.5 c 128,-1,70
 445 726 445 726 421 726 c 0,71,72
 397 726 397 726 384 742.5 c 128,-1,73
 371 759 371 759 371 779 c 0,64,65
EndSplineSet
EndChar

StartChar: Oacute
Encoding: 211 211 156
Width: 581
Flags: HMW
HStem: -34 83<253.5 299 253.5 375.5> 874 20G<423 423>
VStem: 30 96<214.5 347>
LayerCount: 2
Fore
SplineSet
448 676 m 1,0,-1
 465 651 l 1,1,-1
 436 593 l 1,2,3
 486 550 486 550 518.5 470 c 128,-1,4
 551 390 551 390 551 314 c 128,-1,5
 551 238 551 238 535.5 180.5 c 128,-1,6
 520 123 520 123 489 73.5 c 128,-1,7
 458 24 458 24 402.5 -5 c 128,-1,8
 347 -34 347 -34 274 -34 c 0,9,10
 170 -34 170 -34 100 45 c 128,-1,11
 30 124 30 124 30 263 c 0,12,13
 30 402.760869565 30 402.760869565 118 518.5 c 0,14,15
 164 579 164 579 249 621.5 c 128,-1,16
 334 664 334 664 448 676 c 1,0,-1
299 49 m 1,17,18
 390 52 390 52 438.5 117 c 128,-1,19
 487 182 487 182 487 269.5 c 128,-1,20
 487 357 487 357 458 444 c 128,-1,21
 429 531 429 531 377 583 c 1,22,23
 250 565 250 565 188 488.5 c 128,-1,24
 126 412 126 412 126 296.5 c 128,-1,25
 126 181 126 181 176.5 115 c 128,-1,26
 227 49 227 49 299 49 c 1,17,18
439 884 m 1,27,-1
 451 797 l 1,28,29
 408 760 408 760 366 738.5 c 128,-1,30
 324 717 324 717 265 699 c 1,31,32
 257 700 257 700 244.5 713.5 c 128,-1,33
 232 727 232 727 232 737 c 1,34,35
 346 789 346 789 423 894 c 1,36,-1
 439 884 l 1,27,-1
EndSplineSet
EndChar

StartChar: Otilde
Encoding: 213 213 158
Width: 581
Flags: HMW
HStem: -34 83<253.5 299 253.5 375.5> 735 100<254.5 394> 752 83<271.5 293> 830 20G<456 463.5>
VStem: 30 96<214.5 347>
LayerCount: 2
Fore
SplineSet
448 676 m 1,0,-1
 465 651 l 1,1,-1
 436 593 l 1,2,3
 486 550 486 550 518.5 470 c 128,-1,4
 551 390 551 390 551 314 c 128,-1,5
 551 238 551 238 535.5 180.5 c 128,-1,6
 520 123 520 123 489 73.5 c 128,-1,7
 458 24 458 24 402.5 -5 c 128,-1,8
 347 -34 347 -34 274 -34 c 0,9,10
 170 -34 170 -34 100 45 c 128,-1,11
 30 124 30 124 30 263 c 0,12,13
 30 402.760869565 30 402.760869565 118 518.5 c 0,14,15
 164 579 164 579 249 621.5 c 128,-1,16
 334 664 334 664 448 676 c 1,0,-1
299 49 m 1,17,18
 390 52 390 52 438.5 117 c 128,-1,19
 487 182 487 182 487 269.5 c 128,-1,20
 487 357 487 357 458 444 c 128,-1,21
 429 531 429 531 377 583 c 1,22,23
 250 565 250 565 188 488.5 c 128,-1,24
 126 412 126 412 126 296.5 c 128,-1,25
 126 181 126 181 176.5 115 c 128,-1,26
 227 49 227 49 299 49 c 1,17,18
217 723 m 1,27,-1
 203 731 l 1,28,-1
 185 783 l 1,29,30
 197 805 197 805 221.5 820 c 128,-1,31
 246 835 246 835 271.5 835 c 128,-1,32
 297 835 297 835 329.5 820.5 c 128,-1,33
 362 806 362 806 382 806 c 0,34,35
 426 806 426 806 456 850 c 1,36,37
 466 850 466 850 474 843 c 128,-1,38
 482 836 482 836 482 829 c 1,39,40
 442 735 442 735 373 735 c 0,41,42
 349 735 349 735 320 743.5 c 128,-1,43
 291 752 291 752 280 752 c 0,44,45
 253 752 253 752 217 723 c 1,27,-1
EndSplineSet
EndChar

StartChar: Ydieresis
Encoding: 376 376 160
Width: 449
Flags: HMW
HStem: -34 21G<223 231.5> 831 20G
VStem: 117 115 304 114<770 798>
LayerCount: 2
Fore
SplineSet
112 677 m 1,0,-1
 138 661 l 1,1,2
 138 477 138 477 189 312 c 1,3,4
 206 350 206 350 282 474 c 128,-1,5
 358 598 358 598 412 665 c 0,6,7
 424 679 424 679 455 679 c 0,8,9
 461 679 461 679 461 674.5 c 128,-1,10
 461 670 461 670 416.5 597.5 c 128,-1,11
 372 525 372 525 316 415 c 128,-1,12
 260 305 260 305 238 218 c 1,13,14
 232 160 232 160 232 103.5 c 0,15,16
 232 15 232 15 235 -19.5 c 2,17,-1
 236 -31 l 2,18,19
 236 -34 236 -34 227.5 -34 c 128,-1,20
 219 -34 219 -34 203.5 -29.5 c 128,-1,21
 188 -25 188 -25 183 -19 c 1,22,23
 162 93 162 93 160 216 c 1,24,25
 114 314 114 314 74 435.5 c 128,-1,26
 34 557 34 557 25 636 c 1,27,-1
 112 677 l 1,0,-1
117 779 m 0,28,29
 117 839 117 839 202 851 c 1,30,31
 231 828 231 828 231 794.5 c 128,-1,32
 231 761 231 761 211 743.5 c 128,-1,33
 191 726 191 726 167 726 c 128,-1,34
 143 726 143 726 130 742.5 c 128,-1,35
 117 759 117 759 117 779 c 0,28,29
304 779 m 0,36,37
 304 839 304 839 389 851 c 1,38,39
 418 828 418 828 418 794.5 c 128,-1,40
 418 761 418 761 398 743.5 c 128,-1,41
 378 726 378 726 354 726 c 128,-1,42
 330 726 330 726 317 742.5 c 128,-1,43
 304 759 304 759 304 779 c 0,36,37
EndSplineSet
EndChar

StartChar: perthousand
Encoding: 8240 8240 161
Width: 1108
Flags: HMW
HStem: -103 21G<227 235.5> -20 21G<572.5 645.5 891.5 964.5> 718 20G<624 624>
VStem: 711 147<156 227 138.5 244.5>
LayerCount: 2
Fore
SplineSet
287 616 m 128,-1,1
 319 565 319 565 319 467 c 128,-1,2
 319 369 319 369 273.5 304 c 128,-1,3
 228 239 228 239 163 239 c 0,4,5
 114 239 114 239 82 290 c 128,-1,6
 50 341 50 341 50 439 c 128,-1,7
 50 537 50 537 95.5 602 c 128,-1,8
 141 667 141 667 205 667 c 0,9,0
 255 667 255 667 287 616 c 128,-1,1
127.5 550 m 128,-1,11
 99 507 99 507 99 442.5 c 128,-1,12
 99 378 99 378 120 344.5 c 128,-1,13
 141 311 141 311 177.5 311 c 128,-1,14
 214 311 214 311 242.5 352.5 c 128,-1,15
 271 394 271 394 271 458.5 c 128,-1,16
 271 523 271 523 250 558 c 128,-1,17
 229 593 229 593 192.5 593 c 128,-1,10
 156 593 156 593 127.5 550 c 128,-1,11
727 357 m 128,-1,19
 759 306 759 306 759 208 c 128,-1,20
 759 110 759 110 713.5 45 c 128,-1,21
 668 -20 668 -20 603 -20 c 0,22,23
 554 -20 554 -20 522 31 c 128,-1,24
 490 82 490 82 490 180 c 128,-1,25
 490 278 490 278 535.5 343 c 128,-1,26
 581 408 581 408 645 408 c 0,27,18
 695 408 695 408 727 357 c 128,-1,19
567.5 291 m 128,-1,29
 539 248 539 248 539 183.5 c 128,-1,30
 539 119 539 119 560 85.5 c 128,-1,31
 581 52 581 52 617.5 52 c 128,-1,32
 654 52 654 52 682.5 93.5 c 128,-1,33
 711 135 711 135 711 199.5 c 128,-1,34
 711 264 711 264 690 299 c 128,-1,35
 669 334 669 334 632.5 334 c 128,-1,28
 596 334 596 334 567.5 291 c 128,-1,29
1046 357 m 128,-1,37
 1078 306 1078 306 1078 208 c 128,-1,38
 1078 110 1078 110 1032.5 45 c 128,-1,39
 987 -20 987 -20 922 -20 c 0,40,41
 873 -20 873 -20 841 31 c 128,-1,42
 809 82 809 82 809 180 c 128,-1,43
 809 278 809 278 854.5 343 c 128,-1,44
 900 408 900 408 964 408 c 0,45,36
 1014 408 1014 408 1046 357 c 128,-1,37
886.5 291 m 128,-1,47
 858 248 858 248 858 183.5 c 128,-1,48
 858 119 858 119 879 85.5 c 128,-1,49
 900 52 900 52 936.5 52 c 128,-1,50
 973 52 973 52 1001.5 93.5 c 128,-1,51
 1030 135 1030 135 1030 199.5 c 128,-1,52
 1030 264 1030 264 1009 299 c 128,-1,53
 988 334 988 334 951.5 334 c 128,-1,46
 915 334 915 334 886.5 291 c 128,-1,47
244 -98 m 0,54,55
 242 -103 242 -103 232 -103 c 0,56,57
 210 -103 210 -103 196 -81 c 1,58,59
 397 401 397 401 541 716 c 1,60,-1
 624 738 l 1,61,-1
 656 712 l 1,62,63
 556.936474325 554.307040762 556.936474325 554.307040762 490.968237163 421.653520381 c 128,-1,64
 425 289 425 289 397 231 c 128,-1,65
 369 173 369 173 317 59.5 c 128,-1,66
 265 -54 265 -54 244 -98 c 0,54,55
EndSplineSet
EndChar

StartChar: Iacute
Encoding: 205 205 163
Width: 261
Flags: HMW
HStem: -33 21G<94.5 103.5> 874 20G<212 212>
VStem: 109 87
LayerCount: 2
Fore
SplineSet
144 -17 m 1,0,1
 138 -23 138 -23 122.5 -28 c 128,-1,2
 107 -33 107 -33 98.5 -33 c 0,3,4
 90 -33 90 -33 90 -29 c 0,5,6
 109 100 109 100 109 235 c 0,7,8
 109 475 109 475 80 659 c 1,9,-1
 106 677 l 1,10,-1
 196 631 l 1,11,12
 191 470 191 470 177 273.5 c 128,-1,13
 163 77 163 77 144 -17 c 1,0,1
228 884 m 1,14,-1
 240 797 l 1,15,16
 197 760 197 760 155 738.5 c 128,-1,17
 113 717 113 717 54 699 c 1,18,19
 46 700 46 700 33.5 713.5 c 128,-1,20
 21 727 21 727 21 737 c 1,21,22
 135 789 135 789 212 894 c 1,23,-1
 228 884 l 1,14,-1
EndSplineSet
EndChar

StartChar: Idieresis
Encoding: 207 207 165
Width: 261
Flags: HMW
HStem: -33 21G<94.5 103.5> 831 20G
VStem: -8 114<770 798> 109 87 179 114<770 798>
LayerCount: 2
Fore
SplineSet
144 -17 m 1,0,1
 138 -23 138 -23 122.5 -28 c 128,-1,2
 107 -33 107 -33 98.5 -33 c 0,3,4
 90 -33 90 -33 90 -29 c 0,5,6
 109 100 109 100 109 235 c 0,7,8
 109 475 109 475 80 659 c 1,9,-1
 106 677 l 1,10,-1
 196 631 l 1,11,12
 191 470 191 470 177 273.5 c 128,-1,13
 163 77 163 77 144 -17 c 1,0,1
-8 779 m 0,14,15
 -8 839 -8 839 77 851 c 1,16,17
 106 828 106 828 106 794.5 c 0,18,19
 106 761 106 761 86 743.5 c 128,-1,20
 66 726 66 726 42 726 c 0,21,22
 18 726 18 726 5 742.5 c 128,-1,23
 -8 759 -8 759 -8 779 c 0,14,15
179 779 m 0,24,25
 179 839 179 839 264 851 c 1,26,27
 293 828 293 828 293 794.5 c 0,28,29
 293 761 293 761 273 743.5 c 128,-1,30
 253 726 253 726 229 726 c 0,31,32
 205 726 205 726 192 742.5 c 128,-1,33
 179 759 179 759 179 779 c 0,24,25
EndSplineSet
EndChar

StartChar: Uacute
Encoding: 218 218 167
Width: 611
Flags: HMW
HStem: -34 21G<522 530.5> -33 84<250 320> 874 20G<437 437>
VStem: 80 90<253.5 368 237.5 409> 436 84<211.5 470.5>
LayerCount: 2
Fore
SplineSet
218 636 m 1,0,1
 200 579 200 579 185 485.5 c 128,-1,2
 170 392 170 392 170 305 c 0,3,4
 170 51 170 51 300 51 c 0,5,6
 359 51 359 51 396 112 c 128,-1,7
 433 173 433 173 445 260 c 1,8,9
 436 347 436 347 436 443 c 128,-1,10
 436 539 436 539 455 661 c 1,11,-1
 481 677 l 1,12,-1
 566 636 l 1,13,14
 520 518 520 518 520 273 c 0,15,16
 520 91 520 91 535 -31 c 0,17,18
 535 -34 535 -34 527 -34 c 0,19,20
 501 -34 501 -34 488 -19 c 1,21,22
 467 85 467 85 457 159 c 1,23,24
 407 -33 407 -33 267 -33 c 0,25,26
 213 -33 213 -33 175 -1 c 128,-1,27
 137 31 137 31 117 87.5 c 0,28,29
 80 192.025 80 192.025 80 345.5125 c 128,-1,30
 80 499 80 499 107 661 c 1,31,-1
 133 677 l 1,32,-1
 218 636 l 1,0,1
453 884 m 1,33,-1
 465 797 l 1,34,35
 422 760 422 760 380 738.5 c 128,-1,36
 338 717 338 717 279 699 c 1,37,38
 271 700 271 700 258.5 713.5 c 128,-1,39
 246 727 246 727 246 737 c 1,40,41
 360 789 360 789 437 894 c 1,42,-1
 453 884 l 1,33,-1
EndSplineSet
EndChar

StartChar: Udieresis
Encoding: 220 220 169
Width: 611
Flags: HMW
HStem: -34 21G<522 530.5> -33 84<250 320> 831 20G
VStem: 80 90<253.5 368 237.5 409> 193 114<770 798> 380 114<770 798> 436 84<211.5 470.5>
LayerCount: 2
Fore
SplineSet
218 636 m 1,0,1
 200 579 200 579 185 485.5 c 128,-1,2
 170 392 170 392 170 305 c 0,3,4
 170 51 170 51 300 51 c 0,5,6
 359 51 359 51 396 112 c 128,-1,7
 433 173 433 173 445 260 c 1,8,9
 436 347 436 347 436 443 c 128,-1,10
 436 539 436 539 455 661 c 1,11,-1
 481 677 l 1,12,-1
 566 636 l 1,13,14
 520 518 520 518 520 273 c 0,15,16
 520 91 520 91 535 -31 c 0,17,18
 535 -34 535 -34 527 -34 c 0,19,20
 501 -34 501 -34 488 -19 c 1,21,22
 467 85 467 85 457 159 c 1,23,24
 407 -33 407 -33 267 -33 c 0,25,26
 213 -33 213 -33 175 -1 c 128,-1,27
 137 31 137 31 117 87.5 c 0,28,29
 80 192.025 80 192.025 80 345.5125 c 128,-1,30
 80 499 80 499 107 661 c 1,31,-1
 133 677 l 1,32,-1
 218 636 l 1,0,1
193 779 m 0,33,34
 193 839 193 839 278 851 c 1,35,36
 307 828 307 828 307 794.5 c 128,-1,37
 307 761 307 761 287 743.5 c 128,-1,38
 267 726 267 726 243 726 c 128,-1,39
 219 726 219 726 206 742.5 c 128,-1,40
 193 759 193 759 193 779 c 0,33,34
380 779 m 0,41,42
 380 839 380 839 465 851 c 1,43,44
 494 828 494 828 494 794.5 c 128,-1,45
 494 761 494 761 474 743.5 c 128,-1,46
 454 726 454 726 430 726 c 128,-1,47
 406 726 406 726 393 742.5 c 128,-1,48
 380 759 380 759 380 779 c 0,41,42
EndSplineSet
EndChar

StartChar: Yacute
Encoding: 221 221 170
Width: 449
Flags: HMW
HStem: -34 21G<223 231.5> 874 20G<342 342>
LayerCount: 2
Fore
SplineSet
112 677 m 1,0,-1
 138 661 l 1,1,2
 138 477 138 477 189 312 c 1,3,4
 206 350 206 350 282 474 c 128,-1,5
 358 598 358 598 412 665 c 0,6,7
 424 679 424 679 455 679 c 0,8,9
 461 679 461 679 461 674.5 c 128,-1,10
 461 670 461 670 416.5 597.5 c 128,-1,11
 372 525 372 525 316 415 c 128,-1,12
 260 305 260 305 238 218 c 1,13,14
 232 160 232 160 232 103.5 c 0,15,16
 232 15 232 15 235 -19.5 c 2,17,-1
 236 -31 l 2,18,19
 236 -34 236 -34 227.5 -34 c 128,-1,20
 219 -34 219 -34 203.5 -29.5 c 128,-1,21
 188 -25 188 -25 183 -19 c 1,22,23
 162 93 162 93 160 216 c 1,24,25
 114 314 114 314 74 435.5 c 128,-1,26
 34 557 34 557 25 636 c 1,27,-1
 112 677 l 1,0,-1
358 884 m 1,28,-1
 370 797 l 1,29,30
 327 760 327 760 285 738.5 c 128,-1,31
 243 717 243 717 184 699 c 1,32,33
 176 700 176 700 163.5 713.5 c 128,-1,34
 151 727 151 727 151 737 c 1,35,36
 265 789 265 789 342 894 c 1,37,-1
 358 884 l 1,28,-1
EndSplineSet
EndChar

StartChar: mu
Encoding: 181 181 171
Width: 511
Flags: HMW
HStem: -226 21G<112 121> -28 21G<445 452.5> -1 91<191 227.5 181.5 232.5> 473 20G<439 439>
VStem: 350 81<219.5 365.5>
LayerCount: 2
Fore
SplineSet
159 468 m 0,0,1
 145 335 145 335 145 255 c 0,2,3
 145 90 145 90 204 90 c 0,4,5
 241 90 241 90 281 143 c 128,-1,6
 321 196 321 196 351 293 c 1,7,8
 350 309 350 309 350 358 c 0,9,10
 350 407 350 407 359 458 c 1,11,-1
 439 493 l 1,12,-1
 464 479 l 1,13,14
 431 382 431 382 431 255 c 0,15,16
 431 200 431 200 439.5 104 c 128,-1,17
 448 8 448 8 457 -25 c 0,18,19
 457 -28 457 -28 441.5 -28 c 0,20,21
 426 -28 426 -28 412 -14 c 1,22,23
 382 58 382 58 361 203 c 1,24,25
 278 -1 278 -1 202 -1 c 0,26,27
 168 -1 168 -1 136 42 c 1,28,29
 126 -26 126 -26 126 -103 c 0,30,31
 126 -180 126 -180 127 -202 c 0,32,33
 128 -224 128 -224 126 -225 c 128,-1,34
 124 -226 124 -226 108.5 -226 c 0,35,36
 93 -226 93 -226 86 -214 c 1,37,38
 69 -72 69 -72 69 47 c 0,39,40
 69 232 69 232 109 458 c 1,41,42
 114 463 114 463 129 467.5 c 128,-1,43
 144 472 144 472 151.5 472 c 0,44,45
 159 472 159 472 159 468 c 0,0,1
EndSplineSet
EndChar

StartChar: equal
Encoding: 61 61 172
Width: 500
Flags: HMW
HStem: 190 21G<451 451> 208 82<298 299.5> 379 87<343.5 352.5>
LayerCount: 2
Fore
SplineSet
449 283 m 1,0,-1
 463 227 l 1,1,-1
 451 190 l 1,2,3
 361 208 361 208 260.5 208 c 0,4,5
 160 208 160 208 54 194 c 0,6,7
 49 194 49 194 49 218 c 0,8,9
 49 242 49 242 53 251 c 1,10,11
 233 290 233 290 340 290 c 0,12,13
 394 290 394 290 449 283 c 1,0,-1
440 464 m 1,14,-1
 458 410 l 1,15,-1
 449 372 l 1,16,17
 377 379 377 379 334 379 c 0,18,19
 208 379 208 379 53 346 c 1,20,21
 46 346 46 346 46 371 c 0,22,23
 46 396 46 396 48 404 c 1,24,25
 268 466 268 466 397 466 c 0,26,27
 426 466 426 466 440 464 c 1,14,-1
EndSplineSet
EndChar

StartChar: plus
Encoding: 43 43 173
Width: 500
Flags: HMW
HStem: 119 21G<275 286.5> 299 86<325.5 404.5> 513 20G<265 265>
VStem: 202 81
LayerCount: 2
Fore
SplineSet
209 519 m 1,0,-1
 265 533 l 1,1,-1
 301 521 l 1,2,3
 286 444 286 444 283 377 c 1,4,5
 345 385 345 385 385.5 385 c 0,6,7
 426 385 426 385 440 384 c 1,8,-1
 458 329 l 1,9,-1
 449 291 l 1,10,11
 383 299 383 299 351 299 c 0,12,13
 319 299 319 299 283 297 c 1,14,15
 286 213 286 213 298 124 c 0,16,17
 298 119 298 119 274.5 119 c 0,18,19
 251 119 251 119 240 123 c 1,20,21
 217 226 217 226 210 291 c 1,22,23
 154 285 154 285 54 265 c 1,24,25
 46 265 46 265 46 290 c 0,26,27
 46 315 46 315 48 323 c 1,28,29
 133 348 133 348 203 362 c 1,30,31
 202 378 202 378 202 421 c 0,32,33
 202 464 202 464 209 519 c 1,0,-1
EndSplineSet
EndChar

StartChar: minus
Encoding: 8722 8722 174
Width: 500
Flags: HMW
HStem: 265 21G<52 54> 299 86<343.5 352.5>
LayerCount: 2
Fore
SplineSet
440 384 m 1,0,-1
 458 329 l 1,1,-1
 449 291 l 1,2,3
 383 299 383 299 334 299 c 0,4,5
 212 299 212 299 54 265 c 1,6,7
 46 265 46 265 46 290.5 c 0,8,9
 46 316 46 316 48 323 c 1,10,11
 263 385 263 385 397 385 c 0,12,13
 426 385 426 385 440 384 c 1,0,-1
EndSplineSet
EndChar

StartChar: plusminus
Encoding: 177 177 175
Width: 500
Flags: HMW
HStem: 30 21G<52 54> 64 86<343.5 352.5> 402 86<325.5 404.5> 616 20G<265 265>
VStem: 202 81
LayerCount: 2
Fore
SplineSet
209 622 m 1,0,-1
 265 636 l 1,1,-1
 301 624 l 1,2,3
 286 547 286 547 283 480 c 1,4,5
 345 488 345 488 385.5 488 c 0,6,7
 426 488 426 488 440 487 c 1,8,-1
 458 432 l 1,9,-1
 449 394 l 1,10,11
 383 402 383 402 351 402 c 0,12,13
 319 402 319 402 283 400 c 1,14,15
 286 316 286 316 298 227 c 0,16,17
 298 222 298 222 274.5 222 c 0,18,19
 251 222 251 222 240 226 c 1,20,21
 217 329 217 329 210 394 c 1,22,23
 154 388 154 388 54 368 c 1,24,25
 46 368 46 368 46 393 c 0,26,27
 46 418 46 418 48 426 c 1,28,29
 133 451 133 451 203 465 c 1,30,31
 202 481 202 481 202 524 c 0,32,33
 202 567 202 567 209 622 c 1,0,-1
440 149 m 1,34,-1
 458 94 l 1,35,-1
 449 56 l 1,36,37
 383 64 383 64 334 64 c 0,38,39
 212 64 212 64 54 30 c 1,40,41
 46 30 46 30 46 55.5 c 0,42,43
 46 81 46 81 48 88 c 1,44,45
 263 150 263 150 397 150 c 0,46,47
 426 150 426 150 440 149 c 1,34,-1
EndSplineSet
EndChar

StartChar: multiply
Encoding: 215 215 176
Width: 500
Flags: HMW
HStem: 124 21G<107 108> 505 20G<140 140>
LayerCount: 2
Fore
SplineSet
73 466 m 1,0,-1
 106 510 l 1,1,-1
 140 525 l 1,2,3
 182 452 182 452 236 382 c 1,4,5
 315 471 315 471 385 517 c 1,6,-1
 433 487 l 1,7,-1
 450 453 l 1,8,9
 370 400 370 400 285 322 c 1,10,11
 364 230 364 230 444 164 c 0,12,13
 445 163 445 163 445 159.5 c 0,14,15
 445 156 445 156 430.5 144 c 128,-1,16
 416 132 416 132 402 127 c 1,17,18
 310 197 310 197 233 271 c 1,19,20
 166 203 166 203 111 126 c 0,21,22
 109 124 109 124 106 124.5 c 0,23,24
 103 125 103 125 89.5 139 c 128,-1,25
 76 153 76 153 71 166 c 1,26,27
 119 240 119 240 184 320 c 1,28,29
 110 399 110 399 73 466 c 1,0,-1
EndSplineSet
EndChar

StartChar: three
Encoding: 51 51 177
Width: 500
Flags: HMW
HStem: -39 21G<167.5 254.5> 625 20G<180 237.5>
VStem: 323 109<120 202.5>
LayerCount: 2
Fore
SplineSet
62 537 m 1,0,-1
 50 565 l 1,1,-1
 87 637 l 1,2,3
 143 645 143 645 199 645 c 0,4,5
 331 645 331 645 418 606 c 1,6,7
 431 593 431 593 431 566 c 1,8,9
 354 454 354 454 213 348 c 1,10,11
 233 350 233 350 242 350 c 0,12,13
 325 350 325 350 378.5 299.5 c 128,-1,14
 432 249 432 249 432 161 c 0,15,16
 432 73 432 73 361.5 17 c 128,-1,17
 291 -39 291 -39 199.5 -39 c 0,18,19
 108 -39 108 -39 31 4 c 1,20,21
 31 15 31 15 37.5 32.5 c 128,-1,22
 44 50 44 50 50 50 c 1,23,24
 109 16 109 16 171.5 16 c 0,25,26
 234 16 234 16 278.5 57 c 128,-1,27
 323 98 323 98 323 159.5 c 0,28,29
 323 221 323 221 289.5 255.5 c 128,-1,30
 256 290 256 290 206.5 290 c 0,31,32
 157 290 157 290 106 266 c 1,33,-1
 86 302 l 2,34,35
 85 302 85 302 85 303 c 2,36,-1
 85 304 l 1,37,38
 161 368 161 368 218.5 429.5 c 128,-1,39
 276 491 276 491 332 576 c 1,40,41
 320 577 320 577 294 577 c 0,42,43
 146 577 146 577 62 537 c 1,0,-1
EndSplineSet
EndChar

StartChar: threesuperior
Encoding: 179 179 178
Width: 300
Flags: HMW
HStem: 418 21G<99.5 153> 810 20G<107.5 141>
LayerCount: 2
Fore
SplineSet
144 659 m 1,0,-1
 146 653 l 1,1,2
 198 650 198 650 230 620.5 c 128,-1,3
 262 591 262 591 262 539 c 0,4,5
 262 487 262 487 218.5 452.5 c 128,-1,6
 175 418 175 418 117.5 418 c 0,7,8
 60 418 60 418 13 445 c 1,9,10
 13 455 13 455 19.5 469 c 128,-1,11
 26 483 26 483 33 483 c 1,12,13
 66 463 66 463 100.5 463 c 0,14,15
 135 463 135 463 159 485 c 128,-1,16
 183 507 183 507 183 542 c 0,17,18
 183 577 183 577 163.5 594 c 128,-1,19
 144 611 144 611 114 611 c 128,-1,20
 84 611 84 611 58 598 c 1,21,-1
 43 625 l 1,22,23
 130 700 130 700 182 777 c 1,24,25
 89 777 89 777 34 751 c 1,26,-1
 23 777 l 1,27,-1
 48 824 l 1,28,29
 84 830 84 830 118 830 c 0,30,31
 193 830 193 830 251 806 c 1,32,33
 262 793 262 793 262 775 c 1,34,35
 227 723 227 723 144 659 c 1,0,-1
EndSplineSet
EndChar

StartChar: periodcentered
Encoding: 183 183 179
Width: 212
Flags: HMW
HStem: 199 21G<79 117> 328 20G
VStem: 39 138<250.5 284.5>
LayerCount: 2
Fore
SplineSet
55 218 m 128,-1,1
 39 237 39 237 39 266.5 c 128,-1,2
 39 296 39 296 66 318.5 c 128,-1,3
 93 341 93 341 142 348 c 1,4,5
 177 321 177 321 177 280.5 c 128,-1,6
 177 240 177 240 153 219.5 c 128,-1,7
 129 199 129 199 100 199 c 128,-1,0
 71 199 71 199 55 218 c 128,-1,1
EndSplineSet
EndChar

StartChar: brokenbar
Encoding: 166 166 180
Width: 316
Flags: HMW
HStem: -114 21G<132 142> 730 20G<152 152>
LayerCount: 2
Fore
SplineSet
167 260 m 0,0,1
 184 260 184 260 184 241 c 0,2,3
 184 233 184 233 181 196.5 c 0,4,5
 173 99.1666666667 173 99.1666666667 173 -95 c 1,6,7
 160 -114 160 -114 137 -114 c 0,8,9
 129 -114 129 -114 125 -101.5 c 128,-1,10
 121 -89 121 -89 115.5 2 c 128,-1,11
 110 93 110 93 108 241 c 1,12,13
 133 260 133 260 167 260 c 0,0,1
197 427 m 1,14,15
 170 403 170 403 129 403 c 0,16,17
 118 403 118 403 114 413.5 c 128,-1,18
 110 424 110 424 110 498.5 c 128,-1,19
 110 573 110 573 126 735 c 1,20,-1
 152 750 l 1,21,-1
 236 695 l 1,22,23
 213 601 213 601 197 427 c 1,14,15
EndSplineSet
EndChar

StartChar: bar
Encoding: 124 124 181
Width: 316
Flags: HMW
HStem: -114 21G<132 142> 730 20G<152 152>
LayerCount: 2
Fore
SplineSet
114 36 m 128,-1,1
 108 146 108 146 108 349 c 128,-1,2
 108 552 108 552 126 735 c 1,3,-1
 152 750 l 1,4,-1
 236 695 l 1,5,6
 208 580 208 580 190.5 346 c 128,-1,7
 173 112 173 112 173 -94 c 1,8,9
 160 -114 160 -114 137 -114 c 0,10,11
 126.666666667 -114 126.666666667 -114 123.333333333 -94 c 128,-1,0
 120 -74 120 -74 114 36 c 128,-1,1
EndSplineSet
EndChar

StartChar: fi
Encoding: 64257 64257 182
Width: 499
Flags: HMW
HStem: -110 21G<84.5 94> -13 21G<344 351> 678 20G<266.5 337.5>
VStem: 364 81<219.5 391>
LayerCount: 2
Fore
SplineSet
458 595 m 1,0,-1
 434 577 l 1,1,2
 344 648 344 648 277 648 c 0,3,4
 179 648 179 648 179 497 c 0,5,6
 179 486 179 486 178.5 463 c 128,-1,7
 178 440 178 440 178 428 c 1,8,9
 306 444 306 444 362 485 c 1,10,-1
 443 446 l 1,11,12
 445 402 445 402 445 380 c 0,13,14
 445 212 445 212 384 1 c 1,15,16
 370 -13 370 -13 355 -13 c 0,17,18
 340 -13 340 -13 340 -9 c 0,19,20
 364 134 364 134 364 233.5 c 0,21,22
 364 333 364 333 354 395 c 1,23,24
 326 380 326 380 271.5 371.5 c 128,-1,25
 217 363 217 363 176 362 c 1,26,27
 167 150 167 150 130 -93 c 1,28,29
 113 -110 113 -110 88 -110 c 0,30,31
 80 -110 80 -110 80 -105 c 0,32,33
 105 90 105 90 105 308 c 0,34,35
 105 347 105 347 104 365 c 1,36,37
 73 367 73 367 31 378 c 1,38,39
 24 381 24 381 18 398 c 128,-1,40
 12 415 12 415 11 426 c 1,41,-1
 14 432 l 1,42,43
 54 424 54 424 102 424 c 1,44,45
 101 440 101 440 91 543 c 1,46,47
 146 698 146 698 313 698 c 0,48,49
 372 698 372 698 435 681 c 1,50,-1
 458 595 l 1,0,-1
EndSplineSet
EndChar

StartChar: fl
Encoding: 64258 64258 183
Width: 529
Flags: HMW
HStem: -110 21G<84.5 94> 678 20G<266.5 337.5>
LayerCount: 2
Fore
SplineSet
80 -105 m 0,0,1
 105 90 105 90 105 308 c 0,2,3
 105 347 105 347 104 365 c 1,4,5
 73 367 73 367 31 378 c 1,6,7
 24 381 24 381 18 398 c 128,-1,8
 12 415 12 415 11 426 c 1,9,-1
 14 432 l 1,10,11
 54 424 54 424 102 424 c 1,12,13
 101 440 101 440 91 543 c 1,14,15
 146 698 146 698 313 698 c 0,16,17
 372 698 372 698 461 674 c 1,18,19
 471 603 471 603 471 492 c 0,20,21
 471 381 471 381 451 236 c 128,-1,22
 431 91 431 91 402 -14 c 1,23,24
 396 -21 396 -21 381 -26 c 128,-1,25
 366 -31 366 -31 357 -31 c 0,26,27
 348 -31 348 -31 348 -26 c 1,28,29
 395 174 395 174 395 379 c 0,30,31
 395 494 395 494 374 616 c 1,32,33
 321 649 321 649 277 649 c 128,-1,34
 233 649 233 649 206 612.5 c 128,-1,35
 179 576 179 576 179 497 c 0,36,37
 179 486 179 486 178.5 462.5 c 128,-1,38
 178 439 178 439 178 427 c 1,39,40
 237 434 237 434 299 459 c 1,41,-1
 308 442 l 1,42,-1
 278 373 l 1,43,44
 226 362 226 362 176 362 c 1,45,46
 167 150 167 150 130 -93 c 1,47,48
 113 -110 113 -110 88 -110 c 0,49,50
 80 -110 80 -110 80 -105 c 0,0,1
EndSplineSet
EndChar

StartChar: AE
Encoding: 198 198 184
Width: 764
Flags: HMW
HStem: -34 21G<0 8.5> -33 21G<454 577> 657 20G<346 722 722 722>
VStem: 328 82
LayerCount: 2
Fore
SplineSet
346 677 m 1,0,1
 426.190779014 635.054054054 426.190779014 635.054054054 533.14815656 635.054054054 c 128,-1,2
 640.105534106 635.054054054 640.105534106 635.054054054 722 677 c 1,3,-1
 739 651 l 1,4,-1
 706 565 l 1,5,6
 639.351351351 556.243243243 639.351351351 556.243243243 574.743243243 556.243243243 c 128,-1,7
 510.135135135 556.243243243 510.135135135 556.243243243 448 566 c 1,8,9
 414 413 414 413 410 305 c 1,10,11
 532 329 532 329 634 373 c 1,12,-1
 643 356 l 1,13,-1
 613 287 l 1,14,15
 505 261 505 261 410 247 c 1,16,17
 417 24 417 24 528.5 24 c 128,-1,18
 640 24 640 24 681 205 c 0,19,20
 683 213 683 213 688 213 c 0,21,22
 702 213 702 213 719 199 c 1,23,24
 678 -33 678 -33 515 -33 c 0,25,26
 354 -33 354 -33 332 237 c 1,27,28
 258.5 230.875 258.5 230.875 229.625 230.875 c 128,-1,29
 200.75 230.875 200.75 230.875 194 231 c 1,30,31
 118 86 118 86 48 -19 c 1,32,33
 30 -34 30 -34 10.9856770833 -33.7604166667 c 128,-1,34
 -8.02864583333 -33.5208333333 -8.02864583333 -33.5208333333 -8 -31 c 1,35,36
 77 126 77 126 130 236 c 1,37,38
 86 241 86 241 54 252 c 1,39,40
 39 269 39 269 39 282 c 128,-1,41
 39 295 39 295 42 295 c 0,42,43
 83 284 83 284 151 282 c 1,44,45
 246 489 246 489 273 627 c 1,46,-1
 346 677 l 1,0,1
220 282 m 1,47,48
 262 283 262 283 329 292 c 1,49,50
 328 310 328 310 328 384 c 128,-1,51
 328 458 328 458 344 561 c 1,52,53
 291 420 291 420 220 282 c 1,47,48
EndSplineSet
EndChar

StartChar: less
Encoding: 60 60 185
Width: 500
Flags: HMW
HStem: 96 21G<351 351> 483 20G<412 412>
LayerCount: 2
Fore
SplineSet
44 267 m 1,0,-1
 53 328 l 1,1,2
 278 410 278 410 412 503 c 1,3,-1
 442 492 l 1,4,-1
 455 424 l 1,5,6
 339 358 339 358 159 304 c 1,7,-1
 157 291 l 1,8,9
 328 232 328 232 416 171 c 1,10,-1
 382 107 l 1,11,-1
 351 96 l 1,12,13
 302 145 302 145 228.5 184 c 128,-1,14
 155 223 155 223 44 267 c 1,0,-1
EndSplineSet
EndChar

StartChar: greater
Encoding: 62 62 186
Width: 500
Flags: HMW
HStem: 96 21G<88 88> 483 20G<149 149>
LayerCount: 2
Fore
SplineSet
456 332 m 1,0,-1
 447 271 l 1,1,2
 222 189 222 189 88 96 c 1,3,-1
 58 107 l 1,4,-1
 45 175 l 1,5,6
 161 241 161 241 341 295 c 1,7,-1
 343 308 l 1,8,9
 172 367 172 367 84 428 c 1,10,-1
 118 492 l 1,11,-1
 149 503 l 1,12,13
 198 454 198 454 271.5 415 c 128,-1,14
 345 376 345 376 456 332 c 1,0,-1
EndSplineSet
EndChar

StartChar: guillemotleft
Encoding: 171 171 187
Width: 544
Flags: HMW
HStem: 44 21G<202 202 417 417> 465 20G<241 241 456 456>
LayerCount: 2
Fore
SplineSet
40 234 m 1,0,-1
 45 295 l 1,1,2
 99 330 99 330 141 372 c 128,-1,3
 183 414 183 414 241 485 c 1,4,-1
 259 473 l 1,5,-1
 269 386 l 1,6,7
 215 331 215 331 119 271 c 1,8,-1
 118 258 l 1,9,10
 177.672955975 215.110062893 177.672955975 215.110062893 202.336477987 192.055031447 c 128,-1,11
 227 169 227 169 248 143 c 1,12,-1
 222 56 l 1,13,-1
 202 44 l 1,14,15
 131 170 131 170 40 234 c 1,0,-1
255 234 m 1,16,-1
 260 295 l 1,17,18
 314 330 314 330 356 372 c 128,-1,19
 398 414 398 414 456 485 c 1,20,-1
 474 473 l 1,21,-1
 484 386 l 1,22,23
 430 331 430 331 334 271 c 1,24,-1
 333 258 l 1,25,26
 392.672955975 215.110062893 392.672955975 215.110062893 417.336477987 192.055031447 c 128,-1,27
 442 169 442 169 463 143 c 1,28,-1
 437 56 l 1,29,-1
 417 44 l 1,30,31
 346 170 346 170 255 234 c 1,16,-1
EndSplineSet
EndChar

StartChar: guillemotright
Encoding: 187 187 188
Width: 544
Flags: HMW
HStem: 44 21G<88 88 303 303> 465 20G<127 127 342 342>
LayerCount: 2
Fore
SplineSet
289 295 m 1,0,-1
 284 234 l 1,1,2
 230 199 230 199 188 157 c 128,-1,3
 146 115 146 115 88 44 c 1,4,-1
 70 56 l 1,5,-1
 60 143 l 1,6,7
 114 198 114 198 210 258 c 1,8,-1
 211 271 l 1,9,10
 151.327044025 313.889937107 151.327044025 313.889937107 126.663522013 336.944968553 c 128,-1,11
 102 360 102 360 81 386 c 1,12,-1
 107 473 l 1,13,-1
 127 485 l 1,14,15
 198 359 198 359 289 295 c 1,0,-1
504 295 m 1,16,-1
 499 234 l 1,17,18
 445 199 445 199 403 157 c 128,-1,19
 361 115 361 115 303 44 c 1,20,-1
 285 56 l 1,21,-1
 275 143 l 1,22,23
 329 198 329 198 425 258 c 1,24,-1
 426 271 l 1,25,26
 366.327044025 313.889937107 366.327044025 313.889937107 341.663522013 336.944968553 c 128,-1,27
 317 360 317 360 296 386 c 1,28,-1
 322 473 l 1,29,-1
 342 485 l 1,30,31
 413 359 413 359 504 295 c 1,16,-1
EndSplineSet
EndChar

StartChar: guilsinglleft
Encoding: 8249 8249 189
Width: 329
Flags: HMW
HStem: 44 21G<202 202> 465 20G<241 241>
LayerCount: 2
Fore
SplineSet
40 234 m 1,0,-1
 45 295 l 1,1,2
 99 330 99 330 141 372 c 128,-1,3
 183 414 183 414 241 485 c 1,4,-1
 259 473 l 1,5,-1
 269 386 l 1,6,7
 215 331 215 331 119 271 c 1,8,-1
 118 258 l 1,9,10
 177.672955975 215.110062893 177.672955975 215.110062893 202.336477987 192.055031447 c 128,-1,11
 227 169 227 169 248 143 c 1,12,-1
 222 56 l 1,13,-1
 202 44 l 1,14,15
 131 170 131 170 40 234 c 1,0,-1
EndSplineSet
EndChar

StartChar: guilsinglright
Encoding: 8250 8250 190
Width: 329
Flags: HMW
HStem: 44 21G<88 88> 465 20G<127 127>
LayerCount: 2
Fore
SplineSet
289 295 m 1,0,-1
 284 234 l 1,1,2
 230 199 230 199 188 157 c 128,-1,3
 146 115 146 115 88 44 c 1,4,-1
 70 56 l 1,5,-1
 60 143 l 1,6,7
 114 198 114 198 210 258 c 1,8,-1
 211 271 l 1,9,10
 151.327044025 313.889937107 151.327044025 313.889937107 126.663522013 336.944968553 c 128,-1,11
 102 360 102 360 81 386 c 1,12,-1
 107 473 l 1,13,-1
 127 485 l 1,14,15
 198 359 198 359 289 295 c 1,0,-1
EndSplineSet
EndChar

StartChar: lessequal
Encoding: 8804 8804 191
Width: 500
Flags: HMW
HStem: 30 21G<52 54> 64 86<343.5 352.5> 603 20G<412 412>
LayerCount: 2
Fore
SplineSet
44 387 m 1,0,-1
 53 448 l 1,1,2
 278 530 278 530 412 623 c 1,3,-1
 442 612 l 1,4,-1
 455 544 l 1,5,6
 339 478 339 478 159 424 c 1,7,-1
 157 411 l 1,8,9
 328 352 328 352 416 291 c 1,10,-1
 382 227 l 1,11,-1
 351 216 l 1,12,13
 302 265 302 265 228.5 304 c 128,-1,14
 155 343 155 343 44 387 c 1,0,-1
440 149 m 1,15,-1
 458 94 l 1,16,-1
 449 56 l 1,17,18
 383 64 383 64 334 64 c 0,19,20
 212 64 212 64 54 30 c 1,21,22
 46 30 46 30 46 55.5 c 0,23,24
 46 81 46 81 48 88 c 1,25,26
 263 150 263 150 397 150 c 0,27,28
 426 150 426 150 440 149 c 1,15,-1
EndSplineSet
EndChar

StartChar: greaterequal
Encoding: 8805 8805 192
Width: 500
Flags: HMW
HStem: 30 21G<52 54> 64 86<343.5 352.5> 603 20G<149 149>
LayerCount: 2
Fore
SplineSet
456 452 m 1,0,-1
 447 391 l 1,1,2
 222 309 222 309 88 216 c 1,3,-1
 58 227 l 1,4,-1
 45 295 l 1,5,6
 161 361 161 361 341 415 c 1,7,-1
 343 428 l 1,8,9
 172 487 172 487 84 548 c 1,10,-1
 118 612 l 1,11,-1
 149 623 l 1,12,13
 198 574 198 574 271.5 535 c 128,-1,14
 345 496 345 496 456 452 c 1,0,-1
440 149 m 1,15,-1
 458 94 l 1,16,-1
 449 56 l 1,17,18
 383 64 383 64 334 64 c 0,19,20
 212 64 212 64 54 30 c 1,21,22
 46 30 46 30 46 55.5 c 0,23,24
 46 81 46 81 48 88 c 1,25,26
 263 150 263 150 397 150 c 0,27,28
 426 150 426 150 440 149 c 1,15,-1
EndSplineSet
EndChar

StartChar: florin
Encoding: 402 402 193
Width: 500
Flags: HMW
HStem: -284 21G<-8 -8> 644 20G<461 461>
VStem: 166 93
LayerCount: 2
Fore
SplineSet
174 198 m 1,0,-1
 173 263 l 1,1,2
 129 266 129 266 85 275 c 1,3,4
 76 278 76 278 67.5 295.5 c 128,-1,5
 59 313 59 313 58 323 c 1,6,-1
 63 329 l 1,7,8
 108 323 108 323 170 321 c 1,9,10
 166 415 166 415 166 457 c 128,-1,11
 166 499 166 499 170.5 519.5 c 128,-1,12
 175 540 175 540 192.5 564.5 c 128,-1,13
 210 589 210 589 240.5 607 c 0,14,15
 311.018103448 648.617241379 311.018103448 648.617241379 461 664 c 1,16,-1
 477 638 l 1,17,-1
 445 552 l 1,18,19
 399 588 399 588 349 588 c 128,-1,20
 299 588 299 588 281 564 c 128,-1,21
 263 540 263 540 263 481 c 0,22,23
 263 376 263 376 261 322 c 1,24,25
 341 328 341 328 411 356 c 1,26,-1
 420 339 l 1,27,-1
 390 270 l 1,28,29
 332 259 332 259 266 259 c 2,30,-1
 259 259 l 1,31,32
 242.093041909 -82.5205534389 242.093041909 -82.5205534389 118 -209 c 0,33,34
 66 -262 66 -262 -8 -284 c 1,35,-1
 -33 -266 l 1,36,-1
 -10 -169 l 1,37,38
 9 -172 9 -172 25 -172 c 0,39,40
 71 -172 71 -172 102.5 -135 c 128,-1,41
 134 -98 134 -98 148.5 -36 c 0,42,43
 174 73.0344827586 174 73.0344827586 174 198 c 1,0,-1
EndSplineSet
EndChar

StartChar: ae
Encoding: 230 230 194
Width: 677
Flags: HMW
HStem: -22 99<437.5 466> 473 20G<398 398>
VStem: 24 94<150.5 182> 118 174<144 232> 378 172
LayerCount: 2
Fore
SplineSet
317 458 m 1,0,-1
 398 493 l 1,1,-1
 422 479 l 1,2,3
 398 421 398 421 385 380 c 1,4,5
 456 451 456 451 571 477 c 1,6,7
 632 456 632 456 632 368 c 1,8,9
 621 322 621 322 588 285 c 128,-1,10
 555 248 555 248 513 226 c 0,11,12
 436.21875 185.78125 436.21875 185.78125 378 175 c 1,13,14
 382 125 382 125 404 101 c 128,-1,15
 426 77 426 77 457 77 c 0,16,17
 545 77 545 77 616 225 c 0,18,19
 618 231 618 231 626.5 231 c 128,-1,20
 635 231 635 231 653 217 c 1,21,22
 610 113 610 113 547.5 45.5 c 128,-1,23
 485 -22 485 -22 423 -22 c 128,-1,24
 361 -22 361 -22 326.5 23 c 128,-1,25
 292 68 292 68 292 144 c 2,26,-1
 292 145 l 1,27,28
 251 69 251 69 202 23.5 c 128,-1,29
 153 -22 153 -22 110 -22 c 128,-1,30
 67 -22 67 -22 45.5 8.5 c 128,-1,31
 24 39 24 39 24 97.5 c 128,-1,32
 24 156 24 156 50 216 c 128,-1,33
 76 276 76 276 120.5 321 c 0,34,35
 208.127753304 409.612334802 208.127753304 409.612334802 317 458 c 1,0,-1
168 98 m 0,36,37
 205 98 205 98 245.5 156.5 c 128,-1,38
 286 215 286 215 312 290 c 128,-1,39
 338 365 338 365 346 427 c 1,40,41
 179.981118373 342.224400871 179.981118373 342.224400871 137 254 c 0,42,43
 118 215 118 215 118 172 c 0,44,45
 118 98 118 98 168 98 c 0,36,37
515 398 m 0,46,47
 473 398 473 398 428 349.5 c 128,-1,48
 383 301 383 301 378 215 c 1,49,50
 461 237 461 237 505.5 279.5 c 128,-1,51
 550 322 550 322 550 363 c 0,52,53
 550 378 550 378 541 388 c 128,-1,54
 532 398 532 398 515 398 c 0,46,47
EndSplineSet
EndChar

StartChar: oe
Encoding: 339 339 195
Width: 727
Flags: HMW
HStem: -33 91<198.5 273 198.5 289.5> -33 110 -22 21G<431 516> 465 20G<409 409>
VStem: 42 91<160.5 244.5> 133 238<185 250 185 256> 342 86<169 207> 428 172<169 372.5>
LayerCount: 2
Fore
SplineSet
420 457 m 1,0,-1
 372 402 l 1,1,2
 428 334 428 334 428 231 c 0,3,4
 428 85.8163265306 428 85.8163265306 335 8 c 0,5,6
 286 -33 286 -33 214.5 -33 c 128,-1,7
 143 -33 143 -33 92.5 24 c 128,-1,8
 42 81 42 81 42 181 c 0,9,10
 42 286.24691358 42 286.24691358 120.5 372.5 c 0,11,12
 161 417 161 417 235.5 447 c 128,-1,13
 310 477 310 477 409 485 c 1,14,-1
 420 457 l 1,0,-1
229 58 m 0,15,16
 290 58 290 58 330.5 110 c 128,-1,17
 371 162 371 162 371 218 c 0,18,19
 371 339 371 339 316 405 c 1,20,21
 239 392 239 392 186 336 c 128,-1,22
 133 280 133 280 133 209 c 128,-1,23
 133 138 133 138 158.5 98 c 128,-1,24
 184 58 184 58 229 58 c 0,15,16
682 368 m 1,25,26
 671 322 671 322 638 285 c 128,-1,27
 605 248 605 248 563 226 c 0,28,29
 486.21875 185.78125 486.21875 185.78125 428 175 c 1,30,31
 432 125 432 125 454 101 c 128,-1,32
 476 77 476 77 507 77 c 0,33,34
 595 77 595 77 666 225 c 0,35,36
 668 231 668 231 676.5 231 c 128,-1,37
 685 231 685 231 703 217 c 1,38,39
 660 113 660 113 597.5 45.5 c 128,-1,40
 535 -22 535 -22 473 -22 c 128,-1,41
 411 -22 411 -22 376.5 23 c 128,-1,42
 342 68 342 68 342 144 c 0,43,44
 342 248.950819672 342 248.950819672 399.5 338.5 c 0,45,46
 430 386 430 386 486.5 422.5 c 128,-1,47
 543 459 543 459 621 477 c 1,48,49
 682 456 682 456 682 368 c 1,25,26
565 398 m 0,50,51
 523 398 523 398 478 349.5 c 128,-1,52
 433 301 433 301 428 215 c 1,53,54
 511 237 511 237 555.5 279.5 c 128,-1,55
 600 322 600 322 600 363 c 0,56,57
 600 378 600 378 591 388 c 128,-1,58
 582 398 582 398 565 398 c 0,50,51
EndSplineSet
EndChar

StartChar: dagger
Encoding: 8224 8224 196
Width: 316
Flags: HMW
HStem: -114 21G<132 142> 730 20G<152 152>
LayerCount: 2
Fore
SplineSet
344 532 m 1,0,-1
 314 463 l 1,1,2
 256 452 256 452 175.5 452 c 128,-1,3
 95 452 95 452 9 468 c 1,4,5
 0 471 0 471 -8.5 488.5 c 128,-1,6
 -17 506 -17 506 -18 516 c 1,7,-1
 -13 522 l 1,8,9
 55 514 55 514 150.5 514 c 128,-1,10
 246 514 246 514 335 549 c 1,11,-1
 344 532 l 1,0,-1
114 36 m 128,-1,13
 108 146 108 146 108 349 c 128,-1,14
 108 552 108 552 126 735 c 1,15,-1
 152 750 l 1,16,-1
 236 695 l 1,17,18
 208 580 208 580 190.5 346 c 128,-1,19
 173 112 173 112 173 -94 c 1,20,21
 160 -114 160 -114 137 -114 c 0,22,23
 126.666666667 -114 126.666666667 -114 123.333333333 -94 c 128,-1,12
 120 -74 120 -74 114 36 c 128,-1,13
EndSplineSet
EndChar

StartChar: daggerdbl
Encoding: 8225 8225 197
Width: 316
Flags: HMW
HStem: -114 21G<132 142> 730 20G<152 152>
LayerCount: 2
Fore
SplineSet
329 144 m 1,0,-1
 299 75 l 1,1,2
 241 64 241 64 160.5 64 c 128,-1,3
 80 64 80 64 -6 80 c 1,4,5
 -15 83 -15 83 -23.5 100.5 c 128,-1,6
 -32 118 -32 118 -33 128 c 1,7,-1
 -28 134 l 1,8,9
 40 126 40 126 135.5 126 c 128,-1,10
 231 126 231 126 320 161 c 1,11,-1
 329 144 l 1,0,-1
344 532 m 1,12,-1
 314 463 l 1,13,14
 256 452 256 452 175.5 452 c 128,-1,15
 95 452 95 452 9 468 c 1,16,17
 0 471 0 471 -8.5 488.5 c 128,-1,18
 -17 506 -17 506 -18 516 c 1,19,-1
 -13 522 l 1,20,21
 55 514 55 514 150.5 514 c 128,-1,22
 246 514 246 514 335 549 c 1,23,-1
 344 532 l 1,12,-1
114 36 m 128,-1,25
 108 146 108 146 108 349 c 128,-1,26
 108 552 108 552 126 735 c 1,27,-1
 152 750 l 1,28,-1
 236 695 l 1,29,30
 208 580 208 580 190.5 346 c 128,-1,31
 173 112 173 112 173 -94 c 1,32,33
 160 -114 160 -114 137 -114 c 0,34,35
 126.666666667 -114 126.666666667 -114 123.333333333 -94 c 128,-1,24
 120 -74 120 -74 114 36 c 128,-1,25
EndSplineSet
EndChar

StartChar: notequal
Encoding: 8800 8800 198
Width: 500
Flags: HMW
HStem: -15 21G<91 97.5> 208 82<298 299.5> 379 87<343.5 352.5> 637 20G
LayerCount: 2
Fore
SplineSet
449 283 m 1,0,-1
 463 227 l 1,1,-1
 451 190 l 1,2,3
 361 208 361 208 260.5 208 c 128,-1,4
 160 208 160 208 54 194 c 0,5,6
 49 194 49 194 49 218 c 128,-1,7
 49 242 49 242 53 251 c 1,8,9
 233 290 233 290 340 290 c 0,10,11
 394 290 394 290 449 283 c 1,0,-1
440 464 m 1,12,-1
 458 410 l 1,13,-1
 449 372 l 1,14,15
 377 379 377 379 334 379 c 0,16,17
 208 379 208 379 53 346 c 1,18,19
 46 346 46 346 46 371 c 128,-1,20
 46 396 46 396 48 404 c 1,21,22
 268 466 268 466 397 466 c 0,23,24
 426 466 426 466 440 464 c 1,12,-1
104 -11 m 1,25,26
 104 -15 104 -15 90 -15 c 128,-1,27
 76 -15 76 -15 66 2 c 1,28,29
 236 408 236 408 342 640 c 1,30,-1
 408 657 l 1,31,-1
 434 637 l 1,32,33
 349.298724954 502.169398907 349.298724954 502.169398907 260 320 c 0,34,35
 216.081081081 230.405405405 216.081081081 230.405405405 104 -11 c 1,25,26
EndSplineSet
EndChar

StartChar: dotaccent
Encoding: 729 729 199
Width: 238
Flags: HMW
HStem: 535 21G<89.5 128> 666 20G
VStem: 50 138<588 622>
LayerCount: 2
Fore
SplineSet
66 555 m 128,-1,1
 50 575 50 575 50 604.5 c 128,-1,2
 50 634 50 634 77 656.5 c 128,-1,3
 104 679 104 679 153 686 c 1,4,5
 188 658 188 658 188 618 c 128,-1,6
 188 578 188 578 164 556.5 c 128,-1,7
 140 535 140 535 111 535 c 128,-1,0
 82 535 82 535 66 555 c 128,-1,1
EndSplineSet
EndChar

StartChar: Euro
Encoding: 8364 8364 200
Width: 500
Flags: HMW
HStem: -33 21G<206 322> 40 149<207 304.5> 644 20G<480 480>
LayerCount: 2
Fore
SplineSet
24 384 m 1,0,-1
 74 382 l 1,1,-1
 104 382 l 1,2,3
 148 488 148 488 243 565 c 128,-1,4
 338 642 338 642 480 664 c 1,5,-1
 496 638 l 1,6,-1
 462 552 l 1,7,8
 423 565 423 565 390 565 c 0,9,10
 318 565 318 565 265.5 516 c 128,-1,11
 213 467 213 467 185 388 c 1,12,13
 295 400 295 400 369 437 c 1,14,-1
 379 420 l 1,15,-1
 355 349 l 1,16,17
 268 328 268 328 167 326 c 1,18,19
 160 289 160 289 158 251 c 1,20,-1
 164 251 l 2,21,22
 272 251 272 251 361 286 c 1,23,-1
 370 269 l 1,24,-1
 340 200 l 1,25,26
 282 189 282 189 230.5 189 c 128,-1,27
 179 189 179 189 161 190 c 1,28,29
 169 123 169 123 200 81.5 c 128,-1,30
 231 40 231 40 278 40 c 128,-1,31
 325 40 325 40 373.5 65 c 128,-1,32
 422 90 422 90 450 144 c 1,33,34
 453 152 453 152 463 152 c 128,-1,35
 473 152 473 152 488 138 c 1,36,37
 412 -33 412 -33 266 -33 c 0,38,39
 179 -33 179 -33 127.5 33 c 128,-1,40
 76 99 76 99 71 199 c 1,41,42
 67 200 67 200 59.5 201 c 0,43,44
 46 202.8 46 202.8 35 205 c 0,45,46
 26 206 26 206 17 225.5 c 128,-1,47
 8 245 8 245 8 252 c 128,-1,48
 8 259 8 259 13 259 c 2,49,-1
 72 253 l 1,50,51
 77 297 77 297 86 328 c 1,52,53
 62 330 62 330 51 331.5 c 128,-1,54
 40 333 40 333 29.5 350.5 c 128,-1,55
 19 368 19 368 19 377 c 1,56,-1
 24 384 l 1,0,-1
EndSplineSet
EndChar

StartChar: divide
Encoding: 247 247 201
Width: 500
Flags: HMW
HStem: 86 21G<197 235> 299 86<343.5 352.5> 550 20G<243 281>
VStem: 157 138<137.5 171.5> 183 138<484.5 518.5>
LayerCount: 2
Fore
SplineSet
440 384 m 1,0,-1
 458 329 l 1,1,-1
 449 291 l 1,2,3
 383 299 383 299 334 299 c 0,4,5
 212 299 212 299 54 265 c 1,6,7
 46 265 46 265 46 290.5 c 128,-1,8
 46 316 46 316 48 323 c 1,9,10
 263 385 263 385 397 385 c 0,11,12
 426 385 426 385 440 384 c 1,0,-1
173 105 m 128,-1,14
 157 124 157 124 157 153.5 c 128,-1,15
 157 183 157 183 184 205.5 c 128,-1,16
 211 228 211 228 260 235 c 1,17,18
 295 208 295 208 295 167.5 c 128,-1,19
 295 127 295 127 271 106.5 c 128,-1,20
 247 86 247 86 218 86 c 128,-1,13
 189 86 189 86 173 105 c 128,-1,14
305 551 m 128,-1,22
 321 532 321 532 321 502.5 c 128,-1,23
 321 473 321 473 294 450.5 c 128,-1,24
 267 428 267 428 218 421 c 1,25,26
 183 448 183 448 183 488.5 c 128,-1,27
 183 529 183 529 207 549.5 c 128,-1,28
 231 570 231 570 260 570 c 128,-1,21
 289 570 289 570 305 551 c 128,-1,22
EndSplineSet
EndChar

StartChar: eth
Encoding: 240 240 202
Width: 477
Flags: HMW
HStem: -33 91<198.5 277.5 198.5 289.5> 612 92<98 193.5>
VStem: 42 91<150 222>
LayerCount: 2
Fore
SplineSet
458 578 m 1,0,1
 413 553 413 553 371 534 c 1,2,3
 434 414 434 414 434 247 c 0,4,5
 434 123 434 123 378 45 c 128,-1,6
 322 -33 322 -33 218 -33 c 0,7,8
 143 -33 143 -33 92.5 20 c 128,-1,9
 42 73 42 73 42 167 c 0,10,11
 42 380 42 380 343 436 c 1,12,13
 332 481 332 481 315 514 c 1,14,15
 278 502 278 502 198 486 c 1,16,17
 190 489 190 489 183.5 500 c 128,-1,18
 177 511 177 511 177 522 c 1,19,20
 220 535 220 535 285 561 c 1,21,22
 240 612 240 612 168 612 c 0,23,24
 137 612 137 612 93 601 c 1,25,-1
 74 686 l 1,26,-1
 98 704 l 1,27,28
 251 697 251 697 337 586 c 1,29,30
 383.551724138 611.603448276 383.551724138 611.603448276 409.775862069 634.801724138 c 128,-1,31
 436 658 436 658 440 661 c 1,32,-1
 458 651 l 1,33,-1
 458 578 l 1,0,1
229 58 m 0,34,35
 298 58 298 58 335.5 110 c 128,-1,36
 373 162 373 162 373 240.5 c 128,-1,37
 373 319 373 319 328 374 c 1,38,39
 242 359 242 359 187.5 309 c 128,-1,40
 133 259 133 259 133 194.5 c 128,-1,41
 133 130 133 130 158.5 94 c 128,-1,42
 184 58 184 58 229 58 c 0,34,35
EndSplineSet
EndChar

StartChar: emdash
Encoding: 8212 8212 203
Width: 761
Flags: HMW
HStem: 214 21G<258.5 458.5> 307 20G<721 721>
LayerCount: 2
Fore
SplineSet
748 232 m 1,0,1
 588 214 588 214 428.5 214 c 128,-1,2
 269 214 269 214 174 219.5 c 0,3,4
 0 229.573684211 0 229.573684211 0 243 c 0,5,6
 0 266 0 266 18 279 c 1,7,8
 473 279 473 279 721 327 c 1,9,-1
 761 258 l 1,10,-1
 748 232 l 1,0,1
EndSplineSet
EndChar

StartChar: endash
Encoding: 8211 8211 204
Width: 588
Flags: HMW
HStem: 214 21G<200 354.5> 307 20G<557 557>
LayerCount: 2
Fore
SplineSet
578 232 m 1,0,1
 454 214 454 214 331 214 c 128,-1,2
 208 214 208 214 134.5 219.5 c 0,3,4
 0 229.56462585 0 229.56462585 0 243 c 0,5,6
 0 266 0 266 18 279 c 1,7,8
 368 279 368 279 557 327 c 1,9,-1
 588 258 l 1,10,-1
 578 232 l 1,0,1
EndSplineSet
EndChar

StartChar: parenleft
Encoding: 40 40 205
Width: 317
Flags: HMW
HStem: -98 21G<237 241.5> 723 20G<290 294.5>
VStem: 45 101<214.5 372 211 378>
LayerCount: 2
Fore
SplineSet
285 -58 m 1,0,1
 281 -70 281 -70 263 -84 c 128,-1,2
 245 -98 245 -98 237 -98 c 1,3,4
 45 58 45 58 45 289 c 0,5,6
 45 563 45 563 290 743 c 1,7,8
 297 743 297 743 305.5 734 c 128,-1,9
 314 725 314 725 317 712 c 1,10,11
 146 554 146 554 146 293 c 0,12,13
 146 66 146 66 285 -58 c 1,0,1
EndSplineSet
EndChar

StartChar: parenright
Encoding: 41 41 206
Width: 317
Flags: HMW
HStem: -98 21G<22.5 27> 723 20G<75.5 80>
VStem: 171 101<273 430.5 267 434>
LayerCount: 2
Fore
SplineSet
32 703 m 1,0,1
 36 715 36 715 54 729 c 128,-1,2
 72 743 72 743 80 743 c 1,3,4
 272 587 272 587 272 356 c 0,5,6
 272 82 272 82 27 -98 c 1,7,8
 20 -98 20 -98 11.5 -89 c 128,-1,9
 3 -80 3 -80 0 -67 c 1,10,11
 171 91 171 91 171 352 c 0,12,13
 171 579 171 579 32 703 c 1,0,1
EndSplineSet
EndChar

StartChar: OE
Encoding: 338 338 207
Width: 876
Flags: HMW
HStem: -33 100<225 301> 657 20G<561 561 824 824>
VStem: 30 87<220.5 343.5> 440 81<188.5 320 188.5 326>
LayerCount: 2
Fore
SplineSet
619 -33 m 0,0,1
 499 -33 499 -33 460 125 c 1,2,3
 399 -33 399 -33 244 -33 c 0,4,5
 152 -33 152 -33 91 44 c 128,-1,6
 30 121 30 121 30 256 c 0,7,8
 30 398.585365854 30 398.585365854 113 516 c 0,9,10
 154 574 154 574 224.5 610 c 128,-1,11
 295 646 295 646 384 646 c 0,12,13
 416 646 416 646 505 639 c 1,14,-1
 561 677 l 1,15,-1
 587 661 l 1,16,17
 582 650 582 650 578 633 c 1,18,-1
 609 633 l 2,19,20
 715 633 715 633 824 677 c 1,21,-1
 841 651 l 1,22,-1
 808 565 l 1,23,24
 738 556 738 556 678 556 c 128,-1,25
 618 556 618 556 560 563 c 1,26,27
 536 461 536 461 526 349 c 1,28,-1
 549 349 l 2,29,30
 657 349 657 349 746 384 c 1,31,-1
 755 367 l 1,32,-1
 725 298 l 1,33,34
 667 287 667 287 607.5 287 c 128,-1,35
 548 287 548 287 522 289 c 1,36,37
 521 276 521 276 521 250 c 0,38,39
 521 152 521 152 549.5 88.5 c 128,-1,40
 578 25 578 25 635.5 25 c 128,-1,41
 693 25 693 25 728 67.5 c 128,-1,42
 763 110 763 110 790 205 c 0,43,44
 792 213 792 213 797 213 c 0,45,46
 811 213 811 213 828 199 c 1,47,48
 782 -33 782 -33 619 -33 c 0,0,1
440 320 m 2,49,50
 440 360 440 360 446.5 451 c 128,-1,51
 453 542 453 542 458 578 c 1,52,53
 407 585 407 585 368 585 c 0,54,55
 247 585 247 585 182 500.5 c 128,-1,56
 117 416 117 416 117 301.5 c 128,-1,57
 117 187 117 187 159 127 c 128,-1,58
 201 67 201 67 267 67 c 0,59,60
 346 67 346 67 391.5 141.5 c 128,-1,61
 437 216 437 216 440 311 c 1,62,-1
 440 320 l 2,49,50
EndSplineSet
EndChar

StartChar: bullet
Encoding: 8226 8226 208
Width: 268
Flags: HMW
HStem: 169 21G<95.5 148.5> 358 20G
VStem: 39 194<241.5 289>
LayerCount: 2
Fore
SplineSet
61.5 196 m 128,-1,1
 39 223 39 223 39 264 c 128,-1,2
 39 305 39 305 77 336.5 c 128,-1,3
 115 368 115 368 184 378 c 1,4,5
 233 338 233 338 233 282.5 c 128,-1,6
 233 227 233 227 199 198 c 128,-1,7
 165 169 165 169 124.5 169 c 128,-1,0
 84 169 84 169 61.5 196 c 128,-1,1
EndSplineSet
EndChar

StartChar: germandbls
Encoding: 223 223 209
Width: 532
Flags: HMW
HStem: -110 21G<84.5 94> 692 20G
VStem: 354 175 420 109<120 202.5>
LayerCount: 2
Fore
SplineSet
240 266 m 1,0,-1
 219 304 l 1,1,2
 269 364 269 364 311.5 432 c 128,-1,3
 354 500 354 500 354 522.5 c 128,-1,4
 354 545 354 545 327 582.5 c 128,-1,5
 300 620 300 620 275 640 c 1,6,7
 212.6 640 212.6 640 194 593.5 c 0,8,9
 179 556 179 556 179 497 c 0,10,11
 179 229 179 229 130 -93 c 1,12,13
 113 -110 113 -110 88 -110 c 0,14,15
 80 -110 80 -110 80 -105 c 0,16,17
 105 90 105 90 105 308 c 0,18,19
 105 347 105 347 104 364 c 1,20,21
 62 369 62 369 31 378 c 0,22,23
 24 381 24 381 18 398 c 128,-1,24
 12 415 12 415 11 426 c 1,25,-1
 14 432 l 1,26,27
 54 424 54 424 102 424 c 1,28,29
 101 440 101 440 91 543 c 1,30,31
 95 564 95 564 103.5 581.5 c 128,-1,32
 112 599 112 599 134 623.5 c 0,33,34
 180.864864865 675.69041769 180.864864865 675.69041769 314 712 c 1,35,36
 381 668 381 668 439 554 c 1,37,38
 402 443 402 443 309 344 c 1,39,40
 334 350 334 350 359 350 c 0,41,42
 434 350 434 350 481.5 299.5 c 128,-1,43
 529 249 529 249 529 161 c 128,-1,44
 529 73 529 73 465 17 c 128,-1,45
 401 -39 401 -39 319.5 -39 c 128,-1,46
 238 -39 238 -39 165 4 c 1,47,48
 165 15 165 15 171.5 32.5 c 128,-1,49
 178 50 178 50 184 50 c 1,50,51
 236 16 236 16 289.5 16 c 128,-1,52
 343 16 343 16 381.5 57 c 128,-1,53
 420 98 420 98 420 159.5 c 128,-1,54
 420 221 420 221 392 255.5 c 128,-1,55
 364 290 364 290 323 290 c 128,-1,56
 282 290 282 290 240 266 c 1,0,-1
EndSplineSet
EndChar

StartChar: Thorn
Encoding: 222 222 210
Width: 454
Flags: HMW
HStem: -33 21G<84.5 93.5> 657 20G<96 96>
VStem: 99 87 338 101<282 358>
LayerCount: 2
Fore
SplineSet
143 488 m 1,0,1
 160 393 160 393 160 306 c 128,-1,2
 160 219 160 219 156 170 c 1,3,4
 246 184 246 184 292 223.5 c 128,-1,5
 338 263 338 263 338 314 c 0,6,7
 338 359.612903226 338 359.612903226 310.5 388 c 0,8,9
 295 404 295 404 282.5 415 c 128,-1,10
 270 426 270 426 241 441 c 0,11,12
 195.805194805 464.376623377 195.805194805 464.376623377 143 488 c 1,0,1
123 300 m 1,13,-1
 118 564 l 1,14,15
 158 541 158 541 213.5 515.5 c 128,-1,16
 269 490 269 490 303.5 473.5 c 128,-1,17
 338 457 338 457 372 435 c 0,18,19
 439 391.647058824 439 391.647058824 439 319.823529412 c 128,-1,20
 439 248 439 248 372.5 191 c 128,-1,21
 306 134 306 134 153 122 c 1,22,23
 151 205 151 205 123 300 c 1,13,-1
134 -17 m 1,24,25
 128 -23 128 -23 112.5 -28 c 128,-1,26
 97 -33 97 -33 88.5 -33 c 128,-1,27
 80 -33 80 -33 80 -29 c 0,28,29
 99 100 99 100 99 235 c 0,30,31
 99 475 99 475 70 659 c 1,32,-1
 96 677 l 1,33,-1
 186 631 l 1,34,35
 181 470 181 470 167 273.5 c 128,-1,36
 153 77 153 77 134 -17 c 1,24,25
EndSplineSet
EndChar

StartChar: logicalnot
Encoding: 172 172 211
Width: 500
Flags: HMW
HStem: 99 21G<413 420.5> 373 20G<434 434>
LayerCount: 2
Fore
SplineSet
445 375 m 1,0,-1
 413 299 l 1,1,2
 407 258 407 258 407 210 c 0,3,4
 407 162 407 162 426 101 c 0,5,6
 426 99 426 99 409.5 99 c 0,7,8
 393 99 393 99 382 107 c 1,9,10
 336 198 336 198 333 286 c 1,11,12
 275 281 275 281 205.5 281 c 0,13,14
 136 281 136 281 61 299 c 1,15,16
 54 303 54 303 47 322 c 128,-1,17
 40 341 40 341 38 353 c 1,18,-1
 42 359 l 1,19,20
 93 351 93 351 157.5 351 c 0,21,22
 222 351 222 351 309 364.5 c 128,-1,23
 396 378 396 378 434 393 c 1,24,-1
 445 375 l 1,0,-1
EndSplineSet
EndChar

StartChar: macron
Encoding: 175 175 212
Width: 313
Flags: HMW
HStem: 565 21G<149.5 184> 647 20G<274 274>
LayerCount: 2
Fore
SplineSet
45 636 m 1,0,1
 83 628 83 628 125 628 c 0,2,3
 215 628 215 628 274 667 c 1,4,-1
 287 648 l 1,5,-1
 263 576 l 1,6,7
 213 565 213 565 160.5 565 c 128,-1,8
 108 565 108 565 57 582 c 1,9,10
 51 586 51 586 45.5 603.5 c 128,-1,11
 40 621 40 621 40 628.5 c 128,-1,12
 40 636 40 636 45 636 c 1,0,1
EndSplineSet
EndChar

StartChar: five
Encoding: 53 53 213
Width: 500
Flags: HMW
HStem: -39 21G<177.5 264.5> 620 20G<283.5 335.5>
VStem: 333 109<120 208>
LayerCount: 2
Fore
SplineSet
381 308 m 128,-1,1
 442 254 442 254 442 163.5 c 128,-1,2
 442 73 442 73 371.5 17 c 128,-1,3
 301 -39 301 -39 209.5 -39 c 128,-1,4
 118 -39 118 -39 41 4 c 1,5,6
 41 15 41 15 47.5 32.5 c 128,-1,7
 54 50 54 50 60 50 c 1,8,9
 119 16 119 16 181.5 16 c 128,-1,10
 244 16 244 16 288.5 57 c 128,-1,11
 333 98 333 98 333 162.5 c 128,-1,12
 333 227 333 227 297 262 c 128,-1,13
 261 297 261 297 210.5 297 c 128,-1,14
 160 297 160 297 116 268 c 0,15,16
 101 257 101 257 82 257 c 128,-1,17
 63 257 63 257 63 259 c 0,18,19
 83 340 83 340 83 476 c 0,20,21
 83 514 83 514 80 552 c 1,22,23
 80 580 80 580 98 599 c 1,24,25
 190 640 190 640 324 640 c 0,26,27
 358.5 640 358.5 640 393 637 c 1,28,-1
 433 566 l 1,29,-1
 422 538 l 1,30,31
 351 568 351 568 233 568 c 0,32,33
 194 568 194 568 162 565 c 1,34,35
 144 383 144 383 134 332 c 1,36,37
 182 362 182 362 239 362 c 0,38,0
 320 362 320 362 381 308 c 128,-1,1
EndSplineSet
EndChar

StartChar: underscore
Encoding: 95 95 214
Width: 445
Flags: HMW
HStem: -114 21G<202 265.5> -27 20G<434 434>
LayerCount: 2
Fore
SplineSet
0 -43 m 1,0,1
 0 -37 0 -37 4.5 -37 c 2,2,-1
 6 -37 l 1,3,4
 75 -45 75 -45 158 -45 c 0,5,6
 314 -45 314 -45 434 -7 c 1,7,-1
 445 -25 l 1,8,-1
 412 -103 l 1,9,10
 321 -114 321 -114 223.5 -114 c 128,-1,11
 126 -114 126 -114 32 -97 c 1,12,13
 23 -93 23 -93 13 -74.5 c 128,-1,14
 3 -56 3 -56 0 -43 c 1,0,1
EndSplineSet
EndChar

StartChar: ampersand
Encoding: 38 38 215
Width: 533
Flags: HMW
HStem: -33 21G<509 526> -22 89<179.5 210> 644 20G<474 474>
VStem: 25 97<148.5 174> 140 103<456.5 510.5>
LayerCount: 2
Fore
SplineSet
174 -22 m 0,0,1
 103 -22 103 -22 64 22 c 128,-1,2
 25 66 25 66 25 132 c 128,-1,3
 25 198 25 198 60.5 262.5 c 128,-1,4
 96 327 96 327 164 374 c 1,5,6
 140 430 140 430 140 467.5 c 128,-1,7
 140 505 140 505 151.5 531.5 c 128,-1,8
 163 558 163 558 195 586 c 0,9,10
 261.19939577 643.924471299 261.19939577 643.924471299 474 664 c 1,11,-1
 490 638 l 1,12,-1
 458 552 l 1,13,14
 399 588 399 588 349 588 c 128,-1,15
 299 588 299 588 271 561 c 128,-1,16
 243 534 243 534 243 481 c 0,17,18
 243 372 243 372 368 191 c 1,19,20
 408 256 408 256 433 341 c 0,21,22
 435 349 435 349 440 349 c 0,23,24
 454 349 454 349 471 335 c 1,25,26
 454 228 454 228 404 141 c 1,27,28
 446 84 446 84 533 -24 c 1,29,30
 533 -33 533 -33 524 -33 c 0,31,32
 492 -33 492 -33 476 -20 c 1,33,34
 428 24 428 24 368 89 c 1,35,36
 280 -22 280 -22 174 -22 c 0,0,1
327 134 m 1,37,38
 238 238 238 238 189 323 c 1,39,40
 122 260 122 260 122 176 c 0,41,42
 122 132 122 132 145 99.5 c 128,-1,43
 168 67 168 67 208 67 c 0,44,45
 270 67 270 67 327 134 c 1,37,38
EndSplineSet
EndChar

StartChar: quotedblright
Encoding: 8221 8221 216
Width: 405
Flags: HMW
HStem: 403 21G<23 32.5 211 220.5> 650 20G<97.5 134.5 285.5 322.5>
VStem: 43 135<597 617 526.5 620.5> 231 135<597 617 526.5 620.5>
LayerCount: 2
Fore
SplineSet
161 649 m 128,-1,1
 178 628 178 628 178 592 c 128,-1,2
 178 556 178 556 163.5 522.5 c 128,-1,3
 149 489 149 489 128.5 468 c 128,-1,4
 108 447 108 447 85 431.5 c 0,5,6
 42.7096774194 403 42.7096774194 403 26 403 c 0,7,8
 22 403 22 403 16 414.5 c 128,-1,9
 10 426 10 426 10 434 c 1,10,11
 81 467 81 467 86 535 c 1,12,-1
 43 597 l 1,13,14
 43 631 43 631 64.5 650.5 c 128,-1,15
 86 670 86 670 115 670 c 128,-1,0
 144 670 144 670 161 649 c 128,-1,1
349 649 m 128,-1,17
 366 628 366 628 366 592 c 128,-1,18
 366 556 366 556 351.5 522.5 c 128,-1,19
 337 489 337 489 316.5 468 c 128,-1,20
 296 447 296 447 273 431.5 c 0,21,22
 230.709677419 403 230.709677419 403 214 403 c 0,23,24
 210 403 210 403 204 414.5 c 128,-1,25
 198 426 198 426 198 434 c 1,26,27
 269 467 269 467 274 535 c 1,28,-1
 231 597 l 1,29,30
 231 631 231 631 252.5 650.5 c 128,-1,31
 274 670 274 670 303 670 c 128,-1,16
 332 670 332 670 349 649 c 128,-1,17
EndSplineSet
EndChar

StartChar: quotedblleft
Encoding: 8220 8220 217
Width: 385
Flags: HMW
HStem: 403 21G<82.5 119.5 270.5 307.5> 650 20G<184.5 194 372.5 382>
VStem: 39 135<456 476 452.5 546.5> 227 135<456 476 452.5 546.5>
LayerCount: 2
Fore
SplineSet
56 424 m 128,-1,1
 39 445 39 445 39 481 c 128,-1,2
 39 517 39 517 53.5 550.5 c 128,-1,3
 68 584 68 584 88.5 605 c 128,-1,4
 109 626 109 626 132 641.5 c 0,5,6
 174.290322581 670 174.290322581 670 191 670 c 0,7,8
 195 670 195 670 201 658.5 c 128,-1,9
 207 647 207 647 207 639 c 1,10,11
 136 606 136 606 131 538 c 1,12,-1
 174 476 l 1,13,14
 174 442 174 442 152.5 422.5 c 128,-1,15
 131 403 131 403 102 403 c 128,-1,0
 73 403 73 403 56 424 c 128,-1,1
244 424 m 128,-1,17
 227 445 227 445 227 481 c 128,-1,18
 227 517 227 517 241.5 550.5 c 128,-1,19
 256 584 256 584 276.5 605 c 128,-1,20
 297 626 297 626 320 641.5 c 0,21,22
 362.290322581 670 362.290322581 670 379 670 c 0,23,24
 383 670 383 670 389 658.5 c 128,-1,25
 395 647 395 647 395 639 c 1,26,27
 324 606 324 606 319 538 c 1,28,-1
 362 476 l 1,29,30
 362 442 362 442 340.5 422.5 c 128,-1,31
 319 403 319 403 290 403 c 128,-1,16
 261 403 261 403 244 424 c 128,-1,17
EndSplineSet
EndChar

StartChar: quoteleft
Encoding: 8216 8216 218
Width: 197
Flags: HMW
HStem: 403 21G<82.5 119.5> 650 20G<184.5 194>
VStem: 39 135<456 476 452.5 546.5>
LayerCount: 2
Fore
SplineSet
56 424 m 128,-1,1
 39 445 39 445 39 481 c 128,-1,2
 39 517 39 517 53.5 550.5 c 128,-1,3
 68 584 68 584 88.5 605 c 128,-1,4
 109 626 109 626 132 641.5 c 0,5,6
 174.290322581 670 174.290322581 670 191 670 c 0,7,8
 195 670 195 670 201 658.5 c 128,-1,9
 207 647 207 647 207 639 c 1,10,11
 136 606 136 606 131 538 c 1,12,-1
 174 476 l 1,13,14
 174 442 174 442 152.5 422.5 c 128,-1,15
 131 403 131 403 102 403 c 128,-1,0
 73 403 73 403 56 424 c 128,-1,1
EndSplineSet
EndChar

StartChar: quoteright
Encoding: 8217 8217 219
Width: 217
Flags: HMW
HStem: 403 21G<23 32.5> 650 20G<97.5 134.5>
VStem: 43 135<597 617 526.5 620.5>
LayerCount: 2
Fore
SplineSet
161 649 m 128,-1,1
 178 628 178 628 178 592 c 128,-1,2
 178 556 178 556 163.5 522.5 c 128,-1,3
 149 489 149 489 128.5 468 c 128,-1,4
 108 447 108 447 85 431.5 c 0,5,6
 42.7096774194 403 42.7096774194 403 26 403 c 0,7,8
 22 403 22 403 16 414.5 c 128,-1,9
 10 426 10 426 10 434 c 1,10,11
 81 467 81 467 86 535 c 1,12,-1
 43 597 l 1,13,14
 43 631 43 631 64.5 650.5 c 128,-1,15
 86 670 86 670 115 670 c 128,-1,0
 144 670 144 670 161 649 c 128,-1,1
EndSplineSet
EndChar

StartChar: quotesinglbase
Encoding: 8218 8218 220
Width: 217
Flags: HMW
HStem: -138 21G<23 32.5> 109 20G<97.5 134.5>
VStem: 43 135<56 76 -14.5 79.5>
LayerCount: 2
Fore
SplineSet
161 108 m 128,-1,1
 178 87 178 87 178 51 c 128,-1,2
 178 15 178 15 163.5 -18.5 c 128,-1,3
 149 -52 149 -52 128.5 -73 c 128,-1,4
 108 -94 108 -94 85 -109.5 c 0,5,6
 42.7096774194 -138 42.7096774194 -138 26 -138 c 0,7,8
 22 -138 22 -138 16 -126.5 c 128,-1,9
 10 -115 10 -115 10 -107 c 1,10,11
 81 -74 81 -74 86 -6 c 1,12,-1
 43 56 l 1,13,14
 43 90 43 90 64.5 109.5 c 128,-1,15
 86 129 86 129 115 129 c 128,-1,0
 144 129 144 129 161 108 c 128,-1,1
EndSplineSet
EndChar

StartChar: quotedblbase
Encoding: 8222 8222 221
Width: 405
Flags: HMW
HStem: -138 21G<23 32.5 211 220.5> 109 20G<97.5 134.5 285.5 322.5>
VStem: 43 135<56 76 -14.5 79.5> 231 135<56 76 -14.5 79.5>
LayerCount: 2
Fore
SplineSet
161 108 m 128,-1,1
 178 87 178 87 178 51 c 128,-1,2
 178 15 178 15 163.5 -18.5 c 128,-1,3
 149 -52 149 -52 128.5 -73 c 128,-1,4
 108 -94 108 -94 85 -109.5 c 0,5,6
 42.7096774194 -138 42.7096774194 -138 26 -138 c 0,7,8
 22 -138 22 -138 16 -126.5 c 128,-1,9
 10 -115 10 -115 10 -107 c 1,10,11
 81 -74 81 -74 86 -6 c 1,12,-1
 43 56 l 1,13,14
 43 90 43 90 64.5 109.5 c 128,-1,15
 86 129 86 129 115 129 c 128,-1,0
 144 129 144 129 161 108 c 128,-1,1
349 108 m 128,-1,17
 366 87 366 87 366 51 c 128,-1,18
 366 15 366 15 351.5 -18.5 c 128,-1,19
 337 -52 337 -52 316.5 -73 c 128,-1,20
 296 -94 296 -94 273 -109.5 c 0,21,22
 230.709677419 -138 230.709677419 -138 214 -138 c 0,23,24
 210 -138 210 -138 204 -126.5 c 128,-1,25
 198 -115 198 -115 198 -107 c 1,26,27
 269 -74 269 -74 274 -6 c 1,28,-1
 231 56 l 1,29,30
 231 90 231 90 252.5 109.5 c 128,-1,31
 274 129 274 129 303 129 c 128,-1,16
 332 129 332 129 349 108 c 128,-1,17
EndSplineSet
EndChar

StartChar: six
Encoding: 54 54 222
Width: 500
Flags: HMW
HStem: -41 21G<176 327> 649 20G<302.5 317>
VStem: 40 96<150 219 150 263.5> 367 100<133.5 213.5>
LayerCount: 2
Fore
SplineSet
171 348 m 1,0,-1
 180 342 l 1,1,2
 229 374 229 374 282 374 c 0,3,4
 356 374 356 374 411.5 319.5 c 128,-1,5
 467 265 467 265 467 177.5 c 128,-1,6
 467 90 467 90 411.5 24.5 c 128,-1,7
 356 -41 356 -41 256 -41 c 0,8,9
 199 -41 199 -41 155.5 -21 c 128,-1,10
 112 -1 112 -1 87.5 33 c 0,11,12
 40 98.9183673469 40 98.9183673469 40 194.459183673 c 128,-1,13
 40 290 40 290 117.5 424.5 c 128,-1,14
 195 559 195 559 292 667 c 1,15,16
 298 669 298 669 310 669 c 128,-1,17
 322 669 322 669 334 665 c 128,-1,18
 346 661 346 661 346 657 c 1,19,20
 219 484 219 484 171 348 c 1,0,-1
235 13 m 1,21,22
 283 13 283 13 325 63 c 128,-1,23
 367 113 367 113 367 173.5 c 128,-1,24
 367 234 367 234 339 274 c 128,-1,25
 311 314 311 314 254.5 314 c 128,-1,26
 198 314 198 314 167 277.5 c 128,-1,27
 136 241 136 241 136 186 c 128,-1,28
 136 131 136 131 163.5 81 c 128,-1,29
 191 31 191 31 235 13 c 1,21,22
EndSplineSet
EndChar

StartChar: nine
Encoding: 57 57 223
Width: 500
Flags: HMW
HStem: -45 21G<205 219.5> 645 20G<178 329>
VStem: 38 100<396.5 490.5 396.5 500> 369 96<395.5 473>
LayerCount: 2
Fore
SplineSet
334 276 m 1,0,-1
 325 282 l 1,1,2
 276 250 276 250 223 250 c 0,3,4
 149 250 149 250 93.5 304.5 c 128,-1,5
 38 359 38 359 38 446.5 c 128,-1,6
 38 534 38 534 93.5 599.5 c 128,-1,7
 149 665 149 665 249 665 c 0,8,9
 306 665 306 665 349.5 645 c 128,-1,10
 393 625 393 625 417.5 591 c 0,11,12
 465 525.081632653 465 525.081632653 465 429.540816327 c 128,-1,13
 465 334 465 334 392.5 199 c 128,-1,14
 320 64 320 64 230 -43 c 1,15,16
 224 -45 224 -45 215 -45 c 128,-1,17
 206 -45 206 -45 196 -43 c 0,18,19
 176 -39 176 -39 176 -35 c 2,20,-1
 176 -33 l 1,21,22
 289 139 289 139 334 276 c 1,0,-1
270 611 m 1,23,24
 222 611 222 611 180 561 c 128,-1,25
 138 511 138 511 138 444.5 c 128,-1,26
 138 378 138 378 171.5 343 c 128,-1,27
 205 308 205 308 252 308 c 128,-1,28
 299 308 299 308 334 343 c 128,-1,29
 369 378 369 378 369 435 c 128,-1,30
 369 492 369 492 341.5 542.5 c 128,-1,31
 314 593 314 593 270 611 c 1,23,24
EndSplineSet
EndChar

StartChar: braceleft
Encoding: 123 123 224
Width: 347
Flags: HMW
HStem: -83 21G<157 226> 724 20G<161 222>
VStem: 74 84<53.5 63 -15 136>
LayerCount: 2
Fore
SplineSet
36 321 m 1,0,-1
 39 372 l 1,1,2
 73 372 73 372 98 387 c 1,3,4
 96 425 96 425 96 471 c 0,5,6
 96 517 96 517 101 562.5 c 128,-1,7
 106 608 106 608 117.5 651 c 128,-1,8
 129 694 129 694 151.5 719 c 128,-1,9
 174 744 174 744 205 744 c 0,10,11
 253 744 253 744 338 712 c 1,12,13
 347 703 347 703 347 679.5 c 0,14,15
 347 656 347 656 341 650 c 1,16,17
 280 666 280 666 223 670 c 1,18,19
 192 584 192 584 176 440 c 0,20,21
 168 376 168 376 117 343 c 1,22,23
 146 323 146 323 157 299.5 c 128,-1,24
 168 276 168 276 168 249.5 c 0,25,26
 168 223 168 223 163 149 c 128,-1,27
 158 75 158 75 158 -15 c 1,28,29
 229 -8 229 -8 304 20 c 1,30,-1
 315 2 l 1,31,-1
 282 -76 l 1,32,33
 247 -83 247 -83 216 -83 c 0,34,35
 134 -83 134 -83 104 -33.5 c 128,-1,36
 74 16 74 16 74 110.5 c 0,37,38
 74 205 74 205 95 291 c 1,39,40
 72 311 72 311 36 321 c 1,0,-1
EndSplineSet
EndChar

StartChar: braceright
Encoding: 125 125 225
Width: 347
Flags: HMW
HStem: -83 21G<125 186> 724 20G<121 190>
VStem: 189 84<598 607.5 525 676>
LayerCount: 2
Fore
SplineSet
311 340 m 1,0,-1
 308 289 l 1,1,2
 274 289 274 289 249 274 c 1,3,4
 251 236 251 236 251 190 c 0,5,6
 251 144 251 144 246 98.5 c 128,-1,7
 241 53 241 53 229.5 10 c 128,-1,8
 218 -33 218 -33 195.5 -58 c 128,-1,9
 173 -83 173 -83 142 -83 c 0,10,11
 94 -83 94 -83 9 -51 c 1,12,13
 0 -42 0 -42 0 -18.5 c 0,14,15
 0 5 0 5 6 11 c 1,16,17
 67 -5 67 -5 124 -9 c 1,18,19
 155 77 155 77 171 221 c 0,20,21
 179 285 179 285 230 318 c 1,22,23
 201 338 201 338 190 361.5 c 128,-1,24
 179 385 179 385 179 411.5 c 0,25,26
 179 438 179 438 184 512 c 128,-1,27
 189 586 189 586 189 676 c 1,28,29
 118 669 118 669 43 641 c 1,30,-1
 32 659 l 1,31,-1
 65 737 l 1,32,33
 100 744 100 744 131 744 c 0,34,35
 213 744 213 744 243 694.5 c 128,-1,36
 273 645 273 645 273 550.5 c 0,37,38
 273 456 273 456 252 370 c 1,39,40
 275 350 275 350 311 340 c 1,0,-1
EndSplineSet
EndChar

StartChar: currency
Encoding: 164 164 226
Width: 500
Flags: HMW
HStem: 89 21G<97 98> 547 20G<401 401>
LayerCount: 2
Fore
SplineSet
276 502 m 0,0,1
 304 502 304 502 328 493 c 1,2,3
 368 541 368 541 401 567 c 1,4,-1
 452 543 l 1,5,-1
 473 511 l 1,6,7
 436 480 436 480 397 440 c 1,8,9
 420 401 420 401 420 340.5 c 128,-1,10
 420 280 420 280 381 226 c 1,11,12
 430 177 430 177 471 143 c 0,13,14
 472 142 472 142 472 138.5 c 128,-1,15
 472 135 472 135 457.5 123 c 128,-1,16
 443 111 443 111 429 106 c 1,17,18
 369 153 369 153 335 183 c 1,19,20
 291 154 291 154 243.5 154 c 128,-1,21
 196 154 196 154 164 169 c 1,22,23
 120 117 120 117 101 91 c 0,24,25
 99 89 99 89 96 89.5 c 128,-1,26
 93 90 93 90 79.5 104 c 128,-1,27
 66 118 66 118 61 131 c 1,28,29
 69 143 69 143 117 210 c 1,30,31
 91 247 91 247 91 299.5 c 128,-1,32
 91 352 91 352 104 385 c 1,33,34
 62 421 62 421 30 462 c 1,35,-1
 57 512 l 1,36,-1
 88 531 l 1,37,38
 115 496 115 496 153 458 c 1,39,40
 203 502 203 502 276 502 c 0,0,1
342.5 406.5 m 128,-1,42
 315 429 315 429 265 429 c 128,-1,43
 215 429 215 429 177.5 397 c 128,-1,44
 140 365 140 365 140 318.5 c 128,-1,45
 140 272 140 272 167 249.5 c 128,-1,46
 194 227 194 227 243 227 c 128,-1,47
 292 227 292 227 331 259.5 c 128,-1,48
 370 292 370 292 370 338 c 128,-1,41
 370 384 370 384 342.5 406.5 c 128,-1,42
EndSplineSet
EndChar

StartChar: asterisk
Encoding: 42 42 227
Width: 465
Flags: HMW
HStem: 359 21G<242 245> 680 20G<269 269>
LayerCount: 2
Fore
SplineSet
197 480 m 1,0,-1
 106 417 l 1,1,2
 100 417 100 417 92 434.5 c 128,-1,3
 84 452 84 452 84 460 c 1,4,5
 137 505 137 505 167 529 c 1,6,7
 114 568 114 568 80 605 c 1,8,-1
 102 648 l 1,9,-1
 128 666 l 1,10,11
 164 621 164 621 201 588 c 1,12,13
 207 644 207 644 222 696 c 1,14,-1
 269 700 l 1,15,-1
 297 687 l 1,16,17
 284 647 284 647 274 602 c 1,18,19
 311 625 311 625 355 642 c 1,20,-1
 388 608 l 1,21,-1
 395 577 l 1,22,23
 341 557 341 557 276 525 c 1,24,25
 328 486 328 486 379 455 c 0,26,27
 381 453 381 453 381 452 c 0,28,29
 366 423 366 423 348 418 c 1,30,31
 293 447 293 447 254 470 c 1,32,33
 251 421 251 421 251 363 c 1,34,35
 249 359 249 359 232.5 360 c 128,-1,36
 216 361 216 361 204 368 c 1,37,38
 198 447 198 447 197 480 c 1,0,-1
EndSplineSet
EndChar

StartChar: hungarumlaut
Encoding: 733 733 228
Width: 436
Flags: HMW
HStem: 517 21G<78 82 236 240> 691 20G<188 188 346 346>
LayerCount: 2
Fore
SplineSet
203 703 m 1,0,-1
 228 628 l 1,1,2
 191 586 191 586 159.5 562 c 128,-1,3
 128 538 128 538 82 517 c 1,4,5
 75 517 75 517 63 529.5 c 128,-1,6
 51 542 51 542 50 552 c 1,7,8
 144 627 144 627 188 711 c 1,9,-1
 203 703 l 1,0,-1
361 703 m 1,10,-1
 386 628 l 1,11,12
 349 586 349 586 317.5 562 c 128,-1,13
 286 538 286 538 240 517 c 1,14,15
 233 517 233 517 221 529.5 c 128,-1,16
 209 542 209 542 208 552 c 1,17,18
 302 627 302 627 346 711 c 1,19,-1
 361 703 l 1,10,-1
EndSplineSet
EndChar

StartChar: ogonek
Encoding: 731 731 229
Width: 426
Flags: HMW
HStem: -225 21G<156 210> -20 20G<174 215 215 215>
LayerCount: 2
Fore
SplineSet
174 0 m 1,0,-1
 215 0 l 1,1,2
 158 -48 158 -48 158 -109 c 0,3,4
 158 -135 158 -135 171 -150.5 c 128,-1,5
 184 -166 184 -166 208 -166 c 0,6,7
 249 -166 249 -166 286 -100 c 1,8,9
 304 -100 304 -100 312 -114 c 1,10,11
 292 -162 292 -162 257 -193.5 c 128,-1,12
 222 -225 222 -225 182.5 -225 c 0,13,14
 143 -225 143 -225 119.5 -199 c 128,-1,15
 96 -173 96 -173 96 -136 c 0,16,17
 96 -99 96 -99 118.5 -60.5 c 128,-1,18
 141 -22 141 -22 174 0 c 1,0,-1
EndSplineSet
EndChar

StartChar: breve
Encoding: 728 728 230
Width: 333
Flags: HMW
HStem: 548 21G<129.5 200.5> 671 20G<288 288>
LayerCount: 2
Fore
SplineSet
236 664 m 1,0,-1
 288 691 l 1,1,-1
 302 681 l 1,2,3
 302 627 302 627 261 587.5 c 128,-1,4
 220 548 220 548 165.5 548 c 0,5,6
 111 548 111 548 81 572.5 c 128,-1,7
 51 597 51 597 51 646 c 1,8,-1
 102 673 l 1,9,-1
 117 663 l 1,10,11
 117 625 117 625 146.5 611 c 0,12,13
 160.040983607 604.573770492 160.040983607 604.573770492 174.905737705 604.573770492 c 0,14,15
 189.770491803 604.573770492 189.770491803 604.573770492 206 613.5 c 0,16,17
 236 630 236 630 236 664 c 1,0,-1
EndSplineSet
EndChar

StartChar: infinity
Encoding: 8734 8734 231
Width: 710
Flags: HMW
HStem: 114 94<177.5 220> 386 95<196.5 251>
LayerCount: 2
Fore
SplineSet
345 224 m 1,0,1
 316 169 316 169 276 141.5 c 128,-1,2
 236 114 236 114 194 114 c 0,3,4
 132 114 132 114 92.5 156.5 c 128,-1,5
 53 199 53 199 53 271 c 0,6,7
 53 364 53 364 108 422.5 c 128,-1,8
 163 481 163 481 232 481 c 0,9,10
 276 481 276 481 311.5 453.5 c 128,-1,11
 347 426 347 426 363 371 c 1,12,13
 422 481 422 481 515 481 c 0,14,15
 576 481 576 481 616 438 c 128,-1,16
 656 395 656 395 656 324 c 0,17,18
 656 232 656 232 600.5 173 c 128,-1,19
 545 114 545 114 476 114 c 0,20,21
 432 114 432 114 396.5 141.5 c 128,-1,22
 361 169 361 169 345 224 c 1,0,1
332 296 m 1,23,24
 299.857142857 386 299.857142857 386 222.5 386 c 0,25,26
 183 386 183 386 154 354.5 c 128,-1,27
 125 323 125 323 125 287.5 c 128,-1,28
 125 252 125 252 145.5 230 c 128,-1,29
 166 208 166 208 204 208 c 0,30,31
 289 208 289 208 332 296 c 1,23,24
419 233 m 128,-1,33
 447 209 447 209 486.5 209 c 128,-1,34
 526 209 526 209 554 240 c 128,-1,35
 582 271 582 271 582 307 c 128,-1,36
 582 343 582 343 562.5 365 c 128,-1,37
 543 387 543 387 505 387 c 128,-1,38
 467 387 467 387 432.5 365.5 c 128,-1,39
 398 344 398 344 376 299 c 1,40,32
 391 257 391 257 419 233 c 128,-1,33
EndSplineSet
EndChar

StartChar: product
Encoding: 8719 8719 232
Width: 713
Flags: HMW
HStem: -208 21G<193 203 523 533> 697 20G<671 671>
VStem: 163 80 493 80
LayerCount: 2
Fore
SplineSet
571 595 m 1,0,1
 575.571428571 507.571428571 575.571428571 507.571428571 575.571428571 342.726890756 c 128,-1,2
 575.571428571 177.882352941 575.571428571 177.882352941 550 -138 c 1,3,4
 543 -208 543 -208 528 -208 c 0,5,6
 504 -208 504 -208 493 -188 c 1,7,8
 496.0625 -100.9375 496.0625 -100.9375 496.0625 5.234375 c 128,-1,9
 496.0625 111.40625 496.0625 111.40625 489.03125 290.703125 c 128,-1,10
 482 470 482 470 460 590 c 1,11,12
 433 589 433 589 360.5 589 c 128,-1,13
 288 589 288 589 241 591 c 1,14,15
 245.571428571 504.714285714 245.571428571 504.714285714 245.571428571 414.071428571 c 128,-1,16
 245.571428571 323.428571429 245.571428571 323.428571429 241.285714286 197.714285714 c 128,-1,17
 237 72 237 72 220 -138 c 1,18,19
 213 -208 213 -208 198 -208 c 0,20,21
 174 -208 174 -208 163 -188 c 1,22,23
 166.0625 -99.625 166.0625 -99.625 166.0625 7.9375 c 128,-1,24
 166.0625 115.5 166.0625 115.5 159.03125 296.75 c 128,-1,25
 152 478 152 478 129 596 c 1,26,-1
 82 599 l 2,27,28
 26.7368421053 602.684210526 26.7368421053 602.684210526 19.3684210526 607.842105263 c 128,-1,29
 12 613 12 613 12 618 c 0,30,31
 14 643 14 643 29 654 c 1,32,33
 196 654 196 654 386.5 671.5 c 128,-1,34
 577 689 577 689 671 717 c 1,35,-1
 713 633 l 1,36,-1
 700 607 l 1,37,38
 635 599 635 599 571 595 c 1,0,1
EndSplineSet
EndChar

